GeoramaSemiCondensed-BoldItalic.ufo
<glyph name="exclam" format="2">
  <advance width="207.62"/>
  <unicode hex="0021"/>
  <outline>
    <contour>
      <point x="40.96000000000001" y="260.5" type="line"/>
      <point x="158.07999999999998" y="260.5" type="line"/>
      <point x="247.22" y="740.0" type="line"/>
      <point x="109.8" y="740.0" type="line"/>
    </contour>
    <contour>
      <point x="-4.579999999999998" y="51.58" type="curve" smooth="yes"/>
      <point x="-4.8799999999999955" y="12.299999999999999"/>
      <point x="13.800000000000004" y="-7.0"/>
      <point x="58.48" y="-7.0" type="curve" smooth="yes"/>
      <point x="125.14" y="-7.0"/>
      <point x="148.85999999999999" y="51.54"/>
      <point x="149.76" y="108.28" type="curve" smooth="yes"/>
      <point x="150.06" y="147.79999999999998"/>
      <point x="130.9" y="166.85999999999999"/>
      <point x="86.60000000000001" y="166.85999999999999" type="curve" smooth="yes"/>
      <point x="20.840000000000003" y="166.85999999999999"/>
      <point x="-3.679999999999996" y="108.74"/>
    </contour>
  </outline>
</glyph>
<glyph name="numbersign" format="2">
  <advance width="504.23999999999995"/>
  <unicode hex="0023"/>
  <outline>
    <contour>
      <point x="93.72" y="421.32" type="line"/>
      <point x="146.88" y="421.32" type="line"/>
      <point x="106.07999999999998" y="272.73999999999995" type="line"/>
      <point x="53.139999999999986" y="272.73999999999995" type="line"/>
      <point x="34.28" y="155.68" type="line"/>
      <point x="78.42000000000002" y="155.68" type="line"/>
      <point x="38.58" y="0.0" type="line"/>
      <point x="147.44" y="0.0" type="line"/>
      <point x="186.98000000000002" y="155.68" type="line"/>
      <point x="245.42" y="155.68" type="line"/>
      <point x="205.88000000000002" y="0.0" type="line"/>
      <point x="313.94" y="0.0" type="line"/>
      <point x="353.48" y="155.68" type="line"/>
      <point x="415.68" y="155.68" type="line"/>
      <point x="434.16" y="272.73999999999995" type="line"/>
      <point x="381.47999999999996" y="272.73999999999995" type="line"/>
      <point x="421.94" y="421.32" type="line"/>
      <point x="474.73999999999995" y="421.32" type="line"/>
      <point x="493.98" y="539.22" type="line"/>
      <point x="449.65999999999997" y="539.22" type="line"/>
      <point x="491.08000000000004" y="700.0" type="line"/>
      <point x="382.46" y="700.0" type="line"/>
      <point x="341.0400000000001" y="539.22" type="line"/>
      <point x="282.6" y="539.22" type="line"/>
      <point x="324.02000000000004" y="700.0" type="line"/>
      <point x="215.96" y="700.0" type="line"/>
      <point x="174.54" y="539.22" type="line"/>
      <point x="112.82" y="539.22" type="line"/>
    </contour>
    <contour>
      <point x="254.94" y="421.32" type="line"/>
      <point x="313.38" y="421.32" type="line"/>
      <point x="273.14" y="272.73999999999995" type="line"/>
      <point x="214.7" y="272.73999999999995" type="line"/>
    </contour>
  </outline>
</glyph>
<glyph name="dollar" format="2">
  <advance width="504.23999999999995"/>
  <unicode hex="0024"/>
  <outline>
    <contour>
      <point x="490.11999999999995" y="677.52" type="line"/>
      <point x="465.1" y="689.2400000000001"/>
      <point x="424.92" y="702.3599999999999"/>
      <point x="376.0" y="707.2199999999999" type="curve"/>
      <point x="391.2" y="803.88" type="line"/>
      <point x="278.40000000000003" y="803.88" type="line"/>
      <point x="261.34" y="699.8200000000002" type="line"/>
      <point x="154.34" y="678.34"/>
      <point x="84.48000000000002" y="598.8399999999999"/>
      <point x="84.48000000000002" y="495.64000000000004" type="curve" smooth="yes"/>
      <point x="84.48000000000002" y="308.72"/>
      <point x="303.8" y="284.08"/>
      <point x="303.8" y="195.01999999999998" type="curve" smooth="yes"/>
      <point x="303.8" y="145.95999999999998"/>
      <point x="264.44" y="115.37999999999998"/>
      <point x="206.94" y="115.37999999999998" type="curve" smooth="yes"/>
      <point x="153.26" y="115.37999999999998"/>
      <point x="97.25999999999999" y="128.42"/>
      <point x="48.76" y="149.20000000000002" type="curve"/>
      <point x="4.440000000000002" y="29.700000000000003" type="line"/>
      <point x="40.86" y="12.039999999999997"/>
      <point x="91.72000000000001" y="-2.3800000000000012"/>
      <point x="142.54000000000002" y="-6.5" type="curve"/>
      <point x="127.54000000000002" y="-105.0" type="line"/>
      <point x="240.2" y="-105.0" type="line"/>
      <point x="255.2" y="-3.8800000000000003" type="line"/>
      <point x="369.8" y="17.18"/>
      <point x="443.52000000000004" y="99.91999999999999"/>
      <point x="443.52000000000004" y="204.91999999999996" type="curve" smooth="yes"/>
      <point x="443.52000000000004" y="390.82"/>
      <point x="228.31999999999996" y="409.34000000000003"/>
      <point x="228.31999999999996" y="501.12" type="curve" smooth="yes"/>
      <point x="228.31999999999996" y="546.6800000000001"/>
      <point x="267.24" y="579.66"/>
      <point x="323.09999999999997" y="579.66" type="curve" smooth="yes"/>
      <point x="362.2" y="579.66"/>
      <point x="404.22" y="573.32"/>
      <point x="446.24" y="555.88" type="curve"/>
    </contour>
  </outline>
</glyph>
<glyph name="ampersand" format="2">
  <advance width="575.6"/>
  <unicode hex="0026"/>
  <outline>
    <contour>
      <point x="236.08" y="-10.0" type="curve" smooth="yes"/>
      <point x="405.96" y="-10.0"/>
      <point x="519.92" y="140.39999999999998"/>
      <point x="493.0" y="297.92" type="curve"/>
      <point x="385.40000000000003" y="289.92" type="line"/>
      <point x="421.68" y="197.07999999999998"/>
      <point x="339.36000000000007" y="109.23999999999998"/>
      <point x="256.0" y="109.23999999999998" type="curve" smooth="yes"/>
      <point x="182.59999999999997" y="109.23999999999998"/>
      <point x="145.28" y="148.52"/>
      <point x="145.28" y="208.68" type="curve" smooth="yes"/>
      <point x="145.28" y="293.48"/>
      <point x="203.04000000000002" y="361.03999999999996"/>
      <point x="282.48" y="361.03999999999996" type="curve" smooth="yes"/>
      <point x="306.52" y="361.03999999999996" type="line"/>
      <point x="327.96000000000004" y="450.12" type="line"/>
      <point x="311.24" y="452.84" type="line" smooth="yes"/>
      <point x="261.79999999999995" y="458.28"/>
      <point x="238.36" y="483.08"/>
      <point x="238.36" y="523.24" type="curve" smooth="yes"/>
      <point x="238.36" y="565.3999999999999"/>
      <point x="270.48" y="595.72"/>
      <point x="312.0" y="595.72" type="curve" smooth="yes"/>
      <point x="340.67999999999995" y="595.72"/>
      <point x="365.76000000000005" y="588.5200000000001"/>
      <point x="393.2" y="568.52" type="curve"/>
      <point x="457.28000000000003" y="666.3599999999999" type="line"/>
      <point x="409.91999999999996" y="695.0799999999999"/>
      <point x="360.99999999999994" y="710.0"/>
      <point x="298.59999999999997" y="710.0" type="curve" smooth="yes"/>
      <point x="180.84" y="710.0"/>
      <point x="107.44" y="630.7599999999999"/>
      <point x="107.44" y="541.4399999999998" type="curve" smooth="yes"/>
      <point x="107.44" y="485.96"/>
      <point x="134.08" y="444.56000000000006"/>
      <point x="185.52" y="415.88000000000005" type="curve"/>
      <point x="84.32000000000001" y="391.40000000000003"/>
      <point x="11.280000000000001" y="311.28000000000003"/>
      <point x="11.280000000000001" y="184.07999999999998" type="curve" smooth="yes"/>
      <point x="11.280000000000001" y="71.84"/>
      <point x="85.76" y="-10.0"/>
    </contour>
    <contour>
      <point x="337.47999999999996" y="222.12" type="line"/>
      <point x="340.67999999999995" y="252.96"/>
      <point x="354.00000000000006" y="270.64"/>
      <point x="380.2" y="270.64" type="curve" smooth="yes"/>
      <point x="418.23999999999995" y="270.64"/>
      <point x="453.67999999999995" y="263.72"/>
      <point x="488.11999999999995" y="263.72" type="curve" smooth="yes"/>
      <point x="554.6800000000001" y="263.72"/>
      <point x="598.32" y="329.84000000000003"/>
      <point x="587.6000000000001" y="402.16" type="curve"/>
      <point x="505.2" y="404.32" type="line"/>
      <point x="502.32" y="357.12"/>
      <point x="480.92" y="347.84"/>
      <point x="439.52000000000004" y="347.84" type="curve" smooth="yes"/>
      <point x="413.80000000000007" y="347.84"/>
      <point x="390.72" y="355.64"/>
      <point x="364.04" y="355.64" type="curve" smooth="yes"/>
      <point x="289.96" y="355.64"/>
      <point x="259.52000000000004" y="299.03999999999996"/>
      <point x="255.35999999999999" y="238.88" type="curve"/>
    </contour>
  </outline>
</glyph>
<glyph name="quotesingle" format="2">
  <advance width="182.82"/>
  <unicode hex="0027"/>
  <outline>
    <contour>
      <point x="57.88000000000001" y="427.0" type="line"/>
      <point x="169.86" y="427.0" type="line"/>
      <point x="221.06" y="700.0" type="line"/>
      <point x="95.76" y="700.0" type="line"/>
    </contour>
  </outline>
</glyph>
<glyph name="parenleft" format="2">
  <advance width="270.32"/>
  <unicode hex="0028"/>
  <outline>
    <contour>
      <point x="24.120000000000005" y="47.800000000000004" type="curve" smooth="yes"/>
      <point x="24.120000000000005" y="-99.64"/>
      <point x="68.52" y="-200.14"/>
      <point x="172.86" y="-220.0" type="curve"/>
      <point x="194.92" y="-104.2" type="line"/>
      <point x="154.74" y="-84.06000000000002"/>
      <point x="133.32" y="-35.62"/>
      <point x="133.32" y="52.78" type="curve" smooth="yes"/>
      <point x="133.32" y="193.96"/>
      <point x="199.2" y="608.1400000000001"/>
      <point x="311.76" y="632.12" type="curve"/>
      <point x="327.9" y="749.7600000000001" type="line"/>
      <point x="105.86" y="727.36"/>
      <point x="24.120000000000005" y="289.46"/>
    </contour>
  </outline>
</glyph>
<glyph name="parenright" format="2">
  <advance width="270.32"/>
  <unicode hex="0029"/>
  <outline>
    <contour>
      <point x="243.29999999999998" y="482.08" type="curve" smooth="yes"/>
      <point x="243.29999999999998" y="630.58"/>
      <point x="199.01999999999998" y="730.14"/>
      <point x="94.62" y="750.0" type="curve"/>
      <point x="73.03999999999999" y="632.66" type="line"/>
      <point x="114.3" y="610.96"/>
      <point x="134.1" y="563.78"/>
      <point x="134.1" y="479.52" type="curve" smooth="yes"/>
      <point x="134.1" y="336.96"/>
      <point x="68.4" y="-78.38000000000001"/>
      <point x="-44.7" y="-102.47999999999999" type="curve"/>
      <point x="-60.6" y="-220.0" type="line"/>
      <point x="158.74" y="-195.46"/>
      <point x="243.29999999999998" y="239.35999999999996"/>
    </contour>
  </outline>
</glyph>
<glyph name="asterisk" format="2">
  <advance width="317.64000000000004"/>
  <unicode hex="002A"/>
  <outline>
    <contour>
      <point x="115.96000000000001" y="393.1" type="line"/>
      <point x="189.78" y="473.34" type="line"/>
      <point x="236.87999999999997" y="393.34000000000003" type="line"/>
      <point x="293.48" y="431.21999999999997" type="line"/>
      <point x="260.48" y="523.36" type="line"/>
      <point x="352.52000000000004" y="566.96" type="line"/>
      <point x="343.12" y="629.94" type="line"/>
      <point x="250.3" y="605.34" type="line"/>
      <point x="259.5" y="711.3600000000001" type="line"/>
      <point x="196.48" y="711.3600000000001" type="line"/>
      <point x="171.04000000000002" y="605.58" type="line"/>
      <point x="87.44" y="630.18" type="line"/>
      <point x="57.58" y="567.44" type="line"/>
      <point x="132.96" y="523.84" type="line"/>
      <point x="71.24000000000001" y="431.34000000000003" type="line"/>
    </contour>
  </outline>
</glyph>
<glyph name="plus" format="2">
  <advance width="432.91999999999996"/>
  <unicode hex="002B"/>
  <outline>
    <contour>
      <point x="133.52" y="125.05999999999999" type="line"/>
      <point x="252.14" y="125.05999999999999" type="line"/>
      <point x="272.62" y="254.55999999999997" type="line"/>
      <point x="384.38000000000005" y="254.55999999999997" type="line"/>
      <point x="404.04" y="378.5" type="line"/>
      <point x="292.28000000000003" y="378.5" type="line"/>
      <point x="312.96000000000004" y="508.1" type="line"/>
      <point x="194.62" y="508.1" type="line"/>
      <point x="173.65999999999997" y="378.5" type="line"/>
      <point x="62.08" y="378.5" type="line"/>
      <point x="42.419999999999995" y="254.55999999999997" type="line"/>
      <point x="154.27999999999997" y="254.55999999999997" type="line"/>
    </contour>
  </outline>
</glyph>
<glyph name="comma" format="2">
  <advance width="192.84"/>
  <unicode hex="002C"/>
  <outline>
    <contour>
      <point x="3.2600000000000007" y="87.54" type="line"/>
      <point x="3.04" y="60.5"/>
      <point x="0.36000000000000165" y="35.81999999999999"/>
      <point x="-1.8799999999999981" y="21.039999999999996" type="curve" smooth="yes"/>
      <point x="-8.879999999999999" y="-37.02"/>
      <point x="-43.239999999999995" y="-116.24000000000001"/>
      <point x="-79.96" y="-159.84" type="curve"/>
      <point x="16.19999999999999" y="-187.84" type="line"/>
      <point x="84.99999999999999" y="-117.12"/>
      <point x="129.1" y="-27.840000000000007"/>
      <point x="129.1" y="56.339999999999996" type="curve" smooth="yes"/>
      <point x="129.1" y="68.26"/>
      <point x="128.22" y="79.32000000000001"/>
      <point x="127.01999999999998" y="90.46" type="curve"/>
    </contour>
  </outline>
</glyph>
<glyph name="hyphen" format="2">
  <advance width="300.96000000000004"/>
  <unicode hex="002D"/>
  <outline>
    <contour>
      <point x="28.099999999999998" y="237.01999999999998" type="line"/>
      <point x="260.03999999999996" y="237.01999999999998" type="line"/>
      <point x="282.18" y="369.28" type="line"/>
      <point x="50.24" y="369.28" type="line"/>
    </contour>
  </outline>
</glyph>
<glyph name="period" format="2">
  <advance width="194.66"/>
  <unicode hex="002E"/>
  <outline>
    <contour>
      <point x="-10.34" y="53.26" type="curve" smooth="yes"/>
      <point x="-10.64" y="13.42"/>
      <point x="7.48" y="-5.319999999999999"/>
      <point x="52.71999999999999" y="-5.319999999999999" type="curve" smooth="yes"/>
      <point x="119.38" y="-5.319999999999999"/>
      <point x="142.54000000000002" y="53.22"/>
      <point x="143.44" y="111.08" type="curve" smooth="yes"/>
      <point x="143.74" y="150.04"/>
      <point x="125.13999999999999" y="168.54"/>
      <point x="80.84" y="168.54" type="curve" smooth="yes"/>
      <point x="14.52" y="168.54"/>
      <point x="-9.439999999999998" y="110.41999999999999"/>
    </contour>
  </outline>
</glyph>
<glyph name="slash" format="2">
  <advance width="362.70000000000005"/>
  <unicode hex="002F"/>
  <outline>
    <contour>
      <point x="-77.96000000000001" y="-210.0" type="line"/>
      <point x="35.339999999999996" y="-210.0" type="line"/>
      <point x="437.65999999999997" y="740.0" type="line"/>
      <point x="323.09999999999997" y="740.0" type="line"/>
    </contour>
  </outline>
</glyph>
<glyph name="zero" format="2">
  <advance width="504.59999999999997"/>
  <unicode hex="0030"/>
  <outline>
    <contour>
      <point x="220.0" y="-10.6" type="curve" smooth="yes"/>
      <point x="415.6" y="-10.6"/>
      <point x="498.90000000000003" y="260.3"/>
      <point x="498.90000000000003" y="486.3" type="curve" smooth="yes"/>
      <point x="498.90000000000003" y="636.9999999999999"/>
      <point x="441.6" y="710.3"/>
      <point x="308.2" y="710.3" type="curve" smooth="yes"/>
      <point x="111.9" y="710.3"/>
      <point x="29.0" y="438.5"/>
      <point x="29.0" y="214.29999999999998" type="curve" smooth="yes"/>
      <point x="29.0" y="63.89999999999999"/>
      <point x="86.6" y="-10.6"/>
    </contour>
    <contour>
      <point x="229.6" y="117.5" type="curve" smooth="yes"/>
      <point x="185.2" y="117.5"/>
      <point x="167.9" y="147.2"/>
      <point x="168.20000000000002" y="208.29999999999995" type="curve" smooth="yes"/>
      <point x="168.5" y="328.80000000000007"/>
      <point x="214.89999999999995" y="582.5"/>
      <point x="299.6000000000001" y="582.5" type="curve" smooth="yes"/>
      <point x="343.6" y="582.5"/>
      <point x="360.4" y="553.2"/>
      <point x="360.0999999999999" y="492.7" type="curve" smooth="yes"/>
      <point x="359.80000000000007" y="374.40000000000003"/>
      <point x="312.49999999999994" y="117.5"/>
    </contour>
  </outline>
</glyph>
<glyph name="one" format="2">
  <advance width="504.23999999999995"/>
  <unicode hex="0031"/>
  <outline>
    <contour>
      <point x="39.68" y="0.0" type="line"/>
      <point x="408.65999999999997" y="0.0" type="line"/>
      <point x="428.74" y="123.53999999999999" type="line"/>
      <point x="318.82000000000005" y="123.53999999999999" type="line"/>
      <point x="411.54" y="700.6" type="line"/>
      <point x="343.42" y="700.6" type="line"/>
      <point x="116.44000000000001" y="608.88" type="line"/>
      <point x="124.68" y="472.42" type="line"/>
      <point x="246.29999999999998" y="527.46" type="line"/>
      <point x="181.44000000000003" y="123.53999999999999" type="line"/>
      <point x="59.2" y="123.53999999999999" type="line"/>
    </contour>
  </outline>
</glyph>
<glyph name="two" format="2">
  <advance width="504.59999999999997"/>
  <unicode hex="0032"/>
  <outline>
    <contour>
      <point x="34.4" y="99.39999999999999" type="curve"/>
      <point x="20.0" y="0.0" type="line"/>
      <point x="403.6000000000001" y="0.0" type="line"/>
      <point x="422.90000000000003" y="115.69999999999999" type="line"/>
      <point x="213.19999999999996" y="115.69999999999999" type="line"/>
      <point x="354.79999999999995" y="284.9"/>
      <point x="457.8" y="406.19999999999993"/>
      <point x="457.8" y="550.4999999999999" type="curve" smooth="yes"/>
      <point x="457.8" y="650.3000000000001"/>
      <point x="395.5" y="710.0"/>
      <point x="302.5999999999999" y="710.0" type="curve" smooth="yes"/>
      <point x="231.5" y="710.0"/>
      <point x="159.59999999999997" y="685.8"/>
      <point x="105.10000000000001" y="647.5999999999999" type="curve"/>
      <point x="132.10000000000005" y="520.8" type="line"/>
      <point x="171.60000000000002" y="544.9000000000001"/>
      <point x="210.09999999999997" y="561.1999999999999"/>
      <point x="248.1" y="561.1999999999999" type="curve" smooth="yes"/>
      <point x="288.8" y="561.1999999999999"/>
      <point x="310.0" y="534.5000000000001"/>
      <point x="310.0" y="499.39999999999986" type="curve" smooth="yes"/>
      <point x="310.0" y="398.90000000000003"/>
      <point x="184.9" y="254.49999999999994"/>
    </contour>
  </outline>
</glyph>
<glyph name="three" format="2">
  <advance width="504.6"/>
  <unicode hex="0033"/>
  <outline>
    <contour>
      <point x="-0.8000000000000007" y="40.35" type="line"/>
      <point x="46.19999999999999" y="7.800000000000001"/>
      <point x="102.9" y="-10.0"/>
      <point x="179.05" y="-10.0" type="curve" smooth="yes"/>
      <point x="304.70000000000005" y="-10.0"/>
      <point x="437.25" y="69.1"/>
      <point x="437.25" y="230.75" type="curve" smooth="yes"/>
      <point x="437.25" y="313.65"/>
      <point x="401.25" y="352.45"/>
      <point x="357.99999999999994" y="371.0" type="curve"/>
      <point x="424.25" y="406.65"/>
      <point x="472.34999999999997" y="466.9"/>
      <point x="472.34999999999997" y="558.4499999999999" type="curve" smooth="yes"/>
      <point x="472.34999999999997" y="655.0"/>
      <point x="411.04999999999995" y="710.0"/>
      <point x="293.45" y="710.0" type="curve" smooth="yes"/>
      <point x="223.3" y="710.0"/>
      <point x="153.0" y="692.0500000000001"/>
      <point x="105.4" y="659.45" type="curve"/>
      <point x="126.85000000000001" y="551.25" type="line"/>
      <point x="159.55" y="567.55"/>
      <point x="199.70000000000002" y="577.75"/>
      <point x="243.65" y="577.75" type="curve" smooth="yes"/>
      <point x="296.95" y="577.75"/>
      <point x="330.5" y="551.5"/>
      <point x="330.5" y="505.45" type="curve" smooth="yes"/>
      <point x="330.5" y="453.1"/>
      <point x="294.70000000000005" y="409.99999999999994"/>
      <point x="229.45000000000002" y="409.99999999999994" type="curve" smooth="yes"/>
      <point x="160.79999999999998" y="409.99999999999994" type="line"/>
      <point x="143.15" y="304.2" type="line"/>
      <point x="224.7" y="304.2" type="line" smooth="yes"/>
      <point x="279.25" y="304.2"/>
      <point x="303.05" y="276.70000000000005"/>
      <point x="303.05" y="232.54999999999998" type="curve" smooth="yes"/>
      <point x="303.05" y="162.79999999999998"/>
      <point x="258.40000000000003" y="118.75"/>
      <point x="182.8" y="118.75" type="curve" smooth="yes"/>
      <point x="134.1" y="118.75"/>
      <point x="92.65" y="129.15"/>
      <point x="57.949999999999996" y="150.35" type="curve"/>
    </contour>
  </outline>
</glyph>
<glyph name="four" format="2">
  <advance width="504.6"/>
  <unicode hex="0034"/>
  <outline>
    <contour>
      <point x="5.500000000000003" y="115.95" type="line"/>
      <point x="233.15" y="115.95" type="line"/>
      <point x="214.9" y="-0.30000000000000016" type="line"/>
      <point x="357.25" y="-0.30000000000000016" type="line"/>
      <point x="375.50000000000006" y="115.95" type="line"/>
      <point x="448.2" y="115.95" type="line"/>
      <point x="465.90000000000003" y="229.7" type="line"/>
      <point x="394.05" y="229.7" type="line"/>
      <point x="469.70000000000005" y="699.5500000000001" type="line"/>
      <point x="331.95" y="701.2" type="line"/>
      <point x="20.999999999999996" y="223.05" type="line"/>
    </contour>
    <contour>
      <point x="125.25000000000001" y="229.7" type="line"/>
      <point x="302.34999999999997" y="509.5999999999999" type="line"/>
      <point x="256.09999999999997" y="229.7" type="line"/>
    </contour>
  </outline>
</glyph>
<glyph name="five" format="2">
  <advance width="504.59999999999997"/>
  <unicode hex="0035"/>
  <outline>
    <contour>
      <point x="5.8" y="36.45" type="line"/>
      <point x="51.0" y="4.8999999999999995"/>
      <point x="104.55000000000001" y="-10.0"/>
      <point x="179.75" y="-10.0" type="curve" smooth="yes"/>
      <point x="369.94999999999993" y="-10.0"/>
      <point x="446.25" y="130.95000000000002"/>
      <point x="446.25" y="266.85" type="curve" smooth="yes"/>
      <point x="446.25" y="370.8"/>
      <point x="395.74999999999994" y="418.1000000000001"/>
      <point x="299.54999999999995" y="420.6" type="curve" smooth="yes"/>
      <point x="229.24999999999997" y="421.5" type="line"/>
      <point x="262.8999999999999" y="569.6499999999999" type="line"/>
      <point x="470.3" y="569.6499999999999" type="line"/>
      <point x="490.45" y="700.0" type="line"/>
      <point x="181.8" y="700.0" type="line"/>
      <point x="84.69999999999999" y="315.25" type="line"/>
      <point x="91.10000000000001" y="303.75" type="line"/>
      <point x="222.49999999999997" y="303.75" type="line" smooth="yes"/>
      <point x="282.29999999999995" y="303.75"/>
      <point x="303.79999999999995" y="281.15000000000003"/>
      <point x="303.79999999999995" y="234.25" type="curve" smooth="yes"/>
      <point x="303.79999999999995" y="185.8"/>
      <point x="273.7" y="119.19999999999999"/>
      <point x="179.54999999999995" y="119.19999999999999" type="curve" smooth="yes"/>
      <point x="125.64999999999998" y="119.19999999999999"/>
      <point x="83.3" y="136.20000000000002"/>
      <point x="53.3" y="153.70000000000002" type="curve"/>
    </contour>
  </outline>
</glyph>
<glyph name="six" format="2">
  <advance width="504.6"/>
  <unicode hex="0036"/>
  <note>
14
</note>
  <outline>
    <contour>
      <point x="232.79999999999998" y="-10.0" type="curve" smooth="yes"/>
      <point x="373.19999999999993" y="-10.0"/>
      <point x="467.29999999999995" y="104.29999999999998"/>
      <point x="467.29999999999995" y="285.4" type="curve" smooth="yes"/>
      <point x="467.29999999999995" y="393.49999999999994"/>
      <point x="408.40000000000003" y="446.00000000000006"/>
      <point x="320.3" y="446.00000000000006" type="curve" smooth="yes"/>
      <point x="266.2" y="446.00000000000006"/>
      <point x="216.49999999999997" y="428.8"/>
      <point x="174.60000000000002" y="384.79999999999995" type="curve"/>
      <point x="165.20000000000002" y="272.7" type="line"/>
      <point x="191.4" y="310.4"/>
      <point x="228.2" y="333.59999999999997"/>
      <point x="265.8" y="333.59999999999997" type="curve" smooth="yes"/>
      <point x="315.20000000000005" y="333.59999999999997"/>
      <point x="334.2" y="307.40000000000003"/>
      <point x="334.2" y="256.59999999999997" type="curve" smooth="yes"/>
      <point x="334.2" y="180.89999999999998"/>
      <point x="294.6" y="110.8"/>
      <point x="242.9" y="110.8" type="curve" smooth="yes"/>
      <point x="194.39999999999998" y="110.8"/>
      <point x="169.0" y="140.89999999999998"/>
      <point x="169.0" y="201.3" type="curve" smooth="yes"/>
      <point x="169.0" y="291.9"/>
      <point x="189.3" y="383.00000000000006"/>
      <point x="228.5" y="472.1" type="curve" smooth="yes"/>
      <point x="259.7" y="542.5000000000001"/>
      <point x="305.19999999999993" y="582.9000000000001"/>
      <point x="375.7" y="582.9000000000001" type="curve" smooth="yes"/>
      <point x="409.79999999999995" y="582.9000000000001"/>
      <point x="440.29999999999995" y="572.6999999999999"/>
      <point x="468.09999999999997" y="558.4" type="curve"/>
      <point x="520.0" y="672.4" type="line"/>
      <point x="492.0" y="690.9000000000001"/>
      <point x="435.8" y="710.0"/>
      <point x="369.59999999999997" y="710.0" type="curve" smooth="yes"/>
      <point x="153.29999999999998" y="710.0"/>
      <point x="36.5" y="485.1"/>
      <point x="36.5" y="210.6" type="curve" smooth="yes"/>
      <point x="36.5" y="58.099999999999994"/>
      <point x="107.1" y="-10.0"/>
    </contour>
  </outline>
</glyph>
<glyph name="seven" format="2">
  <advance width="504.23999999999995"/>
  <unicode hex="0037"/>
  <note>
9
</note>
  <outline>
    <contour>
      <point x="87.52" y="0.0" type="curve"/>
      <point x="232.48000000000002" y="0.0" type="line"/>
      <point x="254.04" y="120.92"/>
      <point x="288.47999999999996" y="210.0"/>
      <point x="380.64" y="379.04" type="curve" smooth="yes"/>
      <point x="500.9600000000001" y="598.8" type="line"/>
      <point x="517.0399999999998" y="700.0" type="line"/>
      <point x="117.16" y="700.0" type="line"/>
      <point x="96.44" y="569.6" type="line"/>
      <point x="344.48" y="569.6" type="line"/>
      <point x="237.20000000000002" y="388.12" type="line" smooth="yes"/>
      <point x="151.31999999999996" y="243.07999999999998"/>
      <point x="109.6" y="136.20000000000002"/>
    </contour>
  </outline>
</glyph>
<glyph name="eight" format="2">
  <advance width="517.0"/>
  <unicode hex="0038"/>
  <outline>
    <contour>
      <point x="233.7" y="-10.0" type="curve" smooth="yes"/>
      <point x="373.7" y="-10.0"/>
      <point x="470.4" y="56.70000000000002"/>
      <point x="470.4" y="206.70000000000002" type="curve" smooth="yes"/>
      <point x="470.4" y="414.0"/>
      <point x="212.0" y="392.0"/>
      <point x="212.0" y="526.1999999999999" type="curve" smooth="yes"/>
      <point x="212.0" y="568.4999999999999"/>
      <point x="250.5" y="592.2"/>
      <point x="305.7" y="592.2" type="curve" smooth="yes"/>
      <point x="361.2" y="592.2"/>
      <point x="385.7" y="565.0"/>
      <point x="385.7" y="523.3000000000001" type="curve" smooth="yes"/>
      <point x="385.7" y="466.7"/>
      <point x="346.8" y="434.90000000000003"/>
      <point x="305.40000000000003" y="408.4" type="curve"/>
      <point x="369.29999999999995" y="353.7" type="line"/>
      <point x="442.5" y="396.4"/>
      <point x="504.9" y="457.8"/>
      <point x="504.9" y="553.9999999999999" type="curve" smooth="yes"/>
      <point x="504.9" y="638.6"/>
      <point x="451.3" y="710.0"/>
      <point x="311.8" y="710.0" type="curve" smooth="yes"/>
      <point x="170.90000000000003" y="710.0"/>
      <point x="87.2" y="635.4999999999999"/>
      <point x="87.2" y="515.0" type="curve" smooth="yes"/>
      <point x="87.2" y="300.40000000000003"/>
      <point x="342.6" y="334.8"/>
      <point x="342.6" y="190.7" type="curve" smooth="yes"/>
      <point x="342.6" y="128.0"/>
      <point x="300.5" y="102.60000000000001"/>
      <point x="241.29999999999998" y="102.60000000000001" type="curve" smooth="yes"/>
      <point x="177.1" y="102.60000000000001"/>
      <point x="143.89999999999998" y="133.9"/>
      <point x="143.89999999999998" y="180.6" type="curve" smooth="yes"/>
      <point x="143.89999999999998" y="250.2"/>
      <point x="189.2" y="288.6"/>
      <point x="240.7" y="308.50000000000006" type="curve"/>
      <point x="173.4" y="372.3" type="line"/>
      <point x="81.39999999999999" y="344.9"/>
      <point x="15.5" y="259.40000000000003"/>
      <point x="15.5" y="163.5" type="curve" smooth="yes"/>
      <point x="15.5" y="63.99999999999999"/>
      <point x="78.4" y="-10.0"/>
    </contour>
  </outline>
</glyph>
<glyph name="nine" format="2">
  <advance width="504.6"/>
  <unicode hex="0039"/>
  <outline>
    <contour>
      <point x="297.59999999999997" y="710.0" type="curve" smooth="yes"/>
      <point x="157.99999999999997" y="710.0"/>
      <point x="62.8" y="596.1"/>
      <point x="62.8" y="417.6" type="curve" smooth="yes"/>
      <point x="62.8" y="305.90000000000003"/>
      <point x="122.8" y="254.29999999999998"/>
      <point x="210.59999999999997" y="254.29999999999998" type="curve" smooth="yes"/>
      <point x="265.0" y="254.29999999999998"/>
      <point x="313.90000000000003" y="270.3"/>
      <point x="355.5" y="318.20000000000005" type="curve"/>
      <point x="364.9" y="427.6" type="line"/>
      <point x="339.0" y="389.9"/>
      <point x="301.90000000000003" y="366.7"/>
      <point x="264.29999999999995" y="366.7" type="curve" smooth="yes"/>
      <point x="215.2" y="366.7"/>
      <point x="196.19999999999996" y="392.59999999999997"/>
      <point x="196.19999999999996" y="443.40000000000003" type="curve" smooth="yes"/>
      <point x="196.19999999999996" y="519.4"/>
      <point x="235.79999999999998" y="589.2"/>
      <point x="287.0" y="589.2" type="curve" smooth="yes"/>
      <point x="334.79999999999995" y="589.2"/>
      <point x="360.90000000000003" y="558.9"/>
      <point x="360.90000000000003" y="499.3999999999999" type="curve" smooth="yes"/>
      <point x="360.90000000000003" y="414.9"/>
      <point x="342.8" y="316.0"/>
      <point x="303.30000000000007" y="226.60000000000002" type="curve" smooth="yes"/>
      <point x="272.59999999999997" y="156.0"/>
      <point x="229.6" y="115.59999999999998"/>
      <point x="157.7" y="115.59999999999998" type="curve" smooth="yes"/>
      <point x="123.89999999999999" y="115.59999999999998"/>
      <point x="90.1" y="127.3"/>
      <point x="61.99999999999999" y="143.4" type="curve"/>
      <point x="10.099999999999998" y="29.100000000000005" type="line"/>
      <point x="38.9" y="9.1"/>
      <point x="97.1" y="-10.0"/>
      <point x="164.89999999999998" y="-10.0" type="curve" smooth="yes"/>
      <point x="377.4" y="-10.0"/>
      <point x="493.4" y="214.89999999999998"/>
      <point x="493.4" y="489.7000000000001" type="curve" smooth="yes"/>
      <point x="493.4" y="642.2"/>
      <point x="422.99999999999994" y="710.0"/>
    </contour>
  </outline>
</glyph>
<glyph name="less" format="2">
  <advance width="430.41999999999996"/>
  <unicode hex="003C"/>
  <outline>
    <contour>
      <point x="367.36" y="88.92" type="line"/>
      <point x="385.34" y="204.8" type="line"/>
      <point x="158.5" y="305.94" type="line"/>
      <point x="418.06" y="407.73999999999995" type="line"/>
      <point x="436.04" y="523.88" type="line"/>
      <point x="48.559999999999995" y="370.38" type="line"/>
      <point x="28.520000000000003" y="244.14000000000001" type="line"/>
    </contour>
  </outline>
</glyph>
<glyph name="equal" format="2">
  <advance width="409.78"/>
  <unicode hex="003D"/>
  <outline>
    <contour>
      <point x="360.6" y="257.76" type="line"/>
      <point x="44.39999999999999" y="257.76" type="line"/>
      <point x="25.860000000000003" y="133.58" type="line"/>
      <point x="342.06000000000006" y="133.58" type="line"/>
    </contour>
    <contour>
      <point x="393.3" y="479.90000000000003" type="line"/>
      <point x="77.52" y="479.90000000000003" type="line"/>
      <point x="58.56" y="355.72" type="line"/>
      <point x="374.76" y="355.72" type="line"/>
    </contour>
  </outline>
</glyph>
<glyph name="greater" format="2">
  <advance width="430.41999999999996"/>
  <unicode hex="003E"/>
  <outline>
    <contour>
      <point x="391.8" y="243.42" type="line"/>
      <point x="411.56" y="367.56" type="line"/>
      <point x="73.32000000000001" y="522.0" type="line"/>
      <point x="55.06" y="407.79999999999995" type="line"/>
      <point x="282.84" y="306.18" type="line"/>
      <point x="22.86" y="205.1" type="line"/>
      <point x="4.500000000000001" y="88.44000000000001" type="line"/>
    </contour>
  </outline>
</glyph>
<glyph name="question" format="2">
  <advance width="386.69999999999993"/>
  <unicode hex="003F"/>
  <outline>
    <contour>
      <point x="111.70000000000002" y="260.62" type="line"/>
      <point x="229.08" y="260.62" type="line"/>
      <point x="240.73999999999998" y="330.04" type="line"/>
      <point x="343.12" y="385.4800000000001"/>
      <point x="418.42" y="465.58"/>
      <point x="418.42" y="587.9199999999998" type="curve" smooth="yes"/>
      <point x="418.42" y="694.5000000000001"/>
      <point x="352.64" y="750.0"/>
      <point x="255.3" y="750.0" type="curve" smooth="yes"/>
      <point x="192.86" y="750.0"/>
      <point x="123.6" y="728.38"/>
      <point x="74.36" y="690.3000000000001" type="curve"/>
      <point x="100.60000000000001" y="567.72" type="line"/>
      <point x="138.86" y="593.6800000000001"/>
      <point x="172.76000000000002" y="608.22"/>
      <point x="207.78" y="608.22" type="curve" smooth="yes"/>
      <point x="243.34000000000003" y="608.22"/>
      <point x="268.1" y="592.64"/>
      <point x="268.1" y="550.4399999999999" type="curve" smooth="yes"/>
      <point x="268.1" y="482.35999999999996"/>
      <point x="222.46" y="438.72"/>
      <point x="130.64000000000001" y="395.62" type="curve"/>
    </contour>
    <contour>
      <point x="65.74000000000001" y="50.58" type="curve" smooth="yes"/>
      <point x="65.80000000000001" y="11.440000000000001"/>
      <point x="83.61999999999999" y="-7.0"/>
      <point x="127.68" y="-7.0" type="curve" smooth="yes"/>
      <point x="194.52" y="-7.0"/>
      <point x="219.44" y="49.3"/>
      <point x="219.26" y="107.54" type="curve" smooth="yes"/>
      <point x="219.2" y="147.79999999999998"/>
      <point x="201.16" y="166.55999999999997"/>
      <point x="157.78" y="166.55999999999997" type="curve" smooth="yes"/>
      <point x="90.46000000000001" y="166.55999999999997"/>
      <point x="65.56" y="109.03999999999999"/>
    </contour>
  </outline>
</glyph>
<glyph name="at" format="2">
  <advance width="762.6999999999999"/>
  <unicode hex="0040"/>
  <outline>
    <contour>
      <point x="325.09999999999997" y="-122.8" type="curve" smooth="yes"/>
      <point x="379.09999999999997" y="-122.8"/>
      <point x="456.8" y="-104.5"/>
      <point x="505.99999999999994" y="-75.0" type="curve"/>
      <point x="490.9" y="-22.8" type="line"/>
      <point x="438.1" y="-47.4"/>
      <point x="381.20000000000005" y="-61.000000000000014"/>
      <point x="327.20000000000005" y="-61.000000000000014" type="curve" smooth="yes"/>
      <point x="189.6" y="-61.000000000000014"/>
      <point x="90.5" y="14.0"/>
      <point x="90.5" y="194.0" type="curve" smooth="yes"/>
      <point x="90.5" y="411.59999999999997"/>
      <point x="223.4" y="654.4"/>
      <point x="447.1" y="654.4" type="curve" smooth="yes"/>
      <point x="602.7" y="654.4"/>
      <point x="684.4" y="573.5999999999999"/>
      <point x="684.4" y="410.9" type="curve" smooth="yes"/>
      <point x="684.4" y="306.4"/>
      <point x="651.1" y="137.70000000000002"/>
      <point x="569.0" y="137.70000000000002" type="curve" smooth="yes"/>
      <point x="521.7" y="137.70000000000002"/>
      <point x="519.3" y="181.8"/>
      <point x="532.4000000000001" y="235.4" type="curve" smooth="yes"/>
      <point x="602.2" y="520.1" type="line"/>
      <point x="552.9" y="543.1"/>
      <point x="501.79999999999995" y="556.6999999999999"/>
      <point x="443.0" y="556.6999999999999" type="curve" smooth="yes"/>
      <point x="269.7" y="556.6999999999999"/>
      <point x="180.0" y="334.40000000000003"/>
      <point x="180.0" y="180.5" type="curve" smooth="yes"/>
      <point x="180.0" y="96.3"/>
      <point x="220.0" y="54.1"/>
      <point x="286.59999999999997" y="54.1" type="curve" smooth="yes"/>
      <point x="342.20000000000005" y="54.1"/>
      <point x="391.3" y="90.6"/>
      <point x="429.0" y="139.6" type="curve"/>
      <point x="442.8" y="83.7"/>
      <point x="476.29999999999995" y="50.5"/>
      <point x="542.1999999999999" y="50.5" type="curve" smooth="yes"/>
      <point x="682.8" y="50.5"/>
      <point x="749.9" y="250.80000000000004"/>
      <point x="749.9" y="421.70000000000005" type="curve" smooth="yes"/>
      <point x="749.9" y="610.6999999999999"/>
      <point x="629.3" y="715.6"/>
      <point x="460.09999999999997" y="715.6" type="curve" smooth="yes"/>
      <point x="183.09999999999997" y="715.6"/>
      <point x="23.8" y="453.59999999999997"/>
      <point x="23.8" y="179.4" type="curve" smooth="yes"/>
      <point x="23.8" y="-11.600000000000005"/>
      <point x="135.0" y="-122.8"/>
    </contour>
    <contour>
      <point x="348.5" y="173.8" type="curve" smooth="yes"/>
      <point x="322.3" y="173.8"/>
      <point x="308.09999999999997" y="189.70000000000002"/>
      <point x="308.09999999999997" y="218.29999999999998" type="curve" smooth="yes"/>
      <point x="308.09999999999997" y="290.5"/>
      <point x="371.4" y="459.79999999999995"/>
      <point x="431.49999999999994" y="459.79999999999995" type="curve" smooth="yes"/>
      <point x="447.5" y="459.79999999999995"/>
      <point x="459.49999999999994" y="457.00000000000006"/>
      <point x="474.0" y="450.9" type="curve"/>
      <point x="419.7" y="228.8" type="line" smooth="yes"/>
      <point x="404.4" y="196.10000000000002"/>
      <point x="374.59999999999997" y="173.8"/>
    </contour>
  </outline>
</glyph>
<glyph name="A" format="2">
  <advance width="498.17"/>
  <unicode hex="0041"/>
  <anchor x="204.99" y="0.0" name="bottom"/>
  <anchor x="446.98999999999995" y="0.0" name="ogonek"/>
  <anchor x="311.88" y="700.0" name="top"/>
  <outline>
    <contour>
      <point x="-36.82000000000001" y="0.0" type="line"/>
      <point x="110.56999999999998" y="0.0" type="line"/>
      <point x="156.60000000000002" y="133.97" type="line"/>
      <point x="295.19000000000005" y="133.97" type="line"/>
      <point x="299.09999999999997" y="0.0" type="line"/>
      <point x="446.98999999999995" y="0.0" type="line"/>
      <point x="409.76" y="704.4" type="line"/>
      <point x="215.9" y="704.4" type="line"/>
    </contour>
    <contour>
      <point x="194.28000000000003" y="256.02" type="line"/>
      <point x="295.94" y="588.42" type="line"/>
      <point x="297.43" y="256.02" type="line"/>
    </contour>
  </outline>
</glyph>
<glyph name="B" format="2">
  <advance width="485.19999999999993"/>
  <unicode hex="0042"/>
  <outline>
    <contour>
      <point x="-1.3599999999999959" y="2.3599999999999994" type="line"/>
      <point x="82.08000000000001" y="-6.5600000000000005"/>
      <point x="124.96000000000001" y="-10.0"/>
      <point x="197.04" y="-10.0" type="curve" smooth="yes"/>
      <point x="363.16" y="-10.0"/>
      <point x="462.08000000000004" y="100.39999999999999"/>
      <point x="462.08000000000004" y="248.52" type="curve" smooth="yes"/>
      <point x="462.08000000000004" y="314.12"/>
      <point x="434.12" y="361.8"/>
      <point x="387.20000000000005" y="379.67999999999995" type="curve"/>
      <point x="452.52000000000004" y="415.56"/>
      <point x="490.28000000000003" y="489.59999999999997"/>
      <point x="490.28000000000003" y="568.1200000000001" type="curve" smooth="yes"/>
      <point x="490.28000000000003" y="657.1600000000001"/>
      <point x="434.24" y="710.0"/>
      <point x="301.0" y="710.0" type="curve" smooth="yes"/>
      <point x="261.40000000000003" y="710.0"/>
      <point x="198.08" y="707.04"/>
      <point x="108.56" y="697.1600000000001" type="curve"/>
    </contour>
    <contour>
      <point x="201.16" y="408.24" type="line"/>
      <point x="228.76" y="585.28" type="line"/>
      <point x="252.2" y="587.9599999999999"/>
      <point x="266.48" y="590.0"/>
      <point x="288.04" y="590.0" type="curve" smooth="yes"/>
      <point x="335.68" y="590.0"/>
      <point x="355.44000000000005" y="574.0"/>
      <point x="355.44000000000005" y="529.04" type="curve" smooth="yes"/>
      <point x="355.44000000000005" y="459.64"/>
      <point x="315.68" y="408.24"/>
      <point x="272.6" y="408.24" type="curve" smooth="yes"/>
    </contour>
    <contour>
      <point x="183.11999999999998" y="296.15999999999997" type="line"/>
      <point x="259.84" y="296.15999999999997" type="line" smooth="yes"/>
      <point x="298.04" y="296.15999999999997"/>
      <point x="322.40000000000003" y="276.4"/>
      <point x="322.40000000000003" y="233.96" type="curve" smooth="yes"/>
      <point x="322.40000000000003" y="156.51999999999998"/>
      <point x="282.24" y="109.16"/>
      <point x="211.68000000000004" y="109.16" type="curve" smooth="yes"/>
      <point x="194.80000000000004" y="109.16"/>
      <point x="175.6" y="110.16"/>
      <point x="153.92" y="112.96000000000001" type="curve"/>
    </contour>
  </outline>
</glyph>
<glyph name="C" format="2">
  <advance width="444.5"/>
  <unicode hex="0043"/>
  <anchor x="230.45000000000005" y="0.0" name="bottom"/>
  <anchor x="338.85" y="700.0" name="top"/>
  <outline>
    <contour>
      <point x="261.29999999999995" y="-10.0" type="curve" smooth="yes"/>
      <point x="310.25" y="-10.0"/>
      <point x="351.75" y="-4.699999999999999"/>
      <point x="393.24999999999994" y="8.1" type="curve"/>
      <point x="386.29999999999995" y="127.39999999999999" type="line"/>
      <point x="356.05" y="120.5"/>
      <point x="323.55" y="115.15"/>
      <point x="290.94999999999993" y="115.15" type="curve" smooth="yes"/>
      <point x="211.79999999999998" y="115.15"/>
      <point x="169.49999999999997" y="145.99999999999997"/>
      <point x="169.49999999999997" y="243.8" type="curve" smooth="yes"/>
      <point x="169.49999999999997" y="431.25"/>
      <point x="234.90000000000003" y="584.85"/>
      <point x="346.29999999999995" y="584.85" type="curve" smooth="yes"/>
      <point x="382.05" y="584.85"/>
      <point x="416.15" y="578.2500000000001"/>
      <point x="448.85" y="567.4499999999999" type="curve"/>
      <point x="488.09999999999997" y="681.65" type="line"/>
      <point x="443.94999999999993" y="701.6999999999999"/>
      <point x="391.6" y="710.0"/>
      <point x="337.90000000000003" y="710.0" type="curve" smooth="yes"/>
      <point x="146.5" y="710.0"/>
      <point x="27.200000000000003" y="515.2"/>
      <point x="27.200000000000003" y="221.95000000000002" type="curve" smooth="yes"/>
      <point x="27.200000000000003" y="62.55000000000001"/>
      <point x="108.70000000000002" y="-10.0"/>
    </contour>
  </outline>
</glyph>
<glyph name="D" format="2">
  <advance width="516.15"/>
  <unicode hex="0044"/>
  <anchor x="205.35000000000002" y="0.0" name="bottom"/>
  <anchor x="267.45765" y="350.0" name="center"/>
  <anchor x="294.55" y="700.0" name="top"/>
  <outline>
    <contour>
      <point x="187.95" y="-10.0" type="curve" smooth="yes"/>
      <point x="396.69999999999993" y="-10.0"/>
      <point x="509.15000000000003" y="175.70000000000002"/>
      <point x="509.15000000000003" y="452.45" type="curve" smooth="yes"/>
      <point x="509.15000000000003" y="630.1499999999999"/>
      <point x="428.6" y="710.0"/>
      <point x="273.0" y="710.0" type="curve" smooth="yes"/>
      <point x="220.7" y="710.0"/>
      <point x="170.95000000000002" y="707.3000000000001"/>
      <point x="108.55" y="700.4500000000002" type="curve"/>
      <point x="-2.749999999999998" y="1.4499999999999995" type="line"/>
      <point x="55.60000000000001" y="-5.8999999999999995"/>
      <point x="113.05000000000003" y="-10.0"/>
    </contour>
    <contour>
      <point x="205.15" y="106.3" type="curve" smooth="yes"/>
      <point x="183.25" y="106.3"/>
      <point x="171.04999999999995" y="107.79999999999997"/>
      <point x="152.75" y="109.24999999999999" type="curve"/>
      <point x="228.6" y="585.3499999999999" type="line"/>
      <point x="241.94999999999996" y="586.65"/>
      <point x="258.85" y="587.8000000000001"/>
      <point x="278.05" y="587.8000000000001" type="curve" smooth="yes"/>
      <point x="335.45" y="587.8000000000001"/>
      <point x="369.40000000000003" y="547.1"/>
      <point x="369.40000000000003" y="450.95" type="curve" smooth="yes"/>
      <point x="369.40000000000003" y="269.65000000000003"/>
      <point x="299.75" y="106.3"/>
    </contour>
  </outline>
</glyph>
<glyph name="E" format="2">
  <advance width="431.91"/>
  <unicode hex="0045"/>
  <anchor x="184.96000000000004" y="0.0" name="bottom"/>
  <anchor x="370.18" y="0.0" name="ogonek"/>
  <anchor x="290.06" y="700.0" name="top"/>
  <anchor x="88.37215" y="700.0" name="topleft"/>
  <outline>
    <contour>
      <point x="-2.679999999999999" y="0.0" type="line"/>
      <point x="370.18" y="0.0" type="line"/>
      <point x="390.20000000000005" y="124.41" type="line"/>
      <point x="154.4" y="124.41" type="line"/>
      <point x="180.83" y="294.56" type="line"/>
      <point x="382.35" y="294.56" type="line"/>
      <point x="402.34999999999997" y="412.27" type="line"/>
      <point x="200.06" y="412.27" type="line"/>
      <point x="225.74" y="573.2400000000001" type="line"/>
      <point x="448.62" y="573.2400000000001" type="line"/>
      <point x="469.72999999999996" y="700.0" type="line"/>
      <point x="108.02000000000001" y="700.0" type="line"/>
    </contour>
  </outline>
</glyph>
<glyph name="F" format="2">
  <advance width="413.72"/>
  <unicode hex="0046"/>
  <outline>
    <contour>
      <point x="-2.999999999999998" y="0.0" type="line"/>
      <point x="135.12" y="0.0" type="line"/>
      <point x="175.07999999999998" y="248.36000000000004" type="line"/>
      <point x="361.32000000000005" y="248.36000000000004" type="line"/>
      <point x="381.68" y="376.0" type="line"/>
      <point x="195.00000000000003" y="376.0" type="line"/>
      <point x="225.92" y="571.5600000000001" type="line"/>
      <point x="446.0" y="571.5600000000001" type="line"/>
      <point x="467.32" y="700.0" type="line"/>
      <point x="108.32000000000001" y="700.0" type="line"/>
    </contour>
  </outline>
</glyph>
<glyph name="G" format="2">
  <advance width="483.3"/>
  <unicode hex="0047"/>
  <anchor x="243.79999999999998" y="0.0" name="bottom"/>
  <anchor x="342.06" y="700.0" name="top"/>
  <outline>
    <contour>
      <point x="248.36" y="-10.0" type="curve" smooth="yes"/>
      <point x="313.32" y="-10.0"/>
      <point x="374.64" y="2.9599999999999995"/>
      <point x="415.16" y="27.319999999999997" type="curve"/>
      <point x="473.41999999999996" y="392.21999999999997" type="line"/>
      <point x="272.04" y="392.21999999999997" type="line"/>
      <point x="254.61999999999998" y="281.8" type="line"/>
      <point x="333.53999999999996" y="281.8" type="line"/>
      <point x="307.02" y="115.69999999999999" type="line"/>
      <point x="295.7" y="110.66"/>
      <point x="275.62000000000006" y="107.27999999999999"/>
      <point x="254.36" y="107.27999999999999" type="curve" smooth="yes"/>
      <point x="195.20000000000002" y="107.27999999999999"/>
      <point x="161.98000000000002" y="138.18"/>
      <point x="161.98000000000002" y="230.04" type="curve" smooth="yes"/>
      <point x="161.98000000000002" y="416.43999999999994"/>
      <point x="228.92" y="585.3"/>
      <point x="345.82" y="585.3" type="curve" smooth="yes"/>
      <point x="390.9" y="585.3"/>
      <point x="426.73999999999995" y="575.26"/>
      <point x="460.44000000000005" y="565.4" type="curve"/>
      <point x="502.66" y="682.74" type="line"/>
      <point x="454.26" y="701.9"/>
      <point x="399.86" y="710.0"/>
      <point x="341.88" y="710.0" type="curve" smooth="yes"/>
      <point x="121.03999999999999" y="710.0"/>
      <point x="25.52" y="460.18"/>
      <point x="25.52" y="221.10000000000002" type="curve" smooth="yes"/>
      <point x="25.52" y="67.10000000000001"/>
      <point x="108.82000000000001" y="-10.0"/>
    </contour>
  </outline>
</glyph>
<glyph name="H" format="2">
  <advance width="515.78"/>
  <unicode hex="0048"/>
  <anchor x="214.37743999999998" y="0.0" name="bottom"/>
  <anchor x="269.94804" y="350.0" name="center"/>
  <anchor x="325.27788" y="700.0" name="top"/>
  <anchor x="86.75788" y="700.0" name="topleft"/>
  <outline>
    <contour>
      <point x="-3.059999999999998" y="0.0" type="line"/>
      <point x="135.6" y="0.0" type="line"/>
      <point x="175.44" y="253.48" type="line"/>
      <point x="333.47999999999996" y="253.48" type="line"/>
      <point x="293.9200000000001" y="0.0" type="line"/>
      <point x="430.52000000000004" y="0.0" type="line"/>
      <point x="542.08" y="700.0" type="line"/>
      <point x="405.06" y="700.0" type="line"/>
      <point x="353.56" y="378.32000000000005" type="line"/>
      <point x="195.28" y="378.32000000000005" type="line"/>
      <point x="246.92" y="700.0" type="line"/>
      <point x="108.26" y="700.0" type="line"/>
    </contour>
  </outline>
</glyph>
<glyph name="I" format="2">
  <advance width="220.61999999999998"/>
  <unicode hex="0049"/>
  <anchor x="66.61528" y="0.0" name="bottom"/>
  <anchor x="137.05567999999997" y="5.6" name="ogonek"/>
  <anchor x="177.53405999999998" y="700.0" name="top"/>
  <anchor x="88.49528000000001" y="700.0" name="topleft"/>
  <outline>
    <contour>
      <point x="-3.059999999999998" y="0.0" type="line"/>
      <point x="135.35999999999999" y="0.0" type="line"/>
      <point x="246.92" y="700.0" type="line"/>
      <point x="108.26" y="700.0" type="line"/>
    </contour>
  </outline>
</glyph>
<glyph name="J" format="2">
  <advance width="372.32"/>
  <unicode hex="004A"/>
  <anchor x="130.40864" y="0.0" name="bottom"/>
  <anchor x="256.88" y="700.0" name="top"/>
  <outline>
    <contour>
      <point x="-34.02" y="20.5" type="line"/>
      <point x="7.399999999999999" y="3.0"/>
      <point x="55.620000000000005" y="-10.0"/>
      <point x="115.96000000000001" y="-10.0" type="curve" smooth="yes"/>
      <point x="233.18" y="-10.0"/>
      <point x="300.08" y="60.58"/>
      <point x="322.02" y="194.46" type="curve" smooth="yes"/>
      <point x="402.78" y="700.0" type="line"/>
      <point x="109.78" y="700.0" type="line"/>
      <point x="89.98" y="577.68" type="line"/>
      <point x="244.56" y="577.68" type="line"/>
      <point x="190.57999999999998" y="239.24" type="line" smooth="yes"/>
      <point x="176.34" y="150.14000000000001"/>
      <point x="145.7" y="125.61999999999999"/>
      <point x="92.53999999999999" y="125.61999999999999" type="curve" smooth="yes"/>
      <point x="65.9" y="125.61999999999999"/>
      <point x="35.17999999999999" y="133.17999999999998"/>
      <point x="4.16" y="142.56000000000003" type="curve"/>
    </contour>
  </outline>
</glyph>
<glyph name="K" format="2">
  <advance width="498.97999999999996"/>
  <unicode hex="004B"/>
  <anchor x="224.29999999999998" y="0.0" name="bottom"/>
  <anchor x="316.78" y="700.0" name="top"/>
  <outline>
    <contour>
      <point x="-3.54" y="0.0" type="line"/>
      <point x="135.56000000000003" y="0.0" type="line"/>
      <point x="246.62" y="700.0" type="line"/>
      <point x="108.6" y="700.0" type="line"/>
    </contour>
    <contour>
      <point x="401.68" y="-9.8" type="curve" smooth="yes"/>
      <point x="416.25999999999993" y="-9.8"/>
      <point x="440.88" y="-4.539999999999999"/>
      <point x="448.65999999999997" y="-0.9600000000000003" type="curve"/>
      <point x="464.29999999999995" y="153.51999999999998" type="line"/>
      <point x="459.56" y="153.74"/>
      <point x="454.84" y="153.06"/>
      <point x="450.0" y="153.06" type="curve" smooth="yes"/>
      <point x="423.03999999999996" y="153.06"/>
      <point x="394.46" y="166.07999999999996"/>
      <point x="358.8" y="219.28" type="curve" smooth="yes"/>
      <point x="187.66" y="474.41999999999996" type="line"/>
      <point x="158.26000000000002" y="286.21999999999997" type="line"/>
      <point x="292.53999999999996" y="68.84" type="line" smooth="yes"/>
      <point x="325.92" y="13.080000000000002"/>
      <point x="356.24" y="-9.8"/>
    </contour>
    <contour>
      <point x="278.53999999999996" y="281.28" type="line"/>
      <point x="387.25999999999993" y="374.84000000000003"/>
      <point x="491.41999999999996" y="505.02"/>
      <point x="543.12" y="657.1199999999999" type="curve"/>
      <point x="432.28000000000003" y="705.72" type="line"/>
      <point x="372.96000000000004" y="566.54"/>
      <point x="289.47999999999996" y="448.81999999999994"/>
      <point x="215.48" y="384.48" type="curve"/>
    </contour>
  </outline>
</glyph>
<glyph name="L" format="2">
  <advance width="401.26"/>
  <unicode hex="004C"/>
  <anchor x="177.86" y="0.0" name="bottom"/>
  <anchor x="209.80804" y="350.0" name="center"/>
  <anchor x="177.32" y="700.0" name="top"/>
  <anchor x="322.34000000000003" y="700.0" name="topright"/>
  <outline>
    <contour>
      <point x="-3.299999999999999" y="0.0" type="line"/>
      <point x="344.16" y="0.0" type="line"/>
      <point x="364.66" y="125.67999999999999" type="line"/>
      <point x="155.34" y="125.67999999999999" type="line"/>
      <point x="246.68" y="700.0" type="line"/>
      <point x="108.26" y="700.0" type="line"/>
    </contour>
  </outline>
</glyph>
<glyph name="M" format="2">
  <advance width="594.44"/>
  <unicode hex="004D"/>
  <outline>
    <contour>
      <point x="-3.3599999999999985" y="0.0" type="line"/>
      <point x="123.65999999999998" y="0.0" type="line"/>
      <point x="195.29999999999998" y="463.66" type="line"/>
      <point x="246.26" y="169.26000000000002" type="line"/>
      <point x="310.4" y="169.26000000000002" type="line"/>
      <point x="456.88" y="462.28" type="line"/>
      <point x="382.38" y="0.0" type="line"/>
      <point x="509.18" y="0.0" type="line"/>
      <point x="620.74" y="700.0" type="line"/>
      <point x="469.81999999999994" y="700.0" type="line"/>
      <point x="308.40000000000003" y="374.28000000000003" type="line"/>
      <point x="248.66" y="700.0" type="line"/>
      <point x="108.26" y="700.0" type="line"/>
    </contour>
  </outline>
</glyph>
<glyph name="N" format="2">
  <advance width="514.3000000000001"/>
  <unicode hex="004E"/>
  <anchor x="218.4" y="0.0" name="bottom"/>
  <anchor x="324.9" y="700.0" name="top"/>
  <outline>
    <contour>
      <point x="-2.999999999999999" y="0.0" type="line"/>
      <point x="120.8" y="0.0" type="line"/>
      <point x="187.55" y="415.90000000000003" type="line"/>
      <point x="295.5" y="-0.6000000000000001" type="line"/>
      <point x="428.9" y="-0.6000000000000001" type="line"/>
      <point x="540.6" y="700.0" type="line"/>
      <point x="416.6" y="700.0" type="line"/>
      <point x="346.15" y="264.40000000000003" type="line"/>
      <point x="242.55" y="700.6" type="line"/>
      <point x="108.55" y="700.6" type="line"/>
    </contour>
  </outline>
</glyph>
<glyph name="O" format="2">
  <advance width="524.1999999999998"/>
  <unicode hex="004F"/>
  <note>
8
</note>
  <anchor x="219.2" y="0.0" name="bottom"/>
  <anchor x="274.5" y="350.0" name="center"/>
  <anchor x="293.09999999999997" y="1.6999999999999997" name="ogonek"/>
  <anchor x="327.90000000000003" y="700.0" name="top"/>
  <anchor x="88.2" y="700.0" name="topleft"/>
  <anchor x="441.0" y="695.4" name="topright"/>
  <outline>
    <contour>
      <point x="231.7" y="-8.3" type="curve" smooth="yes"/>
      <point x="433.29999999999995" y="-8.3"/>
      <point x="517.8" y="247.5"/>
      <point x="520.0" y="470.20000000000005" type="curve" smooth="yes"/>
      <point x="521.5999999999999" y="630.2"/>
      <point x="453.29999999999995" y="708.3000000000001"/>
      <point x="316.5" y="708.3000000000001" type="curve" smooth="yes"/>
      <point x="114.9" y="708.3000000000001"/>
      <point x="30.400000000000002" y="452.49999999999994"/>
      <point x="28.200000000000003" y="229.8" type="curve" smooth="yes"/>
      <point x="26.6" y="69.79999999999998"/>
      <point x="94.9" y="-8.3"/>
    </contour>
    <contour>
      <point x="242.0" y="119.9" type="curve" smooth="yes"/>
      <point x="195.6" y="119.9"/>
      <point x="168.70000000000002" y="143.7"/>
      <point x="168.70000000000002" y="222.7" type="curve" smooth="yes"/>
      <point x="168.70000000000002" y="344.8"/>
      <point x="217.79999999999998" y="580.1"/>
      <point x="306.50000000000006" y="580.1" type="curve" smooth="yes"/>
      <point x="352.59999999999997" y="580.1"/>
      <point x="379.5" y="556.1"/>
      <point x="379.5" y="477.1" type="curve" smooth="yes"/>
      <point x="379.5" y="355.0"/>
      <point x="330.4" y="119.9"/>
    </contour>
  </outline>
</glyph>
<glyph name="P" format="2">
  <advance width="493.75"/>
  <unicode hex="0050"/>
  <outline>
    <contour>
      <point x="-2.6499999999999995" y="0.0" type="line"/>
      <point x="135.35" y="0.0" type="line"/>
      <point x="167.2" y="197.1" type="line"/>
      <point x="203.1" y="193.85000000000002"/>
      <point x="216.14999999999998" y="193.70000000000002"/>
      <point x="249.05" y="193.70000000000002" type="curve" smooth="yes"/>
      <point x="416.2" y="193.70000000000002"/>
      <point x="510.35" y="320.75"/>
      <point x="510.50000000000006" y="520.5" type="curve" smooth="yes"/>
      <point x="510.50000000000006" y="649.85"/>
      <point x="449.09999999999997" y="710.0"/>
      <point x="301.9" y="710.0" type="curve" smooth="yes"/>
      <point x="261.45" y="710.0"/>
      <point x="192.45" y="707.3"/>
      <point x="109.05" y="701.95" type="curve"/>
    </contour>
    <contour>
      <point x="229.14999999999998" y="585.2" type="line"/>
      <point x="258.7" y="587.65"/>
      <point x="271.1" y="588.8"/>
      <point x="291.9" y="588.8" type="curve" smooth="yes"/>
      <point x="351.0" y="588.8"/>
      <point x="372.5" y="562.35"/>
      <point x="372.5" y="498.85" type="curve" smooth="yes"/>
      <point x="372.5" y="403.3"/>
      <point x="327.9" y="315.25"/>
      <point x="242.15" y="315.25" type="curve" smooth="yes"/>
      <point x="224.79999999999998" y="315.25"/>
      <point x="210.9" y="316.05"/>
      <point x="186.29999999999998" y="317.9" type="curve"/>
    </contour>
  </outline>
</glyph>
<glyph name="Q" format="2">
  <advance width="524.28"/>
  <unicode hex="0051"/>
  <note>
14
</note>
  <outline>
    <contour>
      <point x="367.58000000000004" y="-176.23999999999998" type="curve" smooth="yes"/>
      <point x="390.36" y="-176.23999999999998"/>
      <point x="413.50000000000006" y="-172.94"/>
      <point x="435.26" y="-165.6" type="curve"/>
      <point x="445.02000000000004" y="-48.64" type="line"/>
      <point x="432.20000000000005" y="-53.66"/>
      <point x="416.8" y="-56.26"/>
      <point x="400.47999999999996" y="-56.26" type="curve" smooth="yes"/>
      <point x="355.61999999999995" y="-56.26"/>
      <point x="320.36" y="-34.080000000000005"/>
      <point x="314.52" y="17.339999999999996" type="curve"/>
      <point x="198.68" y="11.04" type="line"/>
      <point x="205.68000000000004" y="-130.72"/>
      <point x="287.18000000000006" y="-176.23999999999998"/>
    </contour>
    <component base="O"/>
  </outline>
</glyph>
<glyph name="R" format="2">
  <advance width="507.1999999999999"/>
  <unicode hex="0052"/>
  <anchor x="228.10000000000002" y="0.0" name="bottom"/>
  <anchor x="291.9" y="700.0" name="top"/>
  <outline>
    <contour>
      <point x="-3.2999999999999994" y="0.0" type="line"/>
      <point x="135.5" y="0.0" type="line"/>
      <point x="172.79999999999998" y="234.60000000000002" type="line"/>
      <point x="196.99999999999997" y="234.30000000000004"/>
      <point x="220.5" y="234.0"/>
      <point x="254.0" y="233.5" type="curve"/>
      <point x="268.30000000000007" y="246.4" type="line"/>
      <point x="410.59999999999997" y="246.70000000000002"/>
      <point x="510.2" y="351.70000000000005"/>
      <point x="510.2" y="519.5" type="curve" smooth="yes"/>
      <point x="510.2" y="641.4000000000001"/>
      <point x="443.5" y="710.0"/>
      <point x="297.1" y="710.0" type="curve" smooth="yes"/>
      <point x="240.5" y="710.0"/>
      <point x="182.4" y="706.4"/>
      <point x="108.69999999999999" y="700.5" type="curve"/>
    </contour>
    <contour>
      <point x="409.4" y="-10.0" type="curve" smooth="yes"/>
      <point x="420.1" y="-10.0"/>
      <point x="445.1" y="-6.300000000000001"/>
      <point x="453.9" y="-1.8000000000000003" type="curve"/>
      <point x="469.09999999999997" y="137.1" type="line"/>
      <point x="464.79999999999995" y="136.29999999999998"/>
      <point x="459.9" y="136.29999999999998"/>
      <point x="456.29999999999995" y="136.29999999999998" type="curve" smooth="yes"/>
      <point x="417.40000000000003" y="136.29999999999995"/>
      <point x="379.19999999999993" y="170.9"/>
      <point x="344.79999999999995" y="293.7" type="curve"/>
      <point x="218.79999999999998" y="261.0" type="line"/>
      <point x="286.1" y="27.300000000000004"/>
      <point x="336.2" y="-10.0"/>
    </contour>
    <contour>
      <point x="251.60000000000002" y="346.09999999999997" type="curve" smooth="yes"/>
      <point x="227.2" y="346.09999999999997"/>
      <point x="208.6" y="347.1"/>
      <point x="190.6" y="349.1" type="curve"/>
      <point x="229.1" y="588.0" type="line"/>
      <point x="258.2" y="590.5999999999999"/>
      <point x="269.79999999999995" y="591.5999999999999"/>
      <point x="293.2" y="591.5999999999999" type="curve" smooth="yes"/>
      <point x="350.09999999999997" y="591.5999999999999"/>
      <point x="368.6" y="561.4000000000001"/>
      <point x="368.6" y="512.1999999999999" type="curve" smooth="yes"/>
      <point x="368.6" y="412.2"/>
      <point x="320.7" y="346.09999999999997"/>
    </contour>
  </outline>
</glyph>
<glyph name="S" format="2">
  <advance width="452.84999999999997"/>
  <unicode hex="0053"/>
  <anchor x="191.65" y="0.0" name="bottom"/>
  <anchor x="300.75" y="700.0" name="top"/>
  <outline>
    <contour>
      <point x="470.0" y="676.8000000000001" type="line"/>
      <point x="424.65" y="697.1999999999999"/>
      <point x="369.25000000000006" y="710.0"/>
      <point x="305.90000000000003" y="710.0" type="curve" smooth="yes"/>
      <point x="146.45000000000002" y="710.0"/>
      <point x="56.05" y="626.6"/>
      <point x="56.05" y="493.3" type="curve" smooth="yes"/>
      <point x="56.05" y="308.95000000000005"/>
      <point x="280.65000000000003" y="292.3"/>
      <point x="280.65" y="192.15" type="curve" smooth="yes"/>
      <point x="280.65" y="146.2"/>
      <point x="246.70000000000002" y="112.4"/>
      <point x="179.95" y="112.4" type="curve" smooth="yes"/>
      <point x="126.55" y="112.4"/>
      <point x="75.89999999999999" y="123.64999999999999"/>
      <point x="18.65" y="145.95000000000002" type="curve"/>
      <point x="-24.45" y="30.400000000000002" type="line"/>
      <point x="27.750000000000004" y="4.3"/>
      <point x="97.1" y="-10.0"/>
      <point x="174.75" y="-10.0" type="curve" smooth="yes"/>
      <point x="335.15" y="-10.0"/>
      <point x="423.74999999999994" y="76.65"/>
      <point x="423.74999999999994" y="203.1" type="curve" smooth="yes"/>
      <point x="424.05" y="386.2"/>
      <point x="201.65" y="408.40000000000003"/>
      <point x="201.65" y="504.79999999999995" type="curve" smooth="yes"/>
      <point x="201.65" y="557.35"/>
      <point x="238.90000000000003" y="587.2"/>
      <point x="303.15000000000003" y="587.2" type="curve" smooth="yes"/>
      <point x="347.65" y="587.2"/>
      <point x="390.34999999999997" y="579.8000000000001"/>
      <point x="428.9" y="563.6999999999999" type="curve"/>
    </contour>
  </outline>
</glyph>
<glyph name="T" format="2">
  <advance width="441.88"/>
  <unicode hex="0054"/>
  <anchor x="177.18863999999996" y="0.0" name="bottom"/>
  <anchor x="232.86498" y="350.0" name="center"/>
  <anchor x="288.13406" y="700.0" name="top"/>
  <outline>
    <contour>
      <point x="479.56" y="579.78" type="line"/>
      <point x="499.92" y="700.0" type="line"/>
      <point x="77.49999999999999" y="700.0" type="line"/>
      <point x="57.00000000000001" y="579.78" type="line"/>
      <point x="199.4" y="579.78" type="line"/>
      <point x="107.5" y="0.0" type="line"/>
      <point x="245.92" y="0.0" type="line"/>
      <point x="337.67999999999995" y="579.78" type="line"/>
    </contour>
  </outline>
</glyph>
<glyph name="U" format="2">
  <advance width="504.96000000000004"/>
  <unicode hex="0055"/>
  <anchor x="208.89079999999996" y="0.0" name="bottom"/>
  <anchor x="277.88000000000005" y="0.0" name="ogonek"/>
  <anchor x="319.07910000000004" y="700.0" name="top"/>
  <anchor x="518.34" y="700.0" name="topright"/>
  <outline>
    <contour>
      <point x="205.04000000000002" y="-10.0" type="curve" smooth="yes"/>
      <point x="353.62" y="-10.0"/>
      <point x="432.34" y="56.9"/>
      <point x="456.23999999999995" y="204.68" type="curve" smooth="yes"/>
      <point x="535.42" y="700.0" type="line"/>
      <point x="397.74" y="700.0" type="line"/>
      <point x="316.4" y="187.88" type="line" smooth="yes"/>
      <point x="308.74" y="136.5"/>
      <point x="279.47999999999996" y="111.75999999999999"/>
      <point x="226.86" y="111.75999999999999" type="curve" smooth="yes"/>
      <point x="176.07999999999998" y="111.75999999999999"/>
      <point x="151.9" y="137.39999999999998"/>
      <point x="159.72" y="183.26000000000002" type="curve" smooth="yes"/>
      <point x="242.02" y="700.0" type="line"/>
      <point x="104.58" y="700.0" type="line"/>
      <point x="24.980000000000004" y="199.28" type="line" smooth="yes"/>
      <point x="20.900000000000006" y="173.48"/>
      <point x="19.580000000000002" y="159.27999999999997"/>
      <point x="19.580000000000002" y="143.28" type="curve" smooth="yes"/>
      <point x="19.580000000000002" y="40.620000000000005"/>
      <point x="81.22" y="-10.0"/>
    </contour>
  </outline>
</glyph>
<glyph name="V" format="2">
  <advance width="486.61"/>
  <unicode hex="0056"/>
  <outline>
    <contour>
      <point x="280.51" y="0.0" type="line"/>
      <point x="465.95" y="377.21000000000004"/>
      <point x="519.6500000000001" y="513.1"/>
      <point x="538.9" y="673.1" type="curve" smooth="yes"/>
      <point x="539.6" y="682.51"/>
      <point x="540.0" y="690.56"/>
      <point x="539.51" y="700.0" type="curve"/>
      <point x="389.11" y="700.0" type="line"/>
      <point x="389.65000000000003" y="692.9499999999999"/>
      <point x="390.36000000000007" y="686.5099999999999"/>
      <point x="390.36000000000007" y="679.05" type="curve" smooth="yes"/>
      <point x="385.81" y="543.2"/>
      <point x="331.48" y="414.83000000000004"/>
      <point x="222.42" y="137.7" type="curve"/>
      <point x="223.29999999999998" y="700.66" type="line"/>
      <point x="68.0" y="700.15" type="line"/>
      <point x="106.96000000000001" y="0.0" type="line"/>
    </contour>
  </outline>
</glyph>
<glyph name="W" format="2">
  <advance width="726.5999999999999"/>
  <unicode hex="0057"/>
  <anchor x="315.3" y="0.0" name="bottom"/>
  <anchor x="430.20000000000005" y="700.0" name="top"/>
  <outline>
    <contour>
      <point x="552.5" y="-0.30000000000000004" type="line"/>
      <point x="728.9" y="452.7"/>
      <point x="772.5999999999999" y="580.1000000000001"/>
      <point x="777.6" y="679.5" type="curve" smooth="yes"/>
      <point x="777.6" y="686.5"/>
      <point x="777.6" y="693.3000000000001"/>
      <point x="776.9" y="700.0" type="curve"/>
      <point x="641.9" y="700.0" type="line"/>
      <point x="642.5" y="693.3"/>
      <point x="642.8000000000001" y="687.4"/>
      <point x="642.8000000000001" y="680.5" type="curve" smooth="yes"/>
      <point x="637.3000000000001" y="550.5"/>
      <point x="605.3" y="472.79999999999995"/>
      <point x="490.20000000000005" y="152.2" type="curve"/>
      <point x="492.09999999999997" y="649.9000000000001" type="line"/>
      <point x="355.9" y="649.9000000000001" type="line"/>
      <point x="312.29999999999995" y="488.6"/>
      <point x="254.10000000000002" y="292.2"/>
      <point x="201.0" y="154.59999999999997" type="curve"/>
      <point x="207.79999999999998" y="700.0" type="line"/>
      <point x="69.1" y="700.0" type="line"/>
      <point x="84.69999999999999" y="-0.30000000000000004" type="line"/>
      <point x="232.79999999999998" y="-0.30000000000000004" type="line"/>
      <point x="297.3" y="161.8"/>
      <point x="351.2" y="310.9"/>
      <point x="391.6" y="433.7000000000001" type="curve"/>
      <point x="397.6" y="-0.30000000000000004" type="line"/>
    </contour>
  </outline>
</glyph>
<glyph name="X" format="2">
  <advance width="503.59999999999997"/>
  <unicode hex="0058"/>
  <outline>
    <contour>
      <point x="321.7" y="-1.9999999999999998" type="line"/>
      <point x="463.90000000000003" y="0.3999999999999999" type="line"/>
      <point x="356.79999999999995" y="343.3" type="line"/>
      <point x="466.1" y="528.4"/>
      <point x="532.1999999999999" y="611.9999999999999"/>
      <point x="543.5999999999999" y="700.4" type="curve"/>
      <point x="404.5" y="701.6" type="line"/>
      <point x="397.4" y="619.9"/>
      <point x="346.3" y="536.5"/>
      <point x="281.1" y="441.4" type="curve"/>
      <point x="214.0" y="702.6" type="line"/>
      <point x="75.6" y="700.2" type="line"/>
      <point x="167.7" y="366.00000000000006" type="line"/>
      <point x="67.9" y="217.9"/>
      <point x="-13.600000000000001" y="108.10000000000001"/>
      <point x="-18.4" y="0.0" type="curve"/>
      <point x="124.3" y="0.0" type="line"/>
      <point x="129.1" y="92.70000000000002"/>
      <point x="172.9" y="159.79999999999998"/>
      <point x="245.79999999999998" y="267.9" type="curve"/>
    </contour>
  </outline>
</glyph>
<glyph name="Y" format="2">
  <advance width="469.82"/>
  <unicode hex="0059"/>
  <anchor x="191.22" y="0.0" name="bottom"/>
  <anchor x="304.14" y="700.0" name="top"/>
  <anchor x="89.14" y="700.0" name="topleft"/>
  <outline>
    <contour>
      <point x="121.58000000000001" y="0.0" type="line"/>
      <point x="257.7" y="0.0" type="line"/>
      <point x="297.42" y="241.72000000000003" type="line"/>
      <point x="417.6" y="404.12"/>
      <point x="479.56" y="522.26"/>
      <point x="525.66" y="665.88" type="curve" smooth="yes"/>
      <point x="528.6" y="677.02"/>
      <point x="532.66" y="689.3"/>
      <point x="535.86" y="700.9399999999999" type="curve"/>
      <point x="379.32" y="702.0" type="line"/>
      <point x="377.52" y="691.14"/>
      <point x="375.28000000000003" y="680.2199999999999"/>
      <point x="373.18" y="669.4399999999999" type="curve" smooth="yes"/>
      <point x="348.62" y="562.7799999999999"/>
      <point x="317.73999999999995" y="470.8"/>
      <point x="250.06" y="362.78" type="curve"/>
      <point x="224.96" y="701.36" type="line"/>
      <point x="66.7" y="699.9199999999998" type="line"/>
      <point x="160.72" y="241.72000000000003" type="line"/>
    </contour>
  </outline>
</glyph>
<glyph name="Z" format="2">
  <advance width="449.3"/>
  <unicode hex="005A"/>
  <anchor x="182.20000000000002" y="0.0" name="bottom"/>
  <anchor x="235.79999999999998" y="350.0" name="center"/>
  <anchor x="290.6000000000001" y="700.0" name="top"/>
  <outline>
    <contour>
      <point x="-27.4" y="0.0" type="line"/>
      <point x="389.0" y="0.0" type="line"/>
      <point x="409.3" y="121.29999999999998" type="line"/>
      <point x="148.7" y="121.29999999999998" type="line"/>
      <point x="472.69999999999993" y="577.6" type="line"/>
      <point x="492.2" y="700.0" type="line"/>
      <point x="98.8" y="700.0" type="line"/>
      <point x="78.8" y="578.7000000000002" type="line"/>
      <point x="317.90000000000003" y="578.7000000000002" type="line"/>
      <point x="-8.300000000000002" y="119.39999999999998" type="line"/>
    </contour>
  </outline>
</glyph>
<glyph name="bracketleft" format="2">
  <advance width="270.32"/>
  <unicode hex="005B"/>
  <outline>
    <contour>
      <point x="91.67999999999999" y="-99.6" type="line"/>
      <point x="209.24" y="629.6600000000001" type="line"/>
      <point x="313.14" y="629.6600000000001" type="line"/>
      <point x="331.53999999999996" y="740.0" type="line"/>
      <point x="118.24" y="740.0" type="line"/>
      <point x="-35.739999999999995" y="-210.0" type="line"/>
      <point x="176.62" y="-210.0" type="line"/>
      <point x="195.57999999999996" y="-99.6" type="line"/>
    </contour>
  </outline>
</glyph>
<glyph name="backslash" format="2">
  <advance width="348.64000000000004"/>
  <unicode hex="005C"/>
  <outline>
    <contour>
      <point x="182.54" y="740.0" type="line"/>
      <point x="73.56" y="740.0" type="line"/>
      <point x="201.51999999999998" y="-210.0" type="line"/>
      <point x="309.94" y="-210.0" type="line"/>
    </contour>
  </outline>
</glyph>
<glyph name="bracketright" format="2">
  <advance width="270.32"/>
  <unicode hex="005D"/>
  <outline>
    <contour>
      <point x="-45.52" y="-99.6" type="line"/>
      <point x="-63.779999999999994" y="-210.0" type="line"/>
      <point x="148.28" y="-210.0" type="line"/>
      <point x="303.20000000000005" y="740.0" type="line"/>
      <point x="90.14000000000001" y="740.0" type="line"/>
      <point x="71.18" y="629.6" type="line"/>
      <point x="175.07999999999998" y="629.6" type="line"/>
      <point x="56.959999999999994" y="-99.6" type="line"/>
    </contour>
  </outline>
</glyph>
<glyph name="asciicircum" format="2">
  <advance width="432.62"/>
  <unicode hex="005E"/>
  <outline>
    <contour>
      <point x="41.66" y="247.32" type="line"/>
      <point x="140.86" y="247.32" type="line"/>
      <point x="260.36" y="559.44" type="line"/>
      <point x="283.96000000000004" y="247.32" type="line"/>
      <point x="382.48" y="247.32" type="line"/>
      <point x="342.18" y="703.0" type="line"/>
      <point x="220.38" y="703.0" type="line"/>
    </contour>
  </outline>
</glyph>
<glyph name="underscore" format="2">
  <advance width="636.3199999999999"/>
  <unicode hex="005F"/>
  <outline>
    <contour>
      <point x="-69.22000000000001" y="-187.23999999999998" type="line"/>
      <point x="557.62" y="-187.23999999999998" type="line"/>
      <point x="578.5400000000001" y="-63.76" type="line"/>
      <point x="-48.300000000000004" y="-63.76" type="line"/>
    </contour>
  </outline>
</glyph>
<glyph name="a" format="2">
  <advance width="458.5"/>
  <unicode hex="0061"/>
  <note>
15
</note>
  <anchor x="191.15" y="0.0" name="bottom"/>
  <anchor x="419.00000000000006" y="8.399999999999999" name="ogonek"/>
  <anchor x="273.09999999999997" y="544.0" name="top"/>
  <outline>
    <contour>
      <point x="343.5" y="-10.0" type="curve" smooth="yes"/>
      <point x="371.09999999999997" y="-10.0"/>
      <point x="401.55" y="-2.3000000000000007"/>
      <point x="418.79999999999995" y="8.399999999999999" type="curve"/>
      <point x="429.84999999999997" y="119.8" type="line"/>
      <point x="423.79999999999995" y="117.6"/>
      <point x="417.45" y="116.85"/>
      <point x="412.05000000000007" y="116.85" type="curve" smooth="yes"/>
      <point x="399.05" y="116.85"/>
      <point x="394.75" y="123.44999999999999"/>
      <point x="394.75" y="137.54999999999998" type="curve" smooth="yes"/>
      <point x="394.75" y="144.5"/>
      <point x="401.19999999999993" y="181.85"/>
      <point x="455.3999999999999" y="521.3" type="curve"/>
      <point x="410.45000000000005" y="539.15"/>
      <point x="343.45" y="554.0"/>
      <point x="280.59999999999997" y="554.0" type="curve" smooth="yes"/>
      <point x="117.45000000000002" y="554.0"/>
      <point x="14.5" y="416.35"/>
      <point x="14.5" y="164.85" type="curve" smooth="yes"/>
      <point x="14.5" y="51.099999999999994"/>
      <point x="64.35" y="-10.0"/>
      <point x="142.89999999999998" y="-10.0" type="curve" smooth="yes"/>
      <point x="188.45000000000005" y="-10.0"/>
      <point x="226.3" y="6.3999999999999995"/>
      <point x="258.49999999999994" y="35.949999999999996" type="curve"/>
      <point x="275.45" y="5.200000000000001"/>
      <point x="304.4" y="-10.0"/>
    </contour>
    <contour>
      <point x="256.84999999999997" y="132.04999999999998" type="line"/>
      <point x="241.45000000000002" y="122.74999999999997"/>
      <point x="221.05000000000004" y="116.1"/>
      <point x="202.99999999999997" y="116.1" type="curve" smooth="yes"/>
      <point x="174.7" y="116.1"/>
      <point x="155.74999999999997" y="139.5"/>
      <point x="155.74999999999997" y="186.05" type="curve" smooth="yes"/>
      <point x="155.74999999999997" y="326.7"/>
      <point x="204.6" y="436.40000000000003"/>
      <point x="265.55" y="436.40000000000003" type="curve" smooth="yes"/>
      <point x="279.55" y="436.40000000000003"/>
      <point x="292.59999999999997" y="434.55"/>
      <point x="303.79999999999995" y="429.3" type="curve"/>
    </contour>
  </outline>
</glyph>
<glyph name="b" format="2">
  <advance width="451.44000000000005"/>
  <unicode hex="0062"/>
  <note>
12
</note>
  <outline>
    <contour>
      <point x="247.87" y="740.0" type="line"/>
      <point x="111.62000000000002" y="740.0" type="line"/>
      <point x="-2.8599999999999985" y="16.22" type="line"/>
      <point x="35.61" y="3.4099999999999984"/>
      <point x="91.91" y="-10.0"/>
      <point x="164.41" y="-10.0" type="curve" smooth="yes"/>
      <point x="351.73" y="-10.0"/>
      <point x="439.21" y="168.94000000000003"/>
      <point x="438.15999999999997" y="376.15999999999997" type="curve" smooth="yes"/>
      <point x="437.81" y="495.82"/>
      <point x="396.45" y="554.0"/>
      <point x="316.51" y="554.0" type="curve" smooth="yes"/>
      <point x="280.58" y="554.0"/>
      <point x="247.74" y="542.02"/>
      <point x="212.54999999999998" y="518.4399999999999" type="curve"/>
    </contour>
    <contour>
      <point x="251.32999999999998" y="426.39" type="curve" smooth="yes"/>
      <point x="285.66" y="426.39"/>
      <point x="299.46" y="398.59000000000003"/>
      <point x="299.46" y="353.55999999999995" type="curve" smooth="yes"/>
      <point x="299.46" y="229.94000000000003"/>
      <point x="255.65" y="105.00999999999999"/>
      <point x="186.45" y="105.00999999999999" type="curve" smooth="yes"/>
      <point x="172.74" y="105.00999999999999"/>
      <point x="159.39999999999998" y="107.38999999999997"/>
      <point x="148.75" y="111.23999999999998" type="curve"/>
      <point x="195.54999999999998" y="408.36" type="line"/>
      <point x="212.84" y="419.38"/>
      <point x="233.37" y="426.39"/>
    </contour>
  </outline>
</glyph>
<glyph name="c" format="2">
  <advance width="379.99999999999994"/>
  <unicode hex="0063"/>
  <note>
10
</note>
  <anchor x="186.2" y="0.0" name="bottom"/>
  <anchor x="271.4" y="544.0" name="top"/>
  <outline>
    <contour>
      <point x="196.49999999999997" y="-10.0" type="curve" smooth="yes"/>
      <point x="241.6" y="-10.0"/>
      <point x="294.20000000000005" y="-2.0999999999999996"/>
      <point x="331.5" y="11.9" type="curve"/>
      <point x="319.00000000000006" y="127.2" type="line"/>
      <point x="289.59999999999997" y="121.1"/>
      <point x="264.40000000000003" y="118.1"/>
      <point x="235.2" y="118.1" type="curve" smooth="yes"/>
      <point x="183.29999999999998" y="118.1"/>
      <point x="155.3" y="153.39999999999998"/>
      <point x="155.3" y="209.70000000000002" type="curve" smooth="yes"/>
      <point x="155.3" y="322.5"/>
      <point x="203.6" y="425.6000000000001"/>
      <point x="279.3" y="425.6000000000001" type="curve" smooth="yes"/>
      <point x="307.4" y="425.6000000000001"/>
      <point x="333.0" y="422.9"/>
      <point x="363.6" y="413.4000000000001" type="curve"/>
      <point x="405.5999999999999" y="536.6" type="line"/>
      <point x="371.5" y="547.9"/>
      <point x="327.2" y="554.0"/>
      <point x="282.5" y="554.0" type="curve" smooth="yes"/>
      <point x="104.69999999999999" y="554.0"/>
      <point x="14.9" y="398.50000000000006"/>
      <point x="14.9" y="179.00000000000003" type="curve" smooth="yes"/>
      <point x="14.9" y="59.79999999999999"/>
      <point x="77.0" y="-10.0"/>
    </contour>
  </outline>
</glyph>
<glyph name="d" format="2">
  <advance width="457.70000000000005"/>
  <unicode hex="0064"/>
  <note>
17
</note>
  <anchor x="202.54999999999998" y="0.0" name="bottom"/>
  <anchor x="230.54999999999998" y="297.65000000000003" name="center"/>
  <anchor x="288.6000000000001" y="740.0" name="top"/>
  <anchor x="524.85" y="740.0" name="topright"/>
  <outline>
    <contour>
      <point x="342.15" y="-10.0" type="curve" smooth="yes"/>
      <point x="367.45000000000005" y="-10.0"/>
      <point x="398.24999999999994" y="-3.000000000000001"/>
      <point x="416.95000000000005" y="8.399999999999999" type="curve"/>
      <point x="427.7" y="119.8" type="line"/>
      <point x="421.90000000000003" y="117.74999999999999"/>
      <point x="415.6" y="116.85"/>
      <point x="410.25000000000006" y="116.85" type="curve" smooth="yes"/>
      <point x="397.84999999999997" y="116.85"/>
      <point x="393.45" y="122.99999999999999"/>
      <point x="393.45" y="134.35" type="curve" smooth="yes"/>
      <point x="393.45" y="149.64999999999998"/>
      <point x="463.25" y="584.45"/>
      <point x="487.7" y="740.0" type="curve"/>
      <point x="351.70000000000005" y="740.0" type="line"/>
      <point x="319.75000000000006" y="539.6999999999999" type="line"/>
      <point x="297.99999999999994" y="548.9999999999999"/>
      <point x="273.25" y="554.0"/>
      <point x="244.70000000000002" y="554.0" type="curve" smooth="yes"/>
      <point x="116.50000000000001" y="554.0"/>
      <point x="14.600000000000003" y="405.5"/>
      <point x="14.600000000000003" y="170.85" type="curve" smooth="yes"/>
      <point x="14.600000000000003" y="48.10000000000001"/>
      <point x="64.5" y="-10.0"/>
      <point x="143.55" y="-10.0" type="curve" smooth="yes"/>
      <point x="188.20000000000002" y="-10.0"/>
      <point x="228.70000000000002" y="10.850000000000001"/>
      <point x="256.65000000000003" y="36.24999999999999" type="curve"/>
      <point x="273.75" y="5.6"/>
      <point x="302.1" y="-10.0"/>
    </contour>
    <contour>
      <point x="200.54999999999998" y="116.55" type="curve" smooth="yes"/>
      <point x="172.09999999999997" y="116.55"/>
      <point x="153.74999999999997" y="139.7"/>
      <point x="153.74999999999997" y="177.09999999999997" type="curve" smooth="yes"/>
      <point x="153.74999999999997" y="306.0"/>
      <point x="198.54999999999998" y="436.40000000000003"/>
      <point x="263.40000000000003" y="436.40000000000003" type="curve" smooth="yes"/>
      <point x="278.15" y="436.40000000000003"/>
      <point x="290.20000000000005" y="434.25"/>
      <point x="302.4" y="430.35" type="curve"/>
      <point x="255.15000000000003" y="132.2" type="line"/>
      <point x="239.74999999999997" y="122.89999999999999"/>
      <point x="219.25" y="116.55"/>
    </contour>
  </outline>
</glyph>
<glyph name="e" format="2">
  <advance width="420.79999999999995"/>
  <unicode hex="0065"/>
  <note>
14 points
</note>
  <anchor x="198.39999999999998" y="0.0" name="bottom"/>
  <anchor x="309.6" y="2.2" name="ogonek"/>
  <anchor x="269.40000000000003" y="544.0" name="top"/>
  <outline>
    <contour>
      <point x="123.29999999999998" y="291.8999999999999" type="curve"/>
      <point x="107.39999999999999" y="203.5" type="line"/>
      <point x="146.6" y="201.6"/>
      <point x="188.39999999999998" y="206.29999999999998"/>
      <point x="231.19999999999996" y="216.5" type="curve" smooth="yes"/>
      <point x="350.1" y="246.10000000000002"/>
      <point x="426.70000000000005" y="324.80000000000007"/>
      <point x="426.70000000000005" y="427.90000000000003" type="curve" smooth="yes"/>
      <point x="426.70000000000005" y="502.79999999999995"/>
      <point x="374.1" y="553.4"/>
      <point x="279.8999999999999" y="553.4" type="curve" smooth="yes"/>
      <point x="105.8" y="553.4"/>
      <point x="16.0" y="393.1"/>
      <point x="16.0" y="195.6" type="curve" smooth="yes"/>
      <point x="16.0" y="64.2"/>
      <point x="84.0" y="-10.0"/>
      <point x="206.69999999999996" y="-10.0" type="curve" smooth="yes"/>
      <point x="259.7" y="-10.0"/>
      <point x="318.4" y="0.30000000000000004"/>
      <point x="367.4" y="22.900000000000002" type="curve"/>
      <point x="347.79999999999995" y="141.79999999999998" type="line"/>
      <point x="301.9" y="123.69999999999997"/>
      <point x="260.2" y="116.3"/>
      <point x="229.19999999999996" y="116.3" type="curve" smooth="yes"/>
      <point x="174.1" y="116.3"/>
      <point x="147.99999999999997" y="139.7"/>
      <point x="148.79999999999998" y="218.0" type="curve" smooth="yes"/>
      <point x="149.99999999999997" y="353.29999999999995"/>
      <point x="198.99999999999997" y="439.90000000000003"/>
      <point x="260.1" y="439.70000000000005" type="curve" smooth="yes"/>
      <point x="284.90000000000003" y="439.70000000000005"/>
      <point x="296.5000000000001" y="429.09999999999997"/>
      <point x="296.5000000000001" y="403.1" type="curve" smooth="yes"/>
      <point x="296.1" y="357.90000000000003"/>
      <point x="259.5" y="320.4"/>
      <point x="199.10000000000002" y="301.9" type="curve" smooth="yes"/>
      <point x="175.49999999999997" y="294.8"/>
      <point x="145.9" y="290.40000000000003"/>
    </contour>
  </outline>
</glyph>
<glyph name="f" format="2">
  <advance width="296.4200000000001"/>
  <unicode hex="0066"/>
  <outline>
    <contour>
      <point x="-21.860000000000007" y="-220.0" type="curve" smooth="yes"/>
      <point x="79.94" y="-220.0"/>
      <point x="132.98" y="-152.96"/>
      <point x="154.83999999999997" y="-15.420000000000002" type="curve" smooth="yes"/>
      <point x="219.64" y="394.44" type="line"/>
      <point x="307.46000000000004" y="394.44" type="line"/>
      <point x="325.86" y="509.2" type="line"/>
      <point x="237.9" y="509.2" type="line"/>
      <point x="251.01999999999998" y="593.7199999999999"/>
      <point x="274.35999999999996" y="621.8"/>
      <point x="317.06" y="621.8" type="curve" smooth="yes"/>
      <point x="336.70000000000005" y="621.8"/>
      <point x="358.5" y="617.3"/>
      <point x="376.96" y="611.2" type="curve"/>
      <point x="414.56" y="725.1" type="line"/>
      <point x="381.6" y="739.76"/>
      <point x="345.88" y="750.0"/>
      <point x="300.36" y="750.0" type="curve" smooth="yes"/>
      <point x="195.73999999999998" y="750.0"/>
      <point x="125.62" y="672.5799999999999"/>
      <point x="101.8" y="509.2" type="curve"/>
      <point x="44.699999999999996" y="500.74" type="line"/>
      <point x="27.02" y="394.44" type="line"/>
      <point x="83.39999999999999" y="394.44" type="line"/>
      <point x="20.12" y="-8.220000000000006" type="line" smooth="yes"/>
      <point x="10.82" y="-65.96000000000001"/>
      <point x="-7.100000000000002" y="-92.12"/>
      <point x="-39.86" y="-92.12" type="curve" smooth="yes"/>
      <point x="-49.720000000000006" y="-92.12"/>
      <point x="-60.82" y="-91.18"/>
      <point x="-75.04" y="-86.34" type="curve"/>
      <point x="-108.84000000000002" y="-203.86" type="line"/>
      <point x="-80.28" y="-214.86"/>
      <point x="-52.64" y="-220.0"/>
    </contour>
  </outline>
</glyph>
<glyph name="g" format="2">
  <advance width="453.7"/>
  <unicode hex="0067"/>
  <note>
16
</note>
  <anchor x="143.8" y="-216.20000000000002" name="bottom"/>
  <anchor x="272.8" y="544.0" name="top"/>
  <outline>
    <contour>
      <point x="-18.599999999999998" y="-184.9" type="line"/>
      <point x="33.20000000000001" y="-207.29999999999998"/>
      <point x="92.8" y="-220.0"/>
      <point x="146.80000000000004" y="-220.0" type="curve" smooth="yes"/>
      <point x="275.4" y="-220.0"/>
      <point x="347.5" y="-148.9"/>
      <point x="371.6000000000001" y="4.299999999999997" type="curve" smooth="yes"/>
      <point x="456.0" y="528.4000000000001" type="line"/>
      <point x="422.5" y="541.6000000000001"/>
      <point x="348.5" y="554.0"/>
      <point x="292.99999999999994" y="554.0" type="curve" smooth="yes"/>
      <point x="97.80000000000001" y="554.0"/>
      <point x="14.199999999999998" y="391.5"/>
      <point x="14.199999999999998" y="166.7" type="curve" smooth="yes"/>
      <point x="14.199999999999998" y="70.50000000000001"/>
      <point x="55.599999999999994" y="7.699999999999995"/>
      <point x="137.7" y="7.699999999999995" type="curve" smooth="yes"/>
      <point x="165.1" y="7.699999999999995"/>
      <point x="208.29999999999995" y="17.599999999999998"/>
      <point x="241.1" y="36.3" type="curve"/>
      <point x="236.39999999999998" y="-1.1000000000000065" type="line" smooth="yes"/>
      <point x="226.6" y="-73.29999999999998"/>
      <point x="193.7" y="-95.89999999999999"/>
      <point x="143.79999999999998" y="-95.89999999999999" type="curve" smooth="yes"/>
      <point x="107.6" y="-95.89999999999999"/>
      <point x="56.599999999999994" y="-84.39999999999999"/>
      <point x="19.599999999999998" y="-70.79999999999998" type="curve"/>
    </contour>
    <contour>
      <point x="303.99999999999994" y="433.80000000000007" type="curve"/>
      <point x="257.09999999999997" y="138.79999999999998" type="line"/>
      <point x="242.59999999999997" y="129.79999999999995"/>
      <point x="221.1" y="122.79999999999998"/>
      <point x="206.00000000000003" y="122.79999999999998" type="curve" smooth="yes"/>
      <point x="173.90000000000003" y="122.79999999999998"/>
      <point x="155.4" y="145.49999999999997"/>
      <point x="155.4" y="190.90000000000003" type="curve" smooth="yes"/>
      <point x="155.4" y="309.5"/>
      <point x="200.20000000000002" y="440.8"/>
      <point x="266.59999999999997" y="440.8" type="curve" smooth="yes"/>
      <point x="282.5" y="440.8"/>
      <point x="293.49999999999994" y="437.50000000000006"/>
    </contour>
  </outline>
</glyph>
<glyph name="h" format="2">
  <advance width="452.40000000000003"/>
  <unicode hex="0068"/>
  <note>
16
</note>
  <anchor x="185.86" y="0.0" name="bottom"/>
  <anchor x="242.35047999999998" y="373.5" name="center"/>
  <anchor x="297.52" y="740.0" name="top"/>
  <outline>
    <contour>
      <point x="389.22999999999996" y="135.13" type="curve" smooth="yes"/>
      <point x="389.22999999999996" y="155.20000000000002"/>
      <point x="437.56999999999994" y="421.74"/>
      <point x="437.56999999999994" y="454.16" type="curve" smooth="yes"/>
      <point x="437.56999999999994" y="514.72"/>
      <point x="405.64" y="554.0"/>
      <point x="336.24" y="554.0" type="curve" smooth="yes"/>
      <point x="292.43" y="554.0"/>
      <point x="257.39" y="540.8199999999999"/>
      <point x="211.10000000000002" y="511.34999999999997" type="curve"/>
      <point x="248.01000000000002" y="740.0" type="line"/>
      <point x="111.5" y="740.0" type="line"/>
      <point x="-6.429999999999996" y="0.0" type="line"/>
      <point x="130.16" y="0.0" type="line"/>
      <point x="195.21" y="407.29999999999995" type="line"/>
      <point x="216.59" y="419.69999999999993"/>
      <point x="239.01999999999998" y="427.9700000000001"/>
      <point x="258.15999999999997" y="427.9700000000001" type="curve" smooth="yes"/>
      <point x="284.14" y="427.9700000000001"/>
      <point x="293.06" y="413.8500000000001"/>
      <point x="293.06" y="394.23" type="curve" smooth="yes"/>
      <point x="293.06" y="370.61999999999995"/>
      <point x="245.57" y="111.46000000000001"/>
      <point x="245.57" y="74.27" type="curve" smooth="yes"/>
      <point x="245.57" y="25.06"/>
      <point x="282.75" y="-10.0"/>
      <point x="339.09000000000003" y="-10.0" type="curve" smooth="yes"/>
      <point x="364.78999999999996" y="-10.0"/>
      <point x="392.48999999999995" y="-3.33"/>
      <point x="413.26" y="7.949999999999998" type="curve"/>
      <point x="424.5" y="120.46" type="line"/>
      <point x="418.11" y="118.26"/>
      <point x="411.98" y="117.42999999999999"/>
      <point x="407.55999999999995" y="117.42999999999999" type="curve" smooth="yes"/>
      <point x="395.28000000000003" y="117.42999999999999"/>
      <point x="389.22999999999996" y="123.14"/>
    </contour>
  </outline>
</glyph>
<glyph name="i" format="2">
  <advance width="212.45999999999998"/>
  <unicode hex="0069"/>
  <note>
Ajuster pts sur points
8
</note>
  <anchor x="62.42216" y="0.0" name="bottom"/>
  <anchor x="130.74" y="0.0" name="ogonek"/>
  <anchor x="148.59784000000002" y="544.0" name="top"/>
  <outline>
    <contour>
      <point x="-5.339999999999996" y="0.0" type="line"/>
      <point x="130.74" y="0.0" type="line"/>
      <point x="216.7" y="544.0" type="line"/>
      <point x="80.66" y="544.0" type="line"/>
    </contour>
    <contour>
      <point x="184.84" y="766.0" type="curve" smooth="yes"/>
      <point x="118.12" y="766.0"/>
      <point x="91.78" y="718.9"/>
      <point x="90.99999999999999" y="660.9" type="curve" smooth="yes"/>
      <point x="90.75999999999999" y="620.76"/>
      <point x="113.18" y="601.24"/>
      <point x="157.34" y="601.24" type="curve" smooth="yes"/>
      <point x="221.0" y="601.24"/>
      <point x="250.32000000000002" y="647.5000000000001"/>
      <point x="251.15999999999997" y="707.1" type="curve" smooth="yes"/>
      <point x="251.4" y="747.04"/>
      <point x="228.60000000000002" y="766.0"/>
    </contour>
  </outline>
</glyph>
<glyph name="j" format="2">
  <advance width="219.62"/>
  <unicode hex="006A"/>
  <note>
idem /i
12
</note>
  <outline>
    <contour>
      <point x="192.14000000000001" y="766.0" type="curve" smooth="yes"/>
      <point x="125.28" y="766.0"/>
      <point x="99.2" y="718.9"/>
      <point x="98.42" y="660.9" type="curve" smooth="yes"/>
      <point x="98.18" y="620.76"/>
      <point x="121.17999999999999" y="601.24"/>
      <point x="165.34" y="601.24" type="curve" smooth="yes"/>
      <point x="228.26" y="601.24"/>
      <point x="257.5" y="647.5000000000001"/>
      <point x="258.34" y="707.1" type="curve" smooth="yes"/>
      <point x="258.58" y="747.04"/>
      <point x="235.9" y="766.0"/>
    </contour>
    <contour>
      <point x="224.7" y="544.0" type="line"/>
      <point x="87.96000000000001" y="544.0" type="line"/>
      <point x="-0.019999999999998352" y="-8.880000000000003" type="line" smooth="yes"/>
      <point x="-8.74" y="-63.10000000000001"/>
      <point x="-25.139999999999997" y="-92.12"/>
      <point x="-58.39999999999999" y="-92.12" type="curve" smooth="yes"/>
      <point x="-68.5" y="-92.12"/>
      <point x="-80.02000000000001" y="-91.38000000000001"/>
      <point x="-93.82000000000001" y="-86.44" type="curve"/>
      <point x="-125.74000000000001" y="-207.04" type="line"/>
      <point x="-97.16" y="-216.54"/>
      <point x="-63.92" y="-220.0"/>
      <point x="-41.9" y="-220.0" type="curve" smooth="yes"/>
      <point x="67.63999999999999" y="-220.0"/>
      <point x="113.72" y="-151.22"/>
      <point x="136.42" y="-7.580000000000005" type="curve" smooth="yes"/>
    </contour>
  </outline>
</glyph>
<glyph name="k" format="2">
  <advance width="431.29999999999995"/>
  <unicode hex="006B"/>
  <anchor x="189.6" y="0.0" name="bottom"/>
  <anchor x="180.39999999999998" y="740.0" name="top"/>
  <outline>
    <contour>
      <point x="-5.499999999999999" y="0.0" type="line"/>
      <point x="131.0" y="0.0" type="line"/>
      <point x="248.50000000000003" y="740.0" type="line"/>
      <point x="111.49999999999999" y="740.0" type="line"/>
    </contour>
    <contour>
      <point x="345.40000000000003" y="-10.0" type="curve" smooth="yes"/>
      <point x="358.7" y="-10.0"/>
      <point x="371.8" y="-8.299999999999999"/>
      <point x="386.00000000000006" y="-3.2" type="curve"/>
      <point x="405.3" y="135.9" type="line"/>
      <point x="398.09999999999997" y="135.3"/>
      <point x="391.9" y="135.5"/>
      <point x="386.0" y="136.2" type="curve" smooth="yes"/>
      <point x="356.09999999999997" y="139.5"/>
      <point x="327.49999999999994" y="158.7"/>
      <point x="270.6" y="246.6" type="curve" smooth="yes"/>
      <point x="178.70000000000002" y="387.2" type="line"/>
      <point x="148.2" y="221.0" type="line"/>
      <point x="218.6" y="100.4" type="line" smooth="yes"/>
      <point x="261.80000000000007" y="25.400000000000002"/>
      <point x="297.59999999999997" y="-10.0"/>
    </contour>
    <contour>
      <point x="258.4" y="240.8" type="line"/>
      <point x="348.7" y="319.6"/>
      <point x="427.9" y="436.40000000000003"/>
      <point x="461.5" y="541.8000000000001" type="curve"/>
      <point x="325.70000000000005" y="554.0" type="line"/>
      <point x="293.8" y="449.19999999999993"/>
      <point x="248.19999999999996" y="385.09999999999997"/>
      <point x="183.1" y="323.49999999999994" type="curve"/>
    </contour>
  </outline>
</glyph>
<glyph name="l" format="2">
  <advance width="234.62"/>
  <unicode hex="006C"/>
  <anchor x="99.36000000000001" y="0.0" name="bottom"/>
  <anchor x="132.34084" y="373.5" name="center"/>
  <anchor x="179.48000000000002" y="740.0" name="top"/>
  <anchor x="284.8" y="740.0" name="topright"/>
  <outline>
    <contour>
      <point x="111.48000000000002" y="740.0" type="line"/>
      <point x="13.860000000000003" y="123.49999999999999" type="line" smooth="yes"/>
      <point x="11.68" y="109.32"/>
      <point x="10.080000000000002" y="93.74"/>
      <point x="10.080000000000002" y="81.24" type="curve" smooth="yes"/>
      <point x="10.080000000000002" y="23.24"/>
      <point x="39.72" y="-10.0"/>
      <point x="102.62" y="-10.0" type="curve" smooth="yes"/>
      <point x="135.16" y="-10.0"/>
      <point x="171.79999999999998" y="-1.3600000000000005"/>
      <point x="197.12" y="11.599999999999998" type="curve"/>
      <point x="208.17999999999995" y="125.25999999999999" type="line"/>
      <point x="195.26000000000002" y="121.82000000000001"/>
      <point x="185.39999999999998" y="120.27999999999999"/>
      <point x="176.87999999999997" y="120.27999999999999" type="curve" smooth="yes"/>
      <point x="160.29999999999998" y="120.27999999999999"/>
      <point x="154.2" y="128.68"/>
      <point x="154.2" y="143.12000000000003" type="curve" smooth="yes"/>
      <point x="154.2" y="150.94"/>
      <point x="155.71999999999997" y="160.49999999999997"/>
      <point x="157.64" y="172.65999999999997" type="curve" smooth="yes"/>
      <point x="247.72" y="740.0" type="line"/>
    </contour>
  </outline>
</glyph>
<glyph name="m" format="2">
  <advance width="669.2399999999999"/>
  <unicode hex="006D"/>
  <note>
24&gt;23 points
un point de trop dans la jointure avec 2e jambage
</note>
  <outline>
    <contour>
      <point x="554.4599999999999" y="-10.0" type="curve" smooth="yes"/>
      <point x="580.04" y="-10.0"/>
      <point x="610.86" y="-3.48"/>
      <point x="630.1600000000001" y="7.859999999999998" type="curve"/>
      <point x="641.28" y="119.91999999999999" type="line"/>
      <point x="635.1" y="117.72"/>
      <point x="628.7" y="117.16"/>
      <point x="624.34" y="117.16" type="curve" smooth="yes"/>
      <point x="612.12" y="117.16"/>
      <point x="605.62" y="124.52"/>
      <point x="605.62" y="138.22" type="curve" smooth="yes"/>
      <point x="605.62" y="168.46"/>
      <point x="654.38" y="425.48"/>
      <point x="654.38" y="457.34000000000003" type="curve" smooth="yes"/>
      <point x="654.38" y="513.36"/>
      <point x="622.28" y="554.0"/>
      <point x="552.5" y="554.0" type="curve" smooth="yes"/>
      <point x="508.96000000000004" y="554.0"/>
      <point x="467.30000000000007" y="539.86"/>
      <point x="416.26" y="501.30000000000007" type="curve"/>
      <point x="404.24000000000007" y="533.8399999999999"/>
      <point x="376.24" y="554.0"/>
      <point x="329.32" y="554.0" type="curve" smooth="yes"/>
      <point x="289.0" y="554.0"/>
      <point x="246.53999999999996" y="540.1999999999999"/>
      <point x="197.73999999999998" y="505.88" type="curve"/>
      <point x="204.00000000000003" y="544.0" type="line"/>
      <point x="80.28000000000002" y="544.0" type="line"/>
      <point x="-5.759999999999996" y="0.0" type="line"/>
      <point x="130.42" y="0.0" type="line"/>
      <point x="195.23999999999998" y="409.15999999999997" type="line"/>
      <point x="213.51999999999998" y="420.56"/>
      <point x="232.46" y="428.00000000000006"/>
      <point x="249.82" y="428.00000000000006" type="curve" smooth="yes"/>
      <point x="273.96000000000004" y="428.00000000000006"/>
      <point x="283.5" y="413.8"/>
      <point x="283.5" y="393.36000000000007" type="curve" smooth="yes"/>
      <point x="283.5" y="377.58"/>
      <point x="242.06000000000006" y="127.46000000000001"/>
      <point x="221.34" y="0.0" type="curve"/>
      <point x="356.64" y="0.0" type="line"/>
      <point x="373.02000000000004" y="101.66"/>
      <point x="403.54" y="292.88"/>
      <point x="416.98" y="383.14000000000004" type="curve" smooth="yes"/>
      <point x="417.68" y="389.73999999999995"/>
      <point x="419.06" y="401.8"/>
      <point x="419.40000000000003" y="407.32000000000005" type="curve"/>
      <point x="438.0" y="419.82"/>
      <point x="456.6" y="427.58000000000004"/>
      <point x="475.54" y="427.58000000000004" type="curve" smooth="yes"/>
      <point x="500.35999999999996" y="427.58000000000004"/>
      <point x="509.44000000000005" y="413.56"/>
      <point x="509.44000000000005" y="393.32" type="curve" smooth="yes"/>
      <point x="509.44000000000005" y="369.34000000000003"/>
      <point x="462.12" y="116.6"/>
      <point x="462.12" y="75.91999999999999" type="curve" smooth="yes"/>
      <point x="462.12" y="21.639999999999997"/>
      <point x="498.23999999999995" y="-10.0"/>
    </contour>
  </outline>
</glyph>
<glyph name="n" format="2">
  <advance width="451.92"/>
  <unicode hex="006E"/>
  <note>
16
</note>
  <anchor x="193.82" y="0.0" name="bottom"/>
  <anchor x="264.52000000000004" y="544.0" name="top"/>
  <outline>
    <contour>
      <point x="80.28000000000002" y="544.0" type="line"/>
      <point x="-5.759999999999996" y="0.0" type="line"/>
      <point x="130.27999999999997" y="0.0" type="line"/>
      <point x="195.73999999999998" y="407.59999999999997" type="line"/>
      <point x="215.84000000000003" y="419.58"/>
      <point x="238.38" y="428.24"/>
      <point x="258.46" y="428.24" type="curve" smooth="yes"/>
      <point x="284.12" y="428.24"/>
      <point x="293.79999999999995" y="414.54"/>
      <point x="293.79999999999995" y="394.02" type="curve" smooth="yes"/>
      <point x="293.79999999999995" y="363.9"/>
      <point x="246.34" y="118.0"/>
      <point x="246.34" y="71.43999999999998" type="curve" smooth="yes"/>
      <point x="246.34" y="25.560000000000002"/>
      <point x="282.04" y="-10.0"/>
      <point x="338.26000000000005" y="-10.0" type="curve" smooth="yes"/>
      <point x="363.84000000000003" y="-10.0"/>
      <point x="393.54" y="-3.48"/>
      <point x="412.84" y="7.859999999999998" type="curve"/>
      <point x="423.96000000000004" y="119.91999999999999" type="line"/>
      <point x="417.78" y="117.72"/>
      <point x="411.38" y="117.16"/>
      <point x="407.02000000000004" y="117.16" type="curve" smooth="yes"/>
      <point x="394.79999999999995" y="117.16"/>
      <point x="388.72" y="122.89999999999999"/>
      <point x="388.72" y="134.92" type="curve" smooth="yes"/>
      <point x="388.72" y="155.08"/>
      <point x="438.04" y="421.56"/>
      <point x="438.04" y="453.98" type="curve" smooth="yes"/>
      <point x="438.04" y="516.44"/>
      <point x="402.44" y="554.0"/>
      <point x="335.73999999999995" y="554.0" type="curve" smooth="yes"/>
      <point x="290.7" y="554.0"/>
      <point x="244.2" y="539.6"/>
      <point x="197.9" y="505.46" type="curve"/>
      <point x="203.71999999999997" y="544.0" type="line"/>
    </contour>
  </outline>
</glyph>
<glyph name="o" format="2">
  <advance width="442.59999999999997"/>
  <unicode hex="006F"/>
  <note>
8
</note>
  <anchor x="180.3888" y="0.0" name="bottom"/>
  <anchor x="222.2" y="272.59999999999997" name="center"/>
  <anchor x="255.60000000000002" y="0.0" name="ogonek"/>
  <anchor x="256.30000000000007" y="544.0" name="top"/>
  <anchor x="360.3" y="534.6" name="topright"/>
  <outline>
    <contour>
      <point x="195.99999999999997" y="-9.799999999999999" type="curve" smooth="yes"/>
      <point x="360.6" y="-9.799999999999999"/>
      <point x="425.4" y="186.30000000000004"/>
      <point x="425.4" y="375.0" type="curve" smooth="yes"/>
      <point x="425.4" y="497.0"/>
      <point x="366.29999999999995" y="554.5"/>
      <point x="247.90000000000003" y="554.5" type="curve" smooth="yes"/>
      <point x="79.9" y="554.5"/>
      <point x="15.700000000000001" y="354.4"/>
      <point x="15.700000000000001" y="169.0" type="curve" smooth="yes"/>
      <point x="15.700000000000001" y="48.0"/>
      <point x="73.89999999999999" y="-9.799999999999999"/>
    </contour>
    <contour>
      <point x="198.2" y="107.69999999999999" type="curve" smooth="yes"/>
      <point x="168.9" y="107.5"/>
      <point x="150.39999999999998" y="121.9"/>
      <point x="150.0" y="165.7" type="curve" smooth="yes"/>
      <point x="149.2" y="239.00000000000006"/>
      <point x="180.0" y="436.6"/>
      <point x="243.2" y="437.0" type="curve" smooth="yes"/>
      <point x="270.8" y="437.2"/>
      <point x="290.3999999999999" y="423.1"/>
      <point x="290.79999999999995" y="381.4" type="curve" smooth="yes"/>
      <point x="291.5999999999999" y="302.7"/>
      <point x="260.80000000000007" y="108.1"/>
    </contour>
  </outline>
</glyph>
<glyph name="p" format="2">
  <advance width="451.84999999999997"/>
  <unicode hex="0070"/>
  <note>
14 point
</note>
  <outline>
    <contour>
      <point x="-38.379999999999995" y="-210.0" type="line"/>
      <point x="96.92999999999999" y="-210.0" type="line"/>
      <point x="130.10999999999999" y="-1.1599999999999997" type="line"/>
      <point x="147.20999999999998" y="-5.18"/>
      <point x="169.87" y="-8.95"/>
      <point x="198.99000000000004" y="-8.95" type="curve" smooth="yes"/>
      <point x="357.49999999999994" y="-8.95"/>
      <point x="438.15999999999997" y="171.7"/>
      <point x="438.15999999999997" y="373.53000000000003" type="curve" smooth="yes"/>
      <point x="438.15999999999997" y="493.26"/>
      <point x="399.07" y="554.0"/>
      <point x="317.67999999999995" y="554.0" type="curve" smooth="yes"/>
      <point x="269.03" y="554.0"/>
      <point x="235.32" y="532.98"/>
      <point x="204.84999999999997" y="510.45" type="curve"/>
      <point x="204.39999999999998" y="546.4" type="line"/>
      <point x="80.89999999999999" y="546.4" type="line"/>
    </contour>
    <contour>
      <point x="185.97" y="105.00999999999999" type="curve" smooth="yes"/>
      <point x="172.26000000000002" y="105.00999999999999"/>
      <point x="159.39999999999998" y="107.21"/>
      <point x="148.51" y="111.05999999999999" type="curve"/>
      <point x="195.49" y="408.65" type="line"/>
      <point x="211.95000000000002" y="418.84"/>
      <point x="233.19000000000003" y="426.39"/>
      <point x="252.02999999999997" y="426.39" type="curve" smooth="yes"/>
      <point x="283.80000000000007" y="426.39"/>
      <point x="299.46" y="405.05"/>
      <point x="299.46" y="349.82" type="curve" smooth="yes"/>
      <point x="299.46" y="234.54999999999998"/>
      <point x="257.0" y="105.00999999999999"/>
    </contour>
  </outline>
</glyph>
<glyph name="q" format="2">
  <advance width="452.38"/>
  <unicode hex="0071"/>
  <note>
12
</note>
  <outline>
    <contour>
      <point x="454.47" y="527.78" type="line"/>
      <point x="414.03" y="540.11"/>
      <point x="349.25" y="554.0"/>
      <point x="283.75" y="554.0" type="curve" smooth="yes"/>
      <point x="102.33" y="554.0"/>
      <point x="13.14" y="375.78999999999996"/>
      <point x="13.14" y="159.78" type="curve" smooth="yes"/>
      <point x="13.14" y="48.489999999999995"/>
      <point x="58.72" y="-10.0"/>
      <point x="142.48000000000002" y="-10.0" type="curve" smooth="yes"/>
      <point x="177.31000000000003" y="-10.0"/>
      <point x="208.45" y="3.4900000000000007"/>
      <point x="238.05999999999997" y="25.270000000000003" type="curve"/>
      <point x="200.57" y="-210.0" type="line"/>
      <point x="335.9" y="-210.0" type="line"/>
    </contour>
    <contour>
      <point x="302.57" y="430.73" type="curve"/>
      <point x="255.41" y="134.29" type="line"/>
      <point x="237.77999999999997" y="122.43999999999998"/>
      <point x="218.57" y="116.21"/>
      <point x="201.06999999999996" y="116.21" type="curve" smooth="yes"/>
      <point x="171.18" y="116.21"/>
      <point x="152.82000000000002" y="139.88"/>
      <point x="152.82000000000002" y="183.49" type="curve" smooth="yes"/>
      <point x="152.82000000000002" y="291.64"/>
      <point x="190.35" y="437.13"/>
      <point x="263.86" y="437.13" type="curve" smooth="yes"/>
      <point x="278.95" y="437.13"/>
      <point x="291.6000000000001" y="434.34"/>
    </contour>
  </outline>
</glyph>
<glyph name="r" format="2">
  <advance width="314.90000000000003"/>
  <unicode hex="0072"/>
  <anchor x="60.64" y="0.0" name="bottom"/>
  <anchor x="230.5" y="544.0" name="top"/>
  <outline>
    <contour>
      <point x="202.53999999999996" y="544.0" type="line"/>
      <point x="80.56" y="544.0" type="line"/>
      <point x="-5.899999999999997" y="0.0" type="line"/>
      <point x="128.68" y="0.0" type="line"/>
      <point x="189.51999999999998" y="377.88" type="line"/>
      <point x="220.58" y="401.06"/>
      <point x="245.0" y="408.96000000000004"/>
      <point x="269.84000000000003" y="408.96000000000004" type="curve" smooth="yes"/>
      <point x="283.32" y="408.96000000000004"/>
      <point x="301.94" y="406.66"/>
      <point x="318.56000000000006" y="401.6" type="curve"/>
      <point x="361.2" y="544.38" type="line"/>
      <point x="343.88" y="551.72"/>
      <point x="327.09999999999997" y="554.0"/>
      <point x="308.58" y="554.0" type="curve" smooth="yes"/>
      <point x="272.96" y="554.0"/>
      <point x="239.45999999999998" y="535.92"/>
      <point x="194.21999999999997" y="491.66" type="curve"/>
    </contour>
  </outline>
</glyph>
<glyph name="s" format="2">
  <advance width="388.7"/>
  <unicode hex="0073"/>
  <anchor x="155.8" y="0.0" name="bottom"/>
  <anchor x="246.1" y="544.0" name="top"/>
  <outline>
    <contour>
      <point x="-21.9" y="23.999999999999996" type="line"/>
      <point x="22.8" y="3.6999999999999993"/>
      <point x="75.0" y="-10.0"/>
      <point x="149.7" y="-10.0" type="curve" smooth="yes"/>
      <point x="277.0" y="-10.0"/>
      <point x="358.4" y="45.5"/>
      <point x="358.4" y="176.20000000000002" type="curve" smooth="yes"/>
      <point x="358.4" y="347.59999999999997"/>
      <point x="158.2" y="312.29999999999995"/>
      <point x="158.2" y="390.40000000000003" type="curve" smooth="yes"/>
      <point x="158.2" y="419.5"/>
      <point x="181.79999999999998" y="435.09999999999997"/>
      <point x="238.2" y="435.09999999999997" type="curve" smooth="yes"/>
      <point x="276.2" y="435.09999999999997"/>
      <point x="321.09999999999997" y="425.40000000000003"/>
      <point x="357.2" y="411.8" type="curve"/>
      <point x="390.59999999999997" y="527.2" type="line"/>
      <point x="357.2" y="542.5999999999999"/>
      <point x="303.4" y="554.0"/>
      <point x="246.7" y="554.0" type="curve" smooth="yes"/>
      <point x="101.5" y="554.0"/>
      <point x="35.900000000000006" y="477.2"/>
      <point x="35.900000000000006" y="374.4" type="curve" smooth="yes"/>
      <point x="35.900000000000006" y="202.79999999999998"/>
      <point x="236.5" y="233.6"/>
      <point x="236.5" y="152.9" type="curve" smooth="yes"/>
      <point x="236.5" y="124.19999999999999"/>
      <point x="211.7" y="106.3"/>
      <point x="153.59999999999997" y="106.3" type="curve" smooth="yes"/>
      <point x="106.3" y="106.3"/>
      <point x="50.599999999999994" y="119.89999999999998"/>
      <point x="14.899999999999999" y="136.0" type="curve"/>
    </contour>
  </outline>
</glyph>
<glyph name="t" format="2">
  <advance width="297.32"/>
  <unicode hex="0074"/>
  <anchor x="134.4" y="0.0" name="bottom"/>
  <anchor x="145.28" y="288.91999999999996" name="center"/>
  <anchor x="193.29999999999998" y="658.8399999999999" name="top"/>
  <anchor x="325.22" y="764.3" name="topright"/>
  <outline>
    <contour>
      <point x="260.42" y="125.3" type="line"/>
      <point x="241.36" y="120.67999999999999"/>
      <point x="227.2" y="117.64"/>
      <point x="214.11999999999998" y="117.64" type="curve" smooth="yes"/>
      <point x="184.11999999999998" y="117.64"/>
      <point x="173.26" y="133.57999999999998"/>
      <point x="173.26" y="159.83999999999997" type="curve" smooth="yes"/>
      <point x="173.26" y="168.24"/>
      <point x="174.35999999999999" y="177.5"/>
      <point x="175.71999999999997" y="188.18" type="curve" smooth="yes"/>
      <point x="214.98" y="429.36" type="line"/>
      <point x="310.54" y="429.36" type="line"/>
      <point x="330.34" y="544.0" type="line"/>
      <point x="234.35999999999999" y="544.0" type="line"/>
      <point x="252.34" y="658.8399999999999" type="line"/>
      <point x="134.78000000000003" y="658.8399999999999" type="line"/>
      <point x="99.44" y="544.0" type="line"/>
      <point x="43.38" y="536.04" type="line"/>
      <point x="24.8" y="429.91999999999996" type="line"/>
      <point x="79.22" y="429.91999999999996" type="line"/>
      <point x="38.42" y="175.16" type="line" smooth="yes"/>
      <point x="34.02" y="148.44"/>
      <point x="30.580000000000005" y="115.0"/>
      <point x="30.580000000000005" y="94.74" type="curve" smooth="yes"/>
      <point x="30.580000000000005" y="14.080000000000002"/>
      <point x="79.80000000000001" y="-10.0"/>
      <point x="138.08" y="-10.0" type="curve" smooth="yes"/>
      <point x="178.08" y="-10.0"/>
      <point x="214.48000000000002" y="-2.560000000000001"/>
      <point x="249.8" y="12.62" type="curve"/>
    </contour>
  </outline>
</glyph>
<glyph name="u" format="2">
  <advance width="449.8"/>
  <unicode hex="0075"/>
  <note>
15
</note>
  <anchor x="183.82000000000002" y="0.0" name="bottom"/>
  <anchor x="409.4" y="12.04" name="ogonek"/>
  <anchor x="264.47136" y="544.0" name="top"/>
  <anchor x="432.36" y="544.0" name="topright"/>
  <outline>
    <contour>
      <point x="117.02000000000001" y="-10.0" type="curve" smooth="yes"/>
      <point x="163.82" y="-10.0"/>
      <point x="203.56" y="8.0"/>
      <point x="248.83999999999997" y="45.42" type="curve"/>
      <point x="259.21999999999997" y="12.819999999999999"/>
      <point x="290.1" y="-10.0"/>
      <point x="331.53999999999996" y="-10.0" type="curve" smooth="yes"/>
      <point x="357.46" y="-10.0"/>
      <point x="389.3" y="-1.020000000000001"/>
      <point x="409.4" y="13.58" type="curve"/>
      <point x="420.06" y="119.6" type="line"/>
      <point x="412.84" y="116.97999999999999"/>
      <point x="405.86" y="116.07999999999998"/>
      <point x="402.22" y="116.07999999999998" type="curve" smooth="yes"/>
      <point x="390.54" y="116.07999999999998"/>
      <point x="385.24" y="123.25999999999999"/>
      <point x="385.24" y="137.92" type="curve" smooth="yes"/>
      <point x="385.24" y="144.76000000000002"/>
      <point x="386.72" y="157.19999999999996"/>
      <point x="449.16" y="544.0" type="curve"/>
      <point x="314.46" y="544.0" type="line"/>
      <point x="249.08000000000004" y="135.15999999999997" type="line"/>
      <point x="228.1" y="121.85999999999999"/>
      <point x="207.95999999999998" y="114.36"/>
      <point x="186.67999999999998" y="114.36" type="curve" smooth="yes"/>
      <point x="163.72" y="114.36"/>
      <point x="151.58" y="128.29999999999998"/>
      <point x="152.7" y="150.50000000000003" type="curve" smooth="yes"/>
      <point x="162.78" y="223.58"/>
      <point x="176.79999999999998" y="310.28"/>
      <point x="214.22" y="544.0" type="curve"/>
      <point x="79.02000000000001" y="544.0" type="line"/>
      <point x="30.6" y="239.92"/>
      <point x="10.080000000000002" y="138.52"/>
      <point x="10.080000000000002" y="88.8" type="curve" smooth="yes"/>
      <point x="10.080000000000002" y="30.48"/>
      <point x="46.78000000000001" y="-10.0"/>
    </contour>
  </outline>
</glyph>
<glyph name="v" format="2">
  <advance width="415.28000000000003"/>
  <unicode hex="0076"/>
  <outline>
    <contour>
      <point x="239.46" y="-0.7600000000000001" type="line"/>
      <point x="355.67999999999995" y="236.56"/>
      <point x="433.02000000000004" y="384.3"/>
      <point x="440.94" y="544.0" type="curve"/>
      <point x="299.8" y="544.0" type="line"/>
      <point x="296.78000000000003" y="421.62"/>
      <point x="258.16" y="324.28000000000003"/>
      <point x="176.74" y="127.8" type="curve"/>
      <point x="182.51999999999998" y="544.6" type="line"/>
      <point x="38.58" y="544.08" type="line"/>
      <point x="70.4" y="-0.7600000000000001" type="line"/>
    </contour>
  </outline>
</glyph>
<glyph name="w" format="2">
  <advance width="632.36"/>
  <unicode hex="0077"/>
  <note>
15
</note>
  <anchor x="275.08" y="0.0" name="bottom"/>
  <anchor x="343.5" y="544.0" name="top"/>
  <outline>
    <contour>
      <point x="471.04" y="0.0" type="line"/>
      <point x="587.76" y="257.72"/>
      <point x="651.4999999999999" y="397.78"/>
      <point x="654.02" y="544.0" type="curve"/>
      <point x="522.0400000000001" y="544.0" type="line"/>
      <point x="515.84" y="422.86"/>
      <point x="486.58000000000004" y="325.50000000000006"/>
      <point x="409.96" y="130.98" type="curve"/>
      <point x="428.82000000000005" y="530.04" type="line"/>
      <point x="276.84000000000003" y="530.04" type="line"/>
      <point x="237.04" y="391.04"/>
      <point x="197.28" y="263.56"/>
      <point x="155.88" y="130.52" type="curve"/>
      <point x="177.52" y="544.6" type="line"/>
      <point x="39.76" y="544.14" type="line"/>
      <point x="47.620000000000005" y="0.0" type="line"/>
      <point x="215.36" y="0.0" type="line"/>
      <point x="251.51999999999998" y="111.8"/>
      <point x="289.42" y="232.26000000000002"/>
      <point x="322.06" y="341.34000000000003" type="curve"/>
      <point x="312.9" y="0.0" type="line"/>
    </contour>
  </outline>
</glyph>
<glyph name="x" format="2">
  <advance width="441.62000000000006"/>
  <unicode hex="0078"/>
  <outline>
    <contour>
      <point x="323.96999999999997" y="544.0" type="line"/>
      <point x="317.54999999999995" y="471.54999999999995"/>
      <point x="293.40999999999997" y="420.94"/>
      <point x="239.01999999999998" y="345.19" type="curve"/>
      <point x="208.53" y="546.44" type="line"/>
      <point x="58.480000000000004" y="543.86" type="line"/>
      <point x="123.31" y="280.96999999999997" type="line"/>
      <point x="45.589999999999996" y="191.17"/>
      <point x="-7.549999999999998" y="101.12"/>
      <point x="-22.200000000000003" y="0.0" type="curve"/>
      <point x="124.39999999999999" y="0.0" type="line"/>
      <point x="136.14" y="79.89999999999999"/>
      <point x="169.22000000000003" y="142.89"/>
      <point x="213.39999999999998" y="204.4" type="curve"/>
      <point x="246.57000000000002" y="-1.06" type="line"/>
      <point x="398.55" y="0.5900000000000001" type="line"/>
      <point x="328.09" y="270.65" type="line"/>
      <point x="416.62" y="375.37"/>
      <point x="456.77" y="481.56"/>
      <point x="466.99" y="544.0" type="curve"/>
    </contour>
  </outline>
</glyph>
<glyph name="y" format="2">
  <advance width="422.09999999999997"/>
  <unicode hex="0079"/>
  <anchor x="235.89999999999998" y="-126.00000000000001" name="bottom"/>
  <anchor x="244.7" y="544.0" name="top"/>
  <outline>
    <contour>
      <point x="320.19999999999993" y="545.6" type="line"/>
      <point x="311.70000000000005" y="409.20000000000005"/>
      <point x="254.89999999999998" y="267.8"/>
      <point x="189.4" y="119.69999999999999" type="curve"/>
      <point x="168.79999999999998" y="547.0" type="line"/>
      <point x="37.0" y="545.6999999999999" type="line"/>
      <point x="83.6" y="-1.4" type="line"/>
      <point x="126.70000000000002" y="-1.4" type="line"/>
      <point x="95.6" y="-66.5"/>
      <point x="57.4" y="-131.0"/>
      <point x="8.399999999999999" y="-209.3" type="curve"/>
      <point x="138.2" y="-213.0" type="line"/>
      <point x="292.20000000000005" y="73.29999999999998"/>
      <point x="429.5" y="325.9"/>
      <point x="450.29999999999995" y="545.1" type="curve"/>
    </contour>
  </outline>
</glyph>
<glyph name="z" format="2">
  <advance width="404.14"/>
  <unicode hex="007A"/>
  <anchor x="169.01999999999998" y="0.0" name="bottom"/>
  <anchor x="201.04000000000002" y="275.0" name="center"/>
  <anchor x="246.32" y="544.0" name="top"/>
  <outline>
    <contour>
      <point x="-15.4" y="0.0" type="line"/>
      <point x="346.12" y="0.0" type="line"/>
      <point x="364.66" y="117.89999999999999" type="line"/>
      <point x="160.56" y="117.89999999999999" type="line"/>
      <point x="396.88" y="430.94" type="line"/>
      <point x="418.84" y="544.0" type="line"/>
      <point x="74.96" y="544.0" type="line"/>
      <point x="55.720000000000006" y="424.97999999999996" type="line"/>
      <point x="242.46" y="424.97999999999996" type="line"/>
      <point x="0.8800000000000001" y="105.49999999999999" type="line"/>
    </contour>
  </outline>
</glyph>
<glyph name="braceleft" format="2">
  <advance width="275.84000000000003"/>
  <unicode hex="007B"/>
  <outline>
    <contour>
      <point x="8.200000000000003" y="-94.10000000000001" type="curve" smooth="yes"/>
      <point x="8.200000000000003" y="-173.8"/>
      <point x="50.32" y="-210.0"/>
      <point x="110.26" y="-210.0" type="curve" smooth="yes"/>
      <point x="176.76000000000002" y="-210.0" type="line"/>
      <point x="195.72" y="-99.0" type="line"/>
      <point x="166.04000000000002" y="-99.0" type="line" smooth="yes"/>
      <point x="140.42" y="-99.0"/>
      <point x="129.78" y="-81.9"/>
      <point x="129.78" y="-54.28" type="curve" smooth="yes"/>
      <point x="129.78" y="27.68"/>
      <point x="188.49999999999997" y="96.06"/>
      <point x="188.49999999999997" y="177.48" type="curve" smooth="yes"/>
      <point x="188.49999999999997" y="212.4"/>
      <point x="178.72" y="244.48000000000002"/>
      <point x="148.72" y="267.09999999999997" type="curve"/>
      <point x="203.42" y="298.47999999999996"/>
      <point x="229.3" y="362.94"/>
      <point x="229.3" y="427.1" type="curve" smooth="yes"/>
      <point x="229.3" y="461.50000000000006"/>
      <point x="224.24" y="486.82000000000005"/>
      <point x="224.24" y="526.8000000000001" type="curve" smooth="yes"/>
      <point x="224.24" y="572.1600000000001"/>
      <point x="237.59999999999997" y="629.0"/>
      <point x="285.20000000000005" y="629.0" type="curve" smooth="yes"/>
      <point x="312.8" y="629.0" type="line"/>
      <point x="330.64" y="740.0" type="line"/>
      <point x="265.34000000000003" y="740.0" type="line" smooth="yes"/>
      <point x="150.4" y="740.0"/>
      <point x="107.5" y="630.16"/>
      <point x="107.5" y="519.4599999999999" type="curve" smooth="yes"/>
      <point x="107.5" y="476.56"/>
      <point x="114.1" y="448.02"/>
      <point x="114.1" y="414.52" type="curve" smooth="yes"/>
      <point x="114.1" y="372.99999999999994"/>
      <point x="105.33999999999999" y="324.94000000000005"/>
      <point x="68.52" y="324.94000000000005" type="curve" smooth="yes"/>
      <point x="54.239999999999995" y="324.94000000000005" type="line"/>
      <point x="35.84" y="209.48000000000002" type="line"/>
      <point x="49.70000000000001" y="209.48000000000002" type="line" smooth="yes"/>
      <point x="70.08000000000001" y="209.48000000000002"/>
      <point x="76.46000000000001" y="196.44000000000003"/>
      <point x="76.46000000000001" y="175.8" type="curve" smooth="yes"/>
      <point x="76.46000000000001" y="99.84"/>
      <point x="8.200000000000003" y="13.2"/>
    </contour>
  </outline>
</glyph>
<glyph name="bar" format="2">
  <advance width="182.43999999999997"/>
  <unicode hex="007C"/>
  <outline>
    <contour>
      <point x="230.1" y="790.5600000000001" type="line"/>
      <point x="116.20000000000002" y="790.5600000000001" type="line"/>
      <point x="-43.22" y="-210.0" type="line"/>
      <point x="71.1" y="-210.0" type="line"/>
    </contour>
  </outline>
</glyph>
<glyph name="braceright" format="2">
  <advance width="275.84000000000003"/>
  <unicode hex="007D"/>
  <outline>
    <contour>
      <point x="264.58" y="624.1" type="curve" smooth="yes"/>
      <point x="264.58" y="704.36"/>
      <point x="221.9" y="740.5600000000001"/>
      <point x="161.95999999999998" y="740.5600000000001" type="curve" smooth="yes"/>
      <point x="95.46" y="740.5600000000001" type="line"/>
      <point x="76.5" y="629.5600000000001" type="line"/>
      <point x="100.58000000000001" y="629.5600000000001" type="line" smooth="yes"/>
      <point x="126.76000000000002" y="629.5600000000001"/>
      <point x="137.95999999999998" y="611.9000000000001"/>
      <point x="137.95999999999998" y="584.28" type="curve" smooth="yes"/>
      <point x="137.95999999999998" y="501.2"/>
      <point x="79.24" y="446.18"/>
      <point x="79.24" y="352.99999999999994" type="curve" smooth="yes"/>
      <point x="79.24" y="319.76"/>
      <point x="88.46000000000001" y="287.68"/>
      <point x="119.58" y="265.62" type="curve"/>
      <point x="64.88000000000001" y="233.68"/>
      <point x="38.440000000000005" y="170.34"/>
      <point x="38.440000000000005" y="105.62" type="curve" smooth="yes"/>
      <point x="38.440000000000005" y="71.21999999999998"/>
      <point x="43.50000000000001" y="43.739999999999995"/>
      <point x="43.50000000000001" y="4.879999999999995" type="curve" smooth="yes"/>
      <point x="43.50000000000001" y="-40.48000000000001"/>
      <point x="30.700000000000003" y="-98.44"/>
      <point x="-16.900000000000002" y="-98.44" type="curve" smooth="yes"/>
      <point x="-40.02" y="-98.44" type="line"/>
      <point x="-57.86" y="-210.0" type="line"/>
      <point x="6.879999999999998" y="-210.0" type="line" smooth="yes"/>
      <point x="121.82" y="-210.0"/>
      <point x="164.72" y="-92.88000000000001"/>
      <point x="164.72" y="-0.10000000000000142" type="curve" smooth="yes"/>
      <point x="164.72" y="57.92"/>
      <point x="158.12" y="90.86000000000001"/>
      <point x="158.12" y="120.44" type="curve" smooth="yes"/>
      <point x="158.12" y="160.84"/>
      <point x="168.0" y="207.78000000000003"/>
      <point x="203.70000000000002" y="207.78000000000003" type="curve" smooth="yes"/>
      <point x="217.98" y="207.78000000000003" type="line"/>
      <point x="236.38" y="322.67999999999995" type="line"/>
      <point x="222.52" y="322.67999999999995" type="line" smooth="yes"/>
      <point x="202.14" y="322.67999999999995"/>
      <point x="195.75999999999996" y="335.71999999999997"/>
      <point x="195.75999999999996" y="356.36" type="curve" smooth="yes"/>
      <point x="195.75999999999996" y="432.88"/>
      <point x="264.58" y="508.96"/>
    </contour>
  </outline>
</glyph>
<glyph name="asciitilde" format="2">
  <advance width="435.98"/>
  <unicode hex="007E"/>
  <outline>
    <contour>
      <point x="375.36" y="239.70000000000002" type="curve"/>
      <point x="394.2" y="363.34000000000003" type="line"/>
      <point x="367.91999999999996" y="338.40000000000003"/>
      <point x="342.94" y="328.12"/>
      <point x="314.26" y="328.12" type="curve" smooth="yes"/>
      <point x="242.0" y="328.12"/>
      <point x="220.14" y="410.6"/>
      <point x="154.0" y="410.6" type="curve" smooth="yes"/>
      <point x="115.7" y="410.6"/>
      <point x="82.67999999999999" y="389.06"/>
      <point x="72.24000000000001" y="377.5" type="curve"/>
      <point x="52.7" y="253.8" type="line"/>
      <point x="67.56" y="268.2"/>
      <point x="98.44" y="287.84000000000003"/>
      <point x="134.4" y="287.84000000000003" type="curve" smooth="yes"/>
      <point x="203.84" y="287.84000000000003"/>
      <point x="225.04" y="205.35999999999999"/>
      <point x="297.42" y="205.35999999999999" type="curve" smooth="yes"/>
      <point x="324.36" y="205.35999999999999"/>
      <point x="350.66" y="216.04000000000002"/>
    </contour>
  </outline>
</glyph>
<glyph name="cent" format="2">
  <advance width="504.23999999999995"/>
  <unicode hex="00A2"/>
  <outline>
    <contour>
      <point x="160.98" y="-105.42" type="line"/>
      <point x="273.76" y="-105.42" type="line"/>
      <point x="289.46000000000004" y="-5.32" type="line"/>
      <point x="326.06" y="-2.2600000000000007"/>
      <point x="359.38" y="3.9399999999999995"/>
      <point x="383.92" y="13.28" type="curve"/>
      <point x="382.9" y="142.01999999999998" type="line"/>
      <point x="351.00000000000006" y="135.28"/>
      <point x="321.48" y="129.62"/>
      <point x="296.9" y="129.62" type="curve" smooth="yes"/>
      <point x="245.36" y="129.62"/>
      <point x="225.07999999999998" y="161.8"/>
      <point x="225.07999999999998" y="209.89999999999998" type="curve" smooth="yes"/>
      <point x="225.07999999999998" y="313.12"/>
      <point x="266.44" y="412.64"/>
      <point x="340.26000000000005" y="412.64" type="curve" smooth="yes"/>
      <point x="366.86" y="412.64"/>
      <point x="388.64" y="408.76"/>
      <point x="417.08000000000004" y="400.84" type="curve"/>
      <point x="459.16" y="535.7200000000001" type="line"/>
      <point x="435.0" y="543.08"/>
      <point x="410.98" y="548.7599999999999"/>
      <point x="379.16" y="550.96" type="curve"/>
      <point x="395.24" y="648.4399999999999" type="line"/>
      <point x="282.46" y="648.4399999999999" type="line"/>
      <point x="264.84000000000003" y="540.4" type="line"/>
      <point x="141.18" y="493.68000000000006"/>
      <point x="80.64" y="318.78000000000003"/>
      <point x="80.64" y="159.5" type="curve" smooth="yes"/>
      <point x="80.64" y="65.91999999999999"/>
      <point x="117.46000000000001" y="18.759999999999998"/>
      <point x="177.22000000000003" y="1.2199999999999993" type="curve"/>
    </contour>
  </outline>
</glyph>
<glyph name="sterling" format="2">
  <advance width="504.59999999999997"/>
  <unicode hex="00A3"/>
  <outline>
    <contour>
      <point x="33.720000000000006" y="0.0" type="line"/>
      <point x="392.92" y="0.0" type="line"/>
      <point x="412.02" y="122.5" type="line"/>
      <point x="212.51999999999998" y="122.5" type="line"/>
      <point x="256.24" y="171.84"/>
      <point x="285.71999999999997" y="222.68"/>
      <point x="285.71999999999997" y="296.09999999999997" type="curve" smooth="yes"/>
      <point x="285.71999999999997" y="343.68"/>
      <point x="267.56000000000006" y="399.80000000000007"/>
      <point x="267.56000000000006" y="448.53999999999996" type="curve" smooth="yes"/>
      <point x="267.56000000000006" y="537.0799999999999"/>
      <point x="313.72" y="575.9"/>
      <point x="372.68" y="575.9" type="curve" smooth="yes"/>
      <point x="403.3999999999999" y="575.9"/>
      <point x="429.24" y="572.0799999999999"/>
      <point x="459.34" y="559.88" type="curve"/>
      <point x="498.82" y="678.2800000000001" type="line"/>
      <point x="459.13999999999993" y="699.4999999999998"/>
      <point x="414.08" y="710.0"/>
      <point x="364.34" y="710.0" type="curve" smooth="yes"/>
      <point x="227.46" y="710.0"/>
      <point x="135.48" y="603.5600000000001"/>
      <point x="135.48" y="468.86" type="curve" smooth="yes"/>
      <point x="135.48" y="396.14000000000004"/>
      <point x="159.10000000000002" y="343.46"/>
      <point x="159.10000000000002" y="283.47999999999996" type="curve" smooth="yes"/>
      <point x="159.10000000000002" y="203.38"/>
      <point x="109.1" y="144.02"/>
      <point x="47.48" y="94.5" type="curve"/>
    </contour>
    <contour>
      <point x="75.04" y="313.84" type="line"/>
      <point x="396.86000000000007" y="313.84000000000003" type="line"/>
      <point x="409.37999999999994" y="397.44000000000005" type="line"/>
      <point x="87.78" y="397.44000000000005" type="line"/>
    </contour>
  </outline>
</glyph>
<glyph name="currency" format="2">
  <advance width="410.46"/>
  <unicode hex="00A4"/>
  <outline>
    <contour>
      <point x="79.19999999999999" y="99.84" type="line"/>
      <point x="145.35999999999999" y="162.52" type="line"/>
      <point x="156.54" y="155.12"/>
      <point x="170.83999999999997" y="151.67999999999998"/>
      <point x="187.26" y="151.67999999999998" type="curve" smooth="yes"/>
      <point x="202.78" y="151.67999999999998"/>
      <point x="217.92000000000002" y="155.17999999999998"/>
      <point x="231.56" y="162.1" type="curve"/>
      <point x="278.88" y="99.84" type="line"/>
      <point x="367.14" y="183.56" type="line"/>
      <point x="326.5" y="237.42000000000002" type="line"/>
      <point x="339.86" y="257.64"/>
      <point x="348.62" y="281.76"/>
      <point x="349.74" y="307.46" type="curve" smooth="yes"/>
      <point x="350.86" y="322.58000000000004"/>
      <point x="348.92" y="337.47999999999996"/>
      <point x="344.92" y="351.22" type="curve"/>
      <point x="402.46000000000004" y="405.08" type="line"/>
      <point x="340.70000000000005" y="488.8" type="line"/>
      <point x="275.32" y="428.21999999999997" type="line"/>
      <point x="263.68" y="435.2"/>
      <point x="249.12" y="439.5"/>
      <point x="232.9" y="439.5" type="curve" smooth="yes"/>
      <point x="215.92" y="439.5"/>
      <point x="199.86" y="434.64"/>
      <point x="185.38" y="427.8" type="curve"/>
      <point x="140.88" y="488.8" type="line"/>
      <point x="51.98" y="405.08" type="line"/>
      <point x="92.82000000000002" y="349.36" type="line"/>
      <point x="80.24000000000001" y="330.64"/>
      <point x="72.34" y="308.16"/>
      <point x="71.22" y="284.2" type="curve" smooth="yes"/>
      <point x="70.1" y="268.3"/>
      <point x="71.48" y="252.74"/>
      <point x="75.62" y="239.22" type="curve"/>
      <point x="16.52" y="183.56" type="line"/>
    </contour>
    <contour>
      <point x="201.89999999999998" y="240.28" type="curve" smooth="yes"/>
      <point x="175.14" y="240.28"/>
      <point x="158.43999999999997" y="259.42"/>
      <point x="160.12" y="288.02" type="curve" smooth="yes"/>
      <point x="161.8" y="322.3"/>
      <point x="188.42" y="350.34"/>
      <point x="218.98" y="350.34" type="curve" smooth="yes"/>
      <point x="246.12" y="350.34"/>
      <point x="262.02000000000004" y="329.29999999999995"/>
      <point x="260.34000000000003" y="301.78000000000003" type="curve" smooth="yes"/>
      <point x="258.66" y="266.2"/>
      <point x="232.54" y="240.28"/>
    </contour>
  </outline>
</glyph>
<glyph name="yen" format="2">
  <advance width="517.0"/>
  <unicode hex="00A5"/>
  <outline>
    <contour>
      <point x="79.9" y="303.6" type="line"/>
      <point x="199.6" y="303.6" type="line"/>
      <point x="192.0" y="255.5" type="line"/>
      <point x="72.7" y="255.5" type="line"/>
      <point x="60.5" y="178.6" type="line"/>
      <point x="180.1" y="178.6" type="line"/>
      <point x="151.6" y="0.0" type="line"/>
      <point x="279.7" y="0.0" type="line"/>
      <point x="308.9" y="178.6" type="line"/>
      <point x="429.5" y="178.6" type="line"/>
      <point x="441.09999999999997" y="255.5" type="line"/>
      <point x="320.1" y="255.5" type="line"/>
      <point x="327.69999999999993" y="303.6" type="line"/>
      <point x="449.09999999999997" y="303.6" type="line"/>
      <point x="461.0" y="380.1" type="line"/>
      <point x="340.4" y="380.1" type="line"/>
      <point x="542.8" y="699.6" type="line"/>
      <point x="406.9" y="702.4" type="line"/>
      <point x="290.0" y="468.59999999999997" type="line"/>
      <point x="245.49999999999997" y="701.3000000000001" type="line"/>
      <point x="108.7" y="699.1" type="line"/>
      <point x="211.9" y="380.1" type="line"/>
      <point x="92.10000000000001" y="380.1" type="line"/>
    </contour>
  </outline>
</glyph>
<glyph name="brokenbar" format="2">
  <advance width="185.48"/>
  <unicode hex="00A6"/>
  <outline>
    <contour>
      <point x="168.2" y="391.0" type="line"/>
      <point x="233.45999999999998" y="790.5600000000001" type="line"/>
      <point x="119.56" y="790.5600000000001" type="line"/>
      <point x="54.300000000000004" y="391.0" type="line"/>
    </contour>
    <contour>
      <point x="21.480000000000004" y="190.56" type="line"/>
      <point x="-42.97999999999999" y="-210.0" type="line"/>
      <point x="70.78" y="-210.0" type="line"/>
      <point x="135.79999999999998" y="190.56" type="line"/>
    </contour>
  </outline>
</glyph>
<glyph name="section" format="2">
  <advance width="443.88"/>
  <unicode hex="00A7"/>
  <outline>
    <contour>
      <point x="12.159999999999998" y="-45.56" type="curve"/>
      <point x="-38.26" y="-182.66" type="line"/>
      <point x="0.7200000000000006" y="-206.14"/>
      <point x="60.660000000000004" y="-220.0"/>
      <point x="100.5" y="-220.0" type="curve" smooth="yes"/>
      <point x="283.5" y="-220.0"/>
      <point x="395.26" y="-31.720000000000002"/>
      <point x="395.26" y="152.88" type="curve" smooth="yes"/>
      <point x="395.26" y="294.66"/>
      <point x="313.22" y="396.59999999999997"/>
      <point x="313.22" y="511.4200000000001" type="curve" smooth="yes"/>
      <point x="313.22" y="561.68"/>
      <point x="336.42" y="600.74"/>
      <point x="375.72" y="600.74" type="curve" smooth="yes"/>
      <point x="388.74" y="600.74"/>
      <point x="398.08000000000004" y="596.1600000000001"/>
      <point x="412.14" y="589.0" type="curve"/>
      <point x="461.20000000000005" y="727.5799999999999" type="line"/>
      <point x="433.44" y="742.54"/>
      <point x="382.21999999999997" y="749.5600000000001"/>
      <point x="350.46" y="749.5600000000001" type="curve" smooth="yes"/>
      <point x="153.56" y="749.5600000000001"/>
      <point x="49.540000000000006" y="574.38"/>
      <point x="49.540000000000006" y="386.6" type="curve" smooth="yes"/>
      <point x="49.540000000000006" y="225.79999999999998"/>
      <point x="131.74" y="102.02"/>
      <point x="131.74" y="-2.3200000000000087" type="curve" smooth="yes"/>
      <point x="131.74" y="-39.36"/>
      <point x="112.2" y="-72.42"/>
      <point x="77.92" y="-72.42" type="curve" smooth="yes"/>
      <point x="55.88" y="-72.42"/>
      <point x="32.78" y="-63.60000000000001"/>
    </contour>
    <contour>
      <point x="293.32" y="661.12" type="curve"/>
      <point x="237.54" y="619.56"/>
      <point x="217.54000000000002" y="552.5799999999999"/>
      <point x="217.54000000000002" y="492.58000000000004" type="curve" smooth="yes"/>
      <point x="217.54000000000002" y="366.06"/>
      <point x="293.82" y="252.5"/>
      <point x="293.82" y="126.17999999999999" type="curve" smooth="yes"/>
      <point x="293.82" y="5.239999999999995"/>
      <point x="229.92" y="-130.14"/>
      <point x="120.88" y="-139.46" type="curve"/>
      <point x="198.14" y="-109.7"/>
      <point x="228.98000000000002" y="-33.78000000000001"/>
      <point x="228.98000000000002" y="36.139999999999986" type="curve" smooth="yes"/>
      <point x="228.98000000000002" y="156.01999999999998"/>
      <point x="152.32" y="273.9"/>
      <point x="152.32" y="401.3" type="curve" smooth="yes"/>
      <point x="152.32" y="514.8399999999999"/>
      <point x="196.94" y="627.1999999999999"/>
    </contour>
  </outline>
</glyph>
<glyph name="copyright" format="2">
  <advance width="642.88"/>
  <unicode hex="00A9"/>
  <outline>
    <contour>
      <point x="299.66" y="-10.200000000000001" type="curve" smooth="yes"/>
      <point x="518.84" y="-10.68"/>
      <point x="618.74" y="189.14"/>
      <point x="618.74" y="424.21999999999997" type="curve" smooth="yes"/>
      <point x="618.74" y="602.62"/>
      <point x="536.0400000000001" y="709.54"/>
      <point x="368.23999999999995" y="710.0199999999999" type="curve" smooth="yes"/>
      <point x="149.6" y="710.5"/>
      <point x="47.580000000000005" y="512.12"/>
      <point x="47.580000000000005" y="275.8" type="curve" smooth="yes"/>
      <point x="47.580000000000005" y="97.84"/>
      <point x="130.2" y="-9.72"/>
    </contour>
    <contour>
      <point x="319.74" y="137.16" type="curve" smooth="yes"/>
      <point x="350.06" y="137.16"/>
      <point x="384.21999999999997" y="144.28"/>
      <point x="406.06" y="154.82000000000002" type="curve"/>
      <point x="403.58" y="229.58" type="line"/>
      <point x="386.32" y="223.76"/>
      <point x="364.46" y="219.92"/>
      <point x="347.06" y="219.92" type="curve" smooth="yes"/>
      <point x="311.99999999999994" y="219.92"/>
      <point x="291.38" y="247.17999999999998"/>
      <point x="291.38" y="294.26000000000005" type="curve" smooth="yes"/>
      <point x="291.38" y="385.88"/>
      <point x="326.05999999999995" y="470.02"/>
      <point x="380.74000000000007" y="470.02" type="curve" smooth="yes"/>
      <point x="398.44" y="470.02"/>
      <point x="413.8" y="467.96000000000004"/>
      <point x="430.38" y="462.3" type="curve"/>
      <point x="455.18" y="547.4800000000001" type="line"/>
      <point x="437.92" y="554.74"/>
      <point x="414.0" y="560.1400000000001"/>
      <point x="381.46000000000004" y="560.1400000000001" type="curve" smooth="yes"/>
      <point x="284.74000000000007" y="560.1400000000001"/>
      <point x="200.14" y="451.1"/>
      <point x="200.14" y="292.64000000000004" type="curve" smooth="yes"/>
      <point x="200.14" y="188.94"/>
      <point x="244.54" y="137.16"/>
    </contour>
    <contour>
      <point x="304.98" y="38.58" type="curve" smooth="yes"/>
      <point x="165.7" y="38.58"/>
      <point x="100.26" y="124.0"/>
      <point x="100.26" y="277.6" type="curve" smooth="yes"/>
      <point x="100.26" y="479.58000000000004"/>
      <point x="175.64" y="661.36"/>
      <point x="362.90000000000003" y="661.36" type="curve" smooth="yes"/>
      <point x="499.78" y="661.36"/>
      <point x="566.06" y="575.82"/>
      <point x="566.06" y="422.7" type="curve" smooth="yes"/>
      <point x="566.06" y="221.12"/>
      <point x="491.84000000000003" y="38.58"/>
    </contour>
  </outline>
</glyph>
<glyph name="ordfeminine" format="2">
  <advance width="315.15999999999997"/>
  <unicode hex="00AA"/>
  <outline>
    <contour>
      <point x="26.78" y="247.74" type="line"/>
      <point x="280.7" y="247.74" type="line"/>
      <point x="291.82" y="319.72" type="line"/>
      <point x="37.9" y="319.72" type="line"/>
    </contour>
    <component base="a.superior" xOffset="9.08"/>
  </outline>
</glyph>
<glyph name="logicalnot" format="2">
  <advance width="432.6"/>
  <unicode hex="00AC"/>
  <outline>
    <contour>
      <point x="52.94" y="321.34000000000003" type="line"/>
      <point x="275.2" y="321.34000000000003" type="line"/>
      <point x="253.04" y="174.62" type="line"/>
      <point x="370.82000000000005" y="174.62" type="line"/>
      <point x="412.64" y="439.44000000000005" type="line"/>
      <point x="72.60000000000001" y="439.44000000000005" type="line"/>
    </contour>
  </outline>
</glyph>
<glyph name="registered" format="2">
  <advance width="578.68"/>
  <unicode hex="00AE"/>
  <outline>
    <contour>
      <point x="289.44" y="208.52" type="curve" smooth="yes"/>
      <point x="471.76" y="208.52"/>
      <point x="588.88" y="387.68"/>
      <point x="588.88" y="636.68" type="curve" smooth="yes"/>
      <point x="588.88" y="796.36"/>
      <point x="515.34" y="893.36"/>
      <point x="375.76" y="893.36" type="curve" smooth="yes"/>
      <point x="193.44" y="893.36"/>
      <point x="77.44" y="713.7"/>
      <point x="77.44" y="465.20000000000005" type="curve" smooth="yes"/>
      <point x="77.44" y="305.64000000000004"/>
      <point x="149.73999999999998" y="208.52"/>
    </contour>
    <contour>
      <point x="293.52" y="254.23999999999998" type="curve" smooth="yes"/>
      <point x="182.34" y="254.23999999999998"/>
      <point x="125.22" y="336.12"/>
      <point x="125.22" y="464.1" type="curve" smooth="yes"/>
      <point x="125.22" y="688.1"/>
      <point x="219.28" y="847.26"/>
      <point x="371.79999999999995" y="847.26" type="curve" smooth="yes"/>
      <point x="482.97999999999996" y="847.26"/>
      <point x="541.1000000000001" y="765.76"/>
      <point x="541.1000000000001" y="637.28" type="curve" smooth="yes"/>
      <point x="541.1000000000001" y="413.28"/>
      <point x="445.92" y="254.23999999999998"/>
    </contour>
    <contour>
      <point x="198.75999999999996" y="367.7" type="line"/>
      <point x="279.8" y="367.7" type="line"/>
      <point x="299.36" y="490.74" type="line"/>
      <point x="307.08" y="490.06"/>
      <point x="314.76000000000005" y="489.26000000000005"/>
      <point x="325.06" y="489.62" type="curve"/>
      <point x="346.12" y="500.59999999999997" type="line"/>
      <point x="418.26" y="504.82"/>
      <point x="468.52" y="558.96"/>
      <point x="468.52" y="647.76" type="curve" smooth="yes"/>
      <point x="468.52" y="716.26"/>
      <point x="432.46" y="750.4200000000001"/>
      <point x="359.08" y="750.4200000000001" type="curve" smooth="yes"/>
      <point x="326.90000000000003" y="750.4200000000001"/>
      <point x="296.2" y="748.28"/>
      <point x="258.78000000000003" y="743.9999999999999" type="curve"/>
    </contour>
    <contour>
      <point x="330.56" y="553.7" type="curve" smooth="yes"/>
      <point x="324.03999999999996" y="553.7"/>
      <point x="318.4" y="554.6400000000001"/>
      <point x="309.46000000000004" y="555.44" type="curve"/>
      <point x="328.84" y="676.58" type="line"/>
      <point x="341.54" y="677.96"/>
      <point x="346.76" y="678.96"/>
      <point x="357.1" y="678.96" type="curve" smooth="yes"/>
      <point x="379.18" y="678.96"/>
      <point x="387.8" y="666.66"/>
      <point x="387.8" y="643.96" type="curve" smooth="yes"/>
      <point x="387.8" y="593.6999999999999"/>
      <point x="367.92" y="553.7"/>
    </contour>
    <contour>
      <point x="411.78" y="362.96" type="curve" smooth="yes"/>
      <point x="416.65999999999997" y="362.96"/>
      <point x="428.62" y="364.58"/>
      <point x="434.6" y="367.26" type="curve"/>
      <point x="444.58" y="450.97999999999996" type="line"/>
      <point x="442.26" y="450.6"/>
      <point x="440.17999999999995" y="450.6"/>
      <point x="438.34" y="450.6" type="curve" smooth="yes"/>
      <point x="419.37999999999994" y="450.6"/>
      <point x="400.6" y="473.52"/>
      <point x="388.40000000000003" y="526.6200000000001" type="curve"/>
      <point x="314.96000000000004" y="506.26000000000005" type="line"/>
      <point x="345.24" y="381.67999999999995"/>
      <point x="372.98" y="362.96"/>
    </contour>
  </outline>
</glyph>
<glyph name="degree" format="2">
  <advance width="294.20000000000005"/>
  <unicode hex="00B0"/>
  <outline>
    <contour>
      <point x="169.60000000000002" y="407.71999999999997" type="curve" smooth="yes"/>
      <point x="267.03999999999996" y="407.71999999999997"/>
      <point x="316.16" y="511.16"/>
      <point x="316.16" y="600.68" type="curve" smooth="yes"/>
      <point x="316.16" y="664.0399999999998"/>
      <point x="288.2" y="715.12"/>
      <point x="215.56" y="715.12" type="curve" smooth="yes"/>
      <point x="118.32" y="715.12"/>
      <point x="68.56" y="611.8399999999999"/>
      <point x="68.56" y="522.4399999999999" type="curve" smooth="yes"/>
      <point x="68.56" y="457.44"/>
      <point x="98.96" y="407.71999999999997"/>
    </contour>
    <contour>
      <point x="183.56" y="505.88000000000005" type="curve" smooth="yes"/>
      <point x="164.8" y="505.88000000000005"/>
      <point x="155.48" y="520.9599999999999"/>
      <point x="155.48" y="543.52" type="curve" smooth="yes"/>
      <point x="155.48" y="577.88"/>
      <point x="171.36" y="614.7199999999999"/>
      <point x="200.6" y="614.7199999999999" type="curve" smooth="yes"/>
      <point x="220.03999999999996" y="614.7199999999999"/>
      <point x="229.24" y="599.16"/>
      <point x="229.24" y="577.04" type="curve" smooth="yes"/>
      <point x="229.24" y="543.24"/>
      <point x="212.68" y="505.88000000000005"/>
    </contour>
  </outline>
</glyph>
<glyph name="plusminus" format="2">
  <advance width="433.35999999999996"/>
  <unicode hex="00B1"/>
  <outline>
    <contour>
      <point x="347.48" y="22.060000000000002" type="line"/>
      <point x="367.14000000000004" y="146.00000000000003" type="line"/>
      <point x="255.14" y="146.00000000000003" type="line"/>
      <point x="274.64" y="267.91999999999996" type="line"/>
      <point x="386.40000000000003" y="267.91999999999996" type="line"/>
      <point x="406.06" y="391.86" type="line"/>
      <point x="294.3" y="391.86" type="line"/>
      <point x="314.84000000000003" y="515.7" type="line"/>
      <point x="196.5" y="515.7" type="line"/>
      <point x="175.92000000000002" y="391.86" type="line"/>
      <point x="64.1" y="391.86" type="line"/>
      <point x="44.44" y="267.91999999999996" type="line"/>
      <point x="156.29999999999998" y="267.91999999999996" type="line"/>
      <point x="136.51999999999998" y="146.00000000000003" type="line"/>
      <point x="25.180000000000003" y="146.00000000000003" type="line"/>
      <point x="5.520000000000001" y="22.060000000000002" type="line"/>
    </contour>
  </outline>
</glyph>
<glyph name="uni00B2" format="2">
  <advance width="296.8"/>
  <unicode hex="00B2"/>
  <outline>
    <contour>
      <point x="43.1" y="369.18" type="line"/>
      <point x="279.86" y="369.18" type="line"/>
      <point x="291.58" y="435.88" type="line"/>
      <point x="166.56" y="435.88" type="line"/>
      <point x="243.28" y="514.62"/>
      <point x="313.26000000000005" y="593.26"/>
      <point x="313.26000000000005" y="685.92" type="curve" smooth="yes"/>
      <point x="313.26000000000005" y="741.68"/>
      <point x="273.44" y="773.48"/>
      <point x="216.28" y="773.48" type="curve" smooth="yes"/>
      <point x="173.8" y="773.48"/>
      <point x="127.93999999999998" y="759.04"/>
      <point x="94.9" y="736.82" type="curve"/>
      <point x="112.16" y="658.46" type="line"/>
      <point x="135.86" y="673.18"/>
      <point x="155.85999999999999" y="680.6800000000001"/>
      <point x="177.4" y="680.6800000000001" type="curve" smooth="yes"/>
      <point x="199.78" y="680.6800000000001"/>
      <point x="211.44" y="666.26"/>
      <point x="211.44" y="643.98" type="curve" smooth="yes"/>
      <point x="211.0" y="584.6"/>
      <point x="128.46" y="486.5"/>
      <point x="52.260000000000005" y="427.42" type="curve"/>
    </contour>
  </outline>
</glyph>
<glyph name="uni00B3" format="2">
  <advance width="311.85"/>
  <unicode hex="00B3"/>
  <outline>
    <contour>
      <point x="40.8" y="394.34999999999997" type="line"/>
      <point x="70.05" y="374.85"/>
      <point x="105.95" y="364.7"/>
      <point x="150.79999999999998" y="364.7" type="curve" smooth="yes"/>
      <point x="233.25" y="364.7"/>
      <point x="311.15" y="410.54999999999995"/>
      <point x="311.15" y="501.75" type="curve" smooth="yes"/>
      <point x="311.15" y="542.65"/>
      <point x="291.05" y="566.1"/>
      <point x="265.8" y="577.45" type="curve"/>
      <point x="305.8" y="598.95"/>
      <point x="334.5" y="633.1999999999999"/>
      <point x="334.5" y="686.6" type="curve" smooth="yes"/>
      <point x="334.5" y="740.4499999999999"/>
      <point x="290.15000000000003" y="774.75"/>
      <point x="220.35" y="774.75" type="curve" smooth="yes"/>
      <point x="178.0" y="774.75"/>
      <point x="135.15" y="764.15"/>
      <point x="105.0" y="746.25" type="curve"/>
      <point x="116.8" y="680.75" type="line"/>
      <point x="137.55" y="689.1999999999999"/>
      <point x="165.45" y="694.2"/>
      <point x="189.05" y="694.2" type="curve" smooth="yes"/>
      <point x="223.4" y="694.2"/>
      <point x="241.9" y="679.45"/>
      <point x="241.9" y="655.5500000000001" type="curve" smooth="yes"/>
      <point x="241.9" y="625.9000000000001"/>
      <point x="217.6" y="604.2"/>
      <point x="182.20000000000002" y="604.2" type="curve" smooth="yes"/>
      <point x="139.3" y="604.2" type="line"/>
      <point x="128.20000000000002" y="543.0" type="line"/>
      <point x="171.25" y="543.0" type="line" smooth="yes"/>
      <point x="210.1" y="543.0"/>
      <point x="225.5" y="527.75"/>
      <point x="225.5" y="503.15000000000003" type="curve" smooth="yes"/>
      <point x="225.5" y="469.4"/>
      <point x="198.65" y="441.40000000000003"/>
      <point x="149.6" y="441.40000000000003" type="curve" smooth="yes"/>
      <point x="122.65" y="441.40000000000003"/>
      <point x="99.1" y="447.75"/>
      <point x="78.5" y="460.6" type="curve"/>
    </contour>
  </outline>
</glyph>
<glyph name="uni00B5" format="2">
  <advance width="451.62"/>
  <unicode hex="00B5"/>
  <outline>
    <contour>
      <point x="-38.78" y="-210.0" type="line"/>
      <point x="95.9" y="-210.0" type="line"/>
      <point x="129.89999999999998" y="2.940000000000003" type="line"/>
      <point x="135.04" y="-5.599999999999999"/>
      <point x="144.20000000000002" y="-10.0"/>
      <point x="157.33999999999997" y="-10.0" type="curve" smooth="yes"/>
      <point x="188.18" y="-10.0"/>
      <point x="221.9" y="4.08"/>
      <point x="255.70000000000002" y="38.699999999999996" type="curve"/>
      <point x="266.08000000000004" y="11.7"/>
      <point x="294.72" y="-10.0"/>
      <point x="333.36" y="-10.0" type="curve" smooth="yes"/>
      <point x="359.28000000000003" y="-10.0"/>
      <point x="391.12" y="-1.020000000000001"/>
      <point x="411.22" y="13.58" type="curve"/>
      <point x="421.88" y="119.6" type="line"/>
      <point x="414.66" y="116.97999999999999"/>
      <point x="407.68000000000006" y="116.07999999999998"/>
      <point x="404.04" y="116.07999999999998" type="curve" smooth="yes"/>
      <point x="392.36000000000007" y="116.07999999999998"/>
      <point x="387.06" y="123.25999999999999"/>
      <point x="387.06" y="137.92" type="curve" smooth="yes"/>
      <point x="387.06" y="144.76000000000002"/>
      <point x="388.53999999999996" y="157.19999999999996"/>
      <point x="450.98" y="544.0" type="curve"/>
      <point x="316.28000000000003" y="544.0" type="line"/>
      <point x="250.9" y="135.15999999999997" type="line"/>
      <point x="229.92000000000002" y="121.85999999999999"/>
      <point x="207.86" y="114.36"/>
      <point x="188.01999999999998" y="114.36" type="curve" smooth="yes"/>
      <point x="165.06" y="114.36"/>
      <point x="153.16" y="127.1"/>
      <point x="154.28" y="149.3" type="curve" smooth="yes"/>
      <point x="167.16000000000003" y="223.33999999999997"/>
      <point x="183.66000000000003" y="342.92"/>
      <point x="216.04" y="544.0" type="curve"/>
      <point x="80.84000000000002" y="544.0" type="line"/>
    </contour>
  </outline>
</glyph>
<glyph name="paragraph" format="2">
  <advance width="535.76"/>
  <unicode hex="00B6"/>
  <outline>
    <contour>
      <point x="312.64000000000004" y="-210.0" type="line"/>
      <point x="416.46" y="-210.0" type="line"/>
      <point x="568.28" y="740.0" type="line"/>
      <point x="464.46" y="740.0" type="line"/>
    </contour>
    <contour>
      <point x="224.4" y="317.34" type="line"/>
      <point x="195.24" y="324.52"/>
      <point x="174.54" y="360.78"/>
      <point x="174.54" y="417.67999999999995" type="curve" smooth="yes"/>
      <point x="174.54" y="507.53999999999996"/>
      <point x="209.74" y="612.62"/>
      <point x="293.02" y="615.36" type="curve"/>
      <point x="161.84000000000003" y="-210.0" type="line"/>
      <point x="265.66" y="-210.0" type="line"/>
      <point x="417.47999999999996" y="740.0" type="line"/>
      <point x="349.48" y="740.0" type="line" smooth="yes"/>
      <point x="161.1" y="740.0"/>
      <point x="57.440000000000005" y="594.76"/>
      <point x="57.440000000000005" y="410.32000000000005" type="curve" smooth="yes"/>
      <point x="57.440000000000005" y="312.98"/>
      <point x="101.94" y="244.74"/>
      <point x="195.6" y="225.07999999999998" type="curve"/>
    </contour>
  </outline>
</glyph>
<glyph name="periodcentered" format="2">
  <advance width="195.02"/>
  <unicode hex="00B7"/>
  <outline>
    <contour>
      <point x="26.57" y="288.65000000000003" type="curve" smooth="yes"/>
      <point x="25.970000000000002" y="247.02999999999997"/>
      <point x="44.7" y="227.23"/>
      <point x="89.75000000000001" y="227.23" type="curve" smooth="yes"/>
      <point x="155.78" y="227.23"/>
      <point x="179.32999999999998" y="286.71"/>
      <point x="179.92999999999998" y="340.96" type="curve" smooth="yes"/>
      <point x="180.53" y="381.65"/>
      <point x="161.65" y="401.59999999999997"/>
      <point x="117.44999999999999" y="401.59999999999997" type="curve" smooth="yes"/>
      <point x="52.56999999999999" y="401.59999999999997"/>
      <point x="27.17" y="342.28"/>
    </contour>
  </outline>
</glyph>
<glyph name="uni00B9" format="2">
  <advance width="280.78000000000003"/>
  <unicode hex="00B9"/>
  <outline>
    <contour>
      <point x="42.64" y="370.0" type="line"/>
      <point x="275.72" y="370.0" type="line"/>
      <point x="288.64" y="442.1" type="line"/>
      <point x="222.28" y="442.1" type="line"/>
      <point x="277.6" y="767.9200000000001" type="line"/>
      <point x="229.28000000000003" y="767.9200000000001" type="line"/>
      <point x="92.04" y="715.8599999999999" type="line"/>
      <point x="97.16000000000001" y="634.68" type="line"/>
      <point x="168.56" y="664.52" type="line"/>
      <point x="130.66" y="442.1" type="line"/>
      <point x="54.62" y="442.1" type="line"/>
    </contour>
  </outline>
</glyph>
<glyph name="ordmasculine" format="2">
  <advance width="294.42"/>
  <unicode hex="00BA"/>
  <outline>
    <contour>
      <point x="26.580000000000002" y="247.74" type="line"/>
      <point x="260.15999999999997" y="247.74" type="line"/>
      <point x="271.04" y="319.72" type="line"/>
      <point x="37.46" y="319.72" type="line"/>
    </contour>
    <component base="o.superior" xOffset="10.4"/>
  </outline>
</glyph>
<glyph name="AE" format="2">
  <advance width="694.35"/>
  <unicode hex="00C6"/>
  <anchor x="313.34868000000006" y="0.0" name="bottom"/>
  <anchor x="441.21" y="700.0" name="top"/>
  <outline>
    <contour>
      <point x="264.10999999999996" y="0.0" type="line"/>
      <point x="632.6199999999999" y="0.0" type="line"/>
      <point x="652.34" y="124.41" type="line"/>
      <point x="417.78000000000003" y="124.41" type="line"/>
      <point x="443.90999999999997" y="290.36" type="line"/>
      <point x="642.84" y="290.36" type="line"/>
      <point x="662.54" y="408.07" type="line"/>
      <point x="463.14" y="408.07" type="line"/>
      <point x="489.12" y="573.2400000000001" type="line"/>
      <point x="711.0600000000001" y="573.2400000000001" type="line"/>
      <point x="732.1699999999998" y="700.0" type="line"/>
      <point x="280.61" y="700.0" type="line"/>
      <point x="-41.900000000000006" y="0.0" type="line"/>
      <point x="106.08999999999999" y="0.0" type="line"/>
      <point x="186.91" y="175.4" type="line"/>
      <point x="291.38000000000005" y="175.4" type="line"/>
    </contour>
    <contour>
      <point x="235.48" y="296.13000000000005" type="line"/>
      <point x="357.01" y="593.18" type="line"/>
      <point x="310.24" y="296.13000000000005" type="line"/>
    </contour>
  </outline>
</glyph>
<glyph name="multiply" format="2">
  <advance width="409.6"/>
  <unicode hex="00D7"/>
  <outline>
    <contour>
      <point x="97.24000000000001" y="124.25" type="line"/>
      <point x="199.61" y="234.78" type="line"/>
      <point x="266.42" y="122.97" type="line"/>
      <point x="358.39" y="211.75" type="line"/>
      <point x="293.3" y="321.69000000000005" type="line"/>
      <point x="395.28000000000003" y="433.65" type="line"/>
      <point x="328.09999999999997" y="520.9499999999999" type="line"/>
      <point x="226.55000000000004" y="410.26" type="line"/>
      <point x="158.46" y="521.9099999999999" type="line"/>
      <point x="66.25999999999999" y="434.45" type="line"/>
      <point x="132.73" y="322.98" type="line"/>
      <point x="29.51" y="210.84999999999997" type="line"/>
    </contour>
  </outline>
</glyph>
<glyph name="Oslash" format="2">
  <advance width="524.1999999999998"/>
  <unicode hex="00D8"/>
  <anchor x="322.4" y="700.0" name="top"/>
  <outline>
    <contour>
      <point x="564.9" y="712.0" type="line"/>
      <point x="475.70000000000005" y="712.0" type="line"/>
      <point x="407.29999999999995" y="615.5" type="line"/>
      <point x="402.8" y="616.6999999999999" type="line"/>
      <point x="102.20000000000002" y="161.9" type="line"/>
      <point x="98.39999999999999" y="163.60000000000002" type="line"/>
      <point x="-19.2" y="-5.800000000000001" type="line"/>
      <point x="70.1" y="-5.800000000000001" type="line"/>
      <point x="140.3" y="92.4" type="line"/>
      <point x="144.8" y="91.19999999999999" type="line"/>
      <point x="443.3" y="543.3000000000001" type="line"/>
      <point x="446.90000000000003" y="541.5999999999999" type="line"/>
    </contour>
    <contour>
      <point x="232.0" y="-8.600000000000001" type="curve" smooth="yes"/>
      <point x="428.9" y="-8.600000000000001"/>
      <point x="516.2999999999998" y="241.79999999999998"/>
      <point x="518.4999999999999" y="468.70000000000005" type="curve" smooth="yes"/>
      <point x="520.0999999999999" y="626.9"/>
      <point x="452.5" y="708.6"/>
      <point x="313.79999999999995" y="708.6" type="curve" smooth="yes"/>
      <point x="119.8" y="708.6"/>
      <point x="29.5" y="458.5"/>
      <point x="27.3" y="231.3" type="curve" smooth="yes"/>
      <point x="25.7" y="72.8"/>
      <point x="93.29999999999998" y="-8.600000000000001"/>
    </contour>
    <contour>
      <point x="242.20000000000002" y="114.59999999999998" type="curve" smooth="yes"/>
      <point x="191.89999999999998" y="114.59999999999998"/>
      <point x="162.5" y="144.69999999999996"/>
      <point x="162.5" y="221.9" type="curve" smooth="yes"/>
      <point x="162.5" y="364.90000000000003"/>
      <point x="219.79999999999998" y="585.3999999999999"/>
      <point x="306.4" y="585.3999999999999" type="curve" smooth="yes"/>
      <point x="354.90000000000003" y="585.3999999999999"/>
      <point x="384.0" y="555.6"/>
      <point x="384.0" y="479.1000000000001" type="curve" smooth="yes"/>
      <point x="384.0" y="344.9"/>
      <point x="326.40000000000003" y="114.59999999999998"/>
    </contour>
  </outline>
</glyph>
<glyph name="Thorn" format="2">
  <advance width="495.3"/>
  <unicode hex="00DE"/>
  <outline>
    <contour>
      <point x="-2.999999999999999" y="0.0" type="line"/>
      <point x="135.35" y="0.0" type="line"/>
      <point x="153.3" y="111.4" type="line"/>
      <point x="191.45" y="108.15"/>
      <point x="207.45" y="107.80000000000001"/>
      <point x="235.75" y="107.80000000000001" type="curve" smooth="yes"/>
      <point x="401.25" y="107.80000000000001"/>
      <point x="497.65" y="234.1"/>
      <point x="497.65" y="432.7" type="curve" smooth="yes"/>
      <point x="497.65" y="555.8"/>
      <point x="441.55" y="624.3000000000001"/>
      <point x="291.8" y="624.3000000000001" type="curve" smooth="yes"/>
      <point x="278.75" y="624.3000000000001"/>
      <point x="261.05" y="623.65"/>
      <point x="235.10000000000002" y="622.6" type="curve"/>
      <point x="247.45000000000002" y="700.0" type="line"/>
      <point x="109.10000000000001" y="700.0" type="line"/>
    </contour>
    <contour>
      <point x="228.85" y="229.2" type="curve" smooth="yes"/>
      <point x="208.6" y="229.2"/>
      <point x="196.45" y="229.5"/>
      <point x="174.15" y="231.85" type="curve"/>
      <point x="215.25" y="499.15000000000003" type="line"/>
      <point x="247.8" y="502.09999999999997"/>
      <point x="260.0" y="503.09999999999997"/>
      <point x="279.7" y="503.09999999999997" type="curve" smooth="yes"/>
      <point x="336.9" y="503.09999999999997"/>
      <point x="359.65" y="472.95"/>
      <point x="359.65" y="419.3" type="curve" smooth="yes"/>
      <point x="359.65" y="303.0"/>
      <point x="313.95000000000005" y="229.2"/>
    </contour>
  </outline>
</glyph>
<glyph name="germandbls" format="2">
  <advance width="576.9499999999999"/>
  <unicode hex="00DF"/>
  <outline>
    <contour>
      <point x="18.48" y="-12.660000000000005" type="line" smooth="yes"/>
      <point x="9.72" y="-65.64"/>
      <point x="-7.2700000000000005" y="-92.05"/>
      <point x="-38.94" y="-92.05" type="curve" smooth="yes"/>
      <point x="-49.51" y="-92.05"/>
      <point x="-60.059999999999995" y="-90.99000000000001"/>
      <point x="-75.11000000000001" y="-86.23" type="curve"/>
      <point x="-109.03999999999999" y="-203.61" type="line"/>
      <point x="-80.81" y="-214.82"/>
      <point x="-51.910000000000004" y="-220.0"/>
      <point x="-21.120000000000008" y="-220.0" type="curve" smooth="yes"/>
      <point x="79.71" y="-220.0"/>
      <point x="130.98000000000002" y="-153.70000000000002"/>
      <point x="151.89000000000001" y="-21.150000000000006" type="curve" smooth="yes"/>
      <point x="234.73" y="506.6700000000001" type="line" smooth="yes"/>
      <point x="247.14999999999998" y="584.53"/>
      <point x="289.53000000000003" y="627.13"/>
      <point x="362.05" y="627.13" type="curve" smooth="yes"/>
      <point x="409.71999999999997" y="627.13"/>
      <point x="430.10999999999996" y="612.08"/>
      <point x="430.10999999999996" y="587.1099999999999" type="curve" smooth="yes"/>
      <point x="430.10999999999996" y="560.7399999999999"/>
      <point x="416.6700000000001" y="545.1300000000001"/>
      <point x="359.94999999999993" y="518.2700000000001" type="curve" smooth="yes"/>
      <point x="292.68" y="486.1"/>
      <point x="253.93" y="442.79"/>
      <point x="253.93" y="360.68" type="curve" smooth="yes"/>
      <point x="253.93" y="286.84000000000003"/>
      <point x="294.0" y="250.03"/>
      <point x="357.02000000000004" y="221.00000000000003" type="curve" smooth="yes"/>
      <point x="408.92" y="196.9"/>
      <point x="422.49" y="184.47"/>
      <point x="422.49" y="160.68" type="curve" smooth="yes"/>
      <point x="422.49" y="131.29999999999998"/>
      <point x="391.6" y="107.78999999999998"/>
      <point x="344.17" y="107.78999999999998" type="curve" smooth="yes"/>
      <point x="305.18" y="107.78999999999998"/>
      <point x="258.63" y="116.36999999999998"/>
      <point x="223.23999999999998" y="128.34" type="curve"/>
      <point x="192.63" y="18.53" type="line"/>
      <point x="231.47" y="2.0599999999999996"/>
      <point x="281.84000000000003" y="-9.92"/>
      <point x="341.4200000000001" y="-9.92" type="curve" smooth="yes"/>
      <point x="485.32" y="-9.92"/>
      <point x="559.09" y="57.89"/>
      <point x="559.09" y="174.73" type="curve" smooth="yes"/>
      <point x="559.09" y="248.7"/>
      <point x="523.6800000000001" y="288.28000000000003"/>
      <point x="460.09000000000003" y="316.35999999999996" type="curve" smooth="yes"/>
      <point x="399.14" y="343.75999999999993"/>
      <point x="383.25999999999993" y="354.99000000000007"/>
      <point x="383.25999999999993" y="378.6" type="curve" smooth="yes"/>
      <point x="383.25999999999993" y="402.99000000000007"/>
      <point x="398.58" y="416.04"/>
      <point x="460.67" y="442.64" type="curve" smooth="yes"/>
      <point x="530.57" y="472.02000000000004"/>
      <point x="567.0" y="514.01"/>
      <point x="567.0" y="598.3800000000001" type="curve" smooth="yes"/>
      <point x="567.0" y="693.78"/>
      <point x="495.0" y="750.0"/>
      <point x="369.78" y="750.0" type="curve" smooth="yes"/>
      <point x="207.39" y="750.0"/>
      <point x="127.13000000000001" y="673.03"/>
      <point x="104.10000000000001" y="527.6899999999999" type="curve" smooth="yes"/>
      <point x="101.32000000000001" y="509.34999999999997" type="line"/>
      <point x="43.71" y="500.6" type="line"/>
      <point x="25.43" y="393.96000000000004" type="line"/>
      <point x="82.34" y="393.96000000000004" type="line"/>
    </contour>
  </outline>
</glyph>
<glyph name="ae" format="2">
  <advance width="676.8000000000001"/>
  <unicode hex="00E6"/>
  <anchor x="303.5" y="0.0" name="bottom"/>
  <anchor x="385.5" y="544.0" name="top"/>
  <outline>
    <contour>
      <point x="139.0" y="-10.0" type="curve" smooth="yes"/>
      <point x="176.0" y="-10.0"/>
      <point x="208.79999999999998" y="1.7"/>
      <point x="241.99999999999997" y="33.7" type="curve"/>
      <point x="235.60000000000002" y="-2.4" type="line"/>
      <point x="358.1" y="-2.4" type="line"/>
      <point x="367.4" y="55.3" type="line"/>
      <point x="392.0" y="16.799999999999997"/>
      <point x="435.3" y="-8.8"/>
      <point x="491.5999999999999" y="-8.8" type="curve" smooth="yes"/>
      <point x="536.8000000000001" y="-8.8"/>
      <point x="584.9" y="1.3999999999999995"/>
      <point x="625.1999999999999" y="24.099999999999998" type="curve"/>
      <point x="609.6" y="140.0" type="line"/>
      <point x="566.1" y="122.19999999999999"/>
      <point x="528.0999999999999" y="113.8"/>
      <point x="493.99999999999994" y="113.8" type="curve" smooth="yes"/>
      <point x="436.1" y="113.8"/>
      <point x="399.8" y="145.4"/>
      <point x="399.8" y="215.5" type="curve" smooth="yes"/>
      <point x="399.8" y="328.5"/>
      <point x="441.7" y="440.7"/>
      <point x="509.7" y="440.7" type="curve" smooth="yes"/>
      <point x="534.9999999999999" y="440.7"/>
      <point x="548.3000000000001" y="429.70000000000005"/>
      <point x="548.3000000000001" y="403.6" type="curve" smooth="yes"/>
      <point x="548.3000000000001" y="359.3"/>
      <point x="513.4000000000001" y="320.1"/>
      <point x="451.9" y="300.00000000000006" type="curve" smooth="yes"/>
      <point x="426.8" y="291.6"/>
      <point x="400.7" y="287.6"/>
      <point x="372.5999999999999" y="288.4" type="curve"/>
      <point x="358.49999999999994" y="203.3" type="line"/>
      <point x="398.9" y="201.3"/>
      <point x="442.7" y="206.1"/>
      <point x="485.9" y="217.8" type="curve" smooth="yes"/>
      <point x="604.2999999999998" y="248.2"/>
      <point x="678.2" y="329.0"/>
      <point x="678.2" y="432.9" type="curve" smooth="yes"/>
      <point x="678.2" y="506.70000000000005"/>
      <point x="636.3" y="554.0"/>
      <point x="559.0" y="554.0" type="curve" smooth="yes"/>
      <point x="509.49999999999994" y="554.0"/>
      <point x="467.19999999999993" y="533.6999999999999"/>
      <point x="435.7" y="497.8" type="curve"/>
      <point x="444.6" y="552.0" type="line"/>
      <point x="323.3" y="552.0" type="line"/>
      <point x="319.59999999999997" y="529.0" type="line"/>
      <point x="299.4" y="546.1999999999999"/>
      <point x="272.79999999999995" y="554.0"/>
      <point x="242.5" y="554.0" type="curve" smooth="yes"/>
      <point x="106.3" y="554.0"/>
      <point x="13.8" y="391.8"/>
      <point x="13.8" y="161.50000000000003" type="curve" smooth="yes"/>
      <point x="13.8" y="51.60000000000001"/>
      <point x="61.10000000000001" y="-10.0"/>
    </contour>
    <contour>
      <point x="202.29999999999998" y="101.19999999999999" type="curve" smooth="yes"/>
      <point x="174.4" y="101.19999999999999"/>
      <point x="153.89999999999998" y="123.4"/>
      <point x="153.89999999999998" y="178.09999999999997" type="curve" smooth="yes"/>
      <point x="153.89999999999998" y="310.8"/>
      <point x="207.00000000000003" y="438.00000000000006"/>
      <point x="264.6" y="438.00000000000006" type="curve" smooth="yes"/>
      <point x="279.29999999999995" y="438.00000000000006"/>
      <point x="291.8" y="435.6"/>
      <point x="302.79999999999995" y="427.79999999999995" type="curve"/>
      <point x="254.8" y="117.39999999999999" type="line"/>
      <point x="238.89999999999998" y="107.29999999999998"/>
      <point x="220.1" y="101.19999999999999"/>
    </contour>
  </outline>
</glyph>
<glyph name="eth" format="2">
  <advance width="449.9"/>
  <unicode hex="00F0"/>
  <outline>
    <contour>
      <point x="327.69999999999993" y="406.0" type="curve"/>
      <point x="349.0" y="505.2" type="line"/>
      <point x="320.2" y="523.8999999999999"/>
      <point x="279.5" y="532.6"/>
      <point x="244.1" y="532.6" type="curve" smooth="yes"/>
      <point x="87.6" y="532.6"/>
      <point x="11.3" y="353.59999999999997"/>
      <point x="11.3" y="181.2" type="curve" smooth="yes"/>
      <point x="11.3" y="46.300000000000004"/>
      <point x="83.6" y="-9.499999999999998"/>
      <point x="185.6" y="-9.499999999999998" type="curve" smooth="yes"/>
      <point x="327.4" y="-9.499999999999998"/>
      <point x="397.3" y="74.2"/>
      <point x="437.6" y="322.4" type="curve" smooth="yes"/>
      <point x="446.9" y="380.7"/>
      <point x="452.2" y="430.90000000000003"/>
      <point x="452.2" y="474.29999999999995" type="curve" smooth="yes"/>
      <point x="452.2" y="653.0"/>
      <point x="359.79999999999995" y="742.5000000000001"/>
      <point x="193.0" y="742.5000000000001" type="curve" smooth="yes"/>
      <point x="148.0" y="742.5000000000001"/>
      <point x="110.2" y="733.5"/>
      <point x="76.90000000000002" y="725.2" type="curve"/>
      <point x="79.20000000000002" y="632.0999999999999" type="line"/>
      <point x="103.6" y="636.3999999999999"/>
      <point x="126.69999999999999" y="642.3000000000001"/>
      <point x="164.40000000000003" y="642.3000000000001" type="curve" smooth="yes"/>
      <point x="273.2" y="642.3000000000001"/>
      <point x="316.70000000000005" y="601.7"/>
      <point x="316.70000000000005" y="502.49999999999994" type="curve" smooth="yes"/>
      <point x="316.70000000000005" y="463.50000000000006"/>
      <point x="312.70000000000005" y="414.29999999999995"/>
      <point x="302.40000000000003" y="351.4" type="curve" smooth="yes"/>
      <point x="267.70000000000005" y="137.20000000000002"/>
      <point x="239.29999999999998" y="93.9"/>
      <point x="194.4" y="93.9" type="curve" smooth="yes"/>
      <point x="161.9" y="93.9"/>
      <point x="144.79999999999998" y="116.69999999999999"/>
      <point x="144.79999999999998" y="162.0" type="curve" smooth="yes"/>
      <point x="144.79999999999998" y="266.7"/>
      <point x="189.7" y="428.3"/>
      <point x="265.1000000000001" y="428.3" type="curve" smooth="yes"/>
      <point x="286.0" y="428.3"/>
      <point x="308.30000000000007" y="421.1000000000001"/>
    </contour>
    <contour>
      <point x="186.39999999999998" y="553.1999999999999" type="line"/>
      <point x="332.5" y="638.1999999999999" type="line"/>
      <point x="330.0" y="642.1999999999999" type="line"/>
      <point x="501.99999999999994" y="742.9000000000001" type="line"/>
      <point x="386.1" y="743.3000000000001" type="line"/>
      <point x="281.9" y="682.6" type="line"/>
      <point x="284.0" y="678.1" type="line"/>
      <point x="71.7" y="553.4000000000001" type="line"/>
    </contour>
  </outline>
</glyph>
<glyph name="divide" format="2">
  <advance width="433.78000000000003"/>
  <unicode hex="00F7"/>
  <outline>
    <contour>
      <point x="124.86" y="109.10000000000001" type="curve" smooth="yes"/>
      <point x="124.25999999999999" y="76.76"/>
      <point x="141.96" y="60.60000000000001"/>
      <point x="182.35999999999999" y="60.60000000000001" type="curve" smooth="yes"/>
      <point x="231.56" y="60.60000000000001"/>
      <point x="259.72" y="86.72000000000003"/>
      <point x="260.92" y="146.82" type="curve" smooth="yes"/>
      <point x="261.52000000000004" y="179.46"/>
      <point x="243.3" y="194.92000000000002"/>
      <point x="204.44" y="194.92000000000002" type="curve" smooth="yes"/>
      <point x="152.34" y="194.92000000000002"/>
      <point x="126.06" y="159.70000000000002"/>
    </contour>
    <contour>
      <point x="185.72000000000003" y="485.70000000000005" type="curve" smooth="yes"/>
      <point x="185.12000000000003" y="453.74"/>
      <point x="202.03999999999996" y="437.9"/>
      <point x="242.51999999999998" y="437.9" type="curve" smooth="yes"/>
      <point x="291.79999999999995" y="437.9"/>
      <point x="320.12" y="464.48"/>
      <point x="321.32000000000005" y="523.58" type="curve" smooth="yes"/>
      <point x="321.92" y="556.84"/>
      <point x="303.76" y="572.22"/>
      <point x="264.52000000000004" y="572.22" type="curve" smooth="yes"/>
      <point x="210.4" y="572.22"/>
      <point x="186.92000000000002" y="534.2"/>
    </contour>
    <contour>
      <point x="42.660000000000004" y="254.5" type="line"/>
      <point x="384.80000000000007" y="254.5" type="line"/>
      <point x="404.9" y="379.1000000000001" type="line"/>
      <point x="62.459999999999994" y="379.1000000000001" type="line"/>
    </contour>
  </outline>
</glyph>
<glyph name="oslash" format="2">
  <advance width="442.59999999999997"/>
  <unicode hex="00F8"/>
  <anchor x="256.3" y="544.0" name="top"/>
  <outline>
    <contour>
      <point x="390.79999999999995" y="554.6999999999999" type="line"/>
      <point x="329.29999999999995" y="471.30000000000007" type="line"/>
      <point x="325.2" y="473.2" type="line"/>
      <point x="93.2" y="145.79999999999998" type="line"/>
      <point x="90.0" y="148.49999999999997" type="line"/>
      <point x="-27.200000000000003" y="-10.0" type="line"/>
      <point x="52.1" y="-10.0" type="line"/>
      <point x="117.5" y="78.3" type="line"/>
      <point x="121.89999999999999" y="76.39999999999999" type="line"/>
      <point x="356.4" y="405.8" type="line"/>
      <point x="359.29999999999995" y="403.09999999999997" type="line"/>
      <point x="470.7" y="554.6999999999999" type="line"/>
    </contour>
    <contour>
      <point x="199.0" y="-10.0" type="curve" smooth="yes"/>
      <point x="364.2" y="-10.0"/>
      <point x="425.8" y="184.50000000000003"/>
      <point x="425.8" y="372.2" type="curve" smooth="yes"/>
      <point x="425.8" y="496.2"/>
      <point x="366.7" y="554.6999999999999"/>
      <point x="247.49999999999994" y="554.6999999999999" type="curve" smooth="yes"/>
      <point x="78.9" y="554.6999999999999"/>
      <point x="17.7" y="356.2"/>
      <point x="17.7" y="172.20000000000002" type="curve" smooth="yes"/>
      <point x="17.7" y="48.8"/>
      <point x="75.9" y="-10.0"/>
    </contour>
    <contour>
      <point x="200.7" y="104.29999999999998" type="curve" smooth="yes"/>
      <point x="165.79999999999998" y="103.79999999999998"/>
      <point x="146.6" y="122.69999999999999"/>
      <point x="145.9" y="165.1" type="curve" smooth="yes"/>
      <point x="143.9" y="246.69999999999993"/>
      <point x="175.9" y="439.4"/>
      <point x="243.10000000000002" y="440.4" type="curve" smooth="yes"/>
      <point x="277.2" y="440.9"/>
      <point x="296.6" y="421.1"/>
      <point x="297.3" y="379.29999999999995" type="curve" smooth="yes"/>
      <point x="299.3" y="292.29999999999995"/>
      <point x="266.40000000000003" y="105.1"/>
    </contour>
  </outline>
</glyph>
<glyph name="thorn" format="2">
  <advance width="451.85"/>
  <unicode hex="00FE"/>
  <outline>
    <contour>
      <point x="-38.379999999999995" y="-210.0" type="line"/>
      <point x="96.92999999999999" y="-210.0" type="line"/>
      <point x="130.11" y="-1.1599999999999997" type="line"/>
      <point x="147.21" y="-5.18"/>
      <point x="169.87000000000003" y="-8.95"/>
      <point x="198.99" y="-8.95" type="curve" smooth="yes"/>
      <point x="357.49999999999994" y="-8.95"/>
      <point x="438.1599999999999" y="171.7"/>
      <point x="438.1599999999999" y="373.53000000000003" type="curve" smooth="yes"/>
      <point x="438.1599999999999" y="496.76"/>
      <point x="402.91999999999996" y="554.0"/>
      <point x="323.98" y="554.0" type="curve" smooth="yes"/>
      <point x="272.53" y="554.0"/>
      <point x="239.51999999999998" y="532.6299999999999"/>
      <point x="211.15" y="510.45" type="curve"/>
      <point x="247.17" y="740.0" type="line"/>
      <point x="111.62000000000002" y="740.0" type="line"/>
    </contour>
    <contour>
      <point x="185.97" y="106.06" type="curve" smooth="yes"/>
      <point x="172.26" y="106.06"/>
      <point x="159.39999999999998" y="108.25999999999999"/>
      <point x="148.51" y="112.10999999999999" type="curve"/>
      <point x="195.49" y="407.6" type="line"/>
      <point x="211.95000000000002" y="417.79"/>
      <point x="233.19000000000003" y="425.34"/>
      <point x="252.02999999999997" y="425.34" type="curve" smooth="yes"/>
      <point x="283.8" y="425.34"/>
      <point x="299.11" y="404.0"/>
      <point x="299.11" y="348.77" type="curve" smooth="yes"/>
      <point x="299.11" y="233.5"/>
      <point x="256.3" y="106.06"/>
    </contour>
  </outline>
</glyph>
<glyph name="Dcroat" format="2">
  <advance width="525.1199999999999"/>
  <unicode hex="0110"/>
  <outline>
    <contour>
      <point x="11.58" y="292.65000000000003" type="line"/>
      <point x="272.14" y="292.65000000000003" type="line"/>
      <point x="293.0199999999999" y="415.10999999999996" type="line"/>
      <point x="32.22" y="415.10999999999996" type="line"/>
    </contour>
    <component base="D" xOffset="9.889999999999999"/>
  </outline>
</glyph>
<glyph name="dcroat" format="2">
  <advance width="463.2900000000001"/>
  <unicode hex="0111"/>
  <outline>
    <contour>
      <point x="220.9" y="611.49" type="line"/>
      <point x="513.7400000000001" y="611.49" type="line"/>
      <point x="525.82" y="686.24" type="line"/>
      <point x="233.45000000000002" y="686.24" type="line"/>
    </contour>
    <component base="d"/>
  </outline>
</glyph>
<glyph name="Hbar" format="2">
  <advance width="522.32"/>
  <unicode hex="0126"/>
  <outline>
    <contour>
      <point x="39.72" y="499.78000000000003" type="line"/>
      <point x="554.46" y="499.78000000000003" type="line"/>
      <point x="572.34" y="610.84" type="line"/>
      <point x="57.6" y="610.84" type="line"/>
    </contour>
    <component base="H" xOffset="3.2399999999999998"/>
  </outline>
</glyph>
<glyph name="hbar" format="2">
  <advance width="455.97999999999996"/>
  <unicode hex="0127"/>
  <outline>
    <contour>
      <point x="50.8" y="611.49" type="line"/>
      <point x="320.60999999999996" y="611.49" type="line"/>
      <point x="332.39" y="686.24" type="line"/>
      <point x="62.58" y="686.24" type="line"/>
    </contour>
    <component base="h" xOffset="3.5799999999999996"/>
  </outline>
</glyph>
<glyph name="Idotaccent" format="2">
  <advance width="221.57999999999998"/>
  <unicode hex="0130"/>
  <outline>
    <contour>
      <point x="212.73999999999998" y="912.0999999999999" type="curve" smooth="yes"/>
      <point x="146.02" y="912.0999999999999"/>
      <point x="119.67999999999999" y="865.0"/>
      <point x="118.9" y="807.0" type="curve" smooth="yes"/>
      <point x="118.66" y="766.86"/>
      <point x="141.08" y="747.34"/>
      <point x="185.24" y="747.34" type="curve" smooth="yes"/>
      <point x="248.9" y="747.34"/>
      <point x="278.21999999999997" y="793.6"/>
      <point x="279.06" y="853.2" type="curve" smooth="yes"/>
      <point x="279.3" y="893.1399999999999"/>
      <point x="256.5" y="912.0999999999999"/>
    </contour>
    <component base="I"/>
  </outline>
</glyph>
<glyph name="dotlessi" format="2">
  <advance width="211.98000000000002"/>
  <unicode hex="0131"/>
  <anchor x="62.182159999999996" y="0.0" name="bottom"/>
  <anchor x="130.5" y="0.0" name="ogonek"/>
  <anchor x="148.35783999999998" y="544.0" name="top"/>
  <outline>
    <contour>
      <point x="130.5" y="0.0" type="line"/>
      <point x="216.46" y="544.0" type="line"/>
      <point x="80.42000000000002" y="544.0" type="line"/>
      <point x="-5.5799999999999965" y="0.13999999999999999" type="line"/>
    </contour>
  </outline>
</glyph>
<glyph name="Ldot" format="2">
  <advance width="401.26"/>
  <unicode hex="013F"/>
  <outline>
    <contour>
      <point x="270.25888" y="375.75872" type="curve" smooth="yes"/>
      <point x="269.71888" y="343.90912000000003"/>
      <point x="284.43072" y="328.89784"/>
      <point x="319.6868" y="328.89784" type="curve" smooth="yes"/>
      <point x="369.51415999999995" y="328.89784"/>
      <point x="388.43248000000006" y="370.39703999999995"/>
      <point x="389.09247999999997" y="412.47904" type="curve" smooth="yes"/>
      <point x="389.63248000000004" y="443.62216"/>
      <point x="375.16064" y="458.87343999999996"/>
      <point x="340.41752" y="458.87343999999996" type="curve" smooth="yes"/>
      <point x="291.10368" y="458.87343999999996"/>
      <point x="270.91888" y="417.28072"/>
    </contour>
    <component base="L"/>
  </outline>
</glyph>
<glyph name="ldot" format="2">
  <advance width="315.12"/>
  <unicode hex="0140"/>
  <outline>
    <contour>
      <point x="231.42589999999998" y="360.3964" type="curve" smooth="yes"/>
      <point x="230.88590000000002" y="331.56688"/>
      <point x="242.84086" y="318.26388000000003"/>
      <point x="272.22674" y="318.26388000000003" type="curve" smooth="yes"/>
      <point x="315.30231999999995" y="318.26388000000003"/>
      <point x="329.891" y="357.43334000000004"/>
      <point x="330.551" y="395.11836" type="curve" smooth="yes"/>
      <point x="331.091" y="423.16118000000006"/>
      <point x="319.37603999999993" y="436.70418"/>
      <point x="290.4355" y="436.70418" type="curve" smooth="yes"/>
      <point x="247.80455999999998" y="436.70418"/>
      <point x="232.0859" y="397.70244"/>
    </contour>
    <component base="l"/>
  </outline>
</glyph>
<glyph name="Lslash" format="2">
  <advance width="415.15999999999997"/>
  <unicode hex="0141"/>
  <outline>
    <contour>
      <point x="10.600000000000001" y="0.0" type="line"/>
      <point x="358.06" y="0.0" type="line"/>
      <point x="378.56" y="125.67999999999999" type="line"/>
      <point x="168.68" y="125.67999999999999" type="line"/>
      <point x="197.56" y="308.36" type="line"/>
      <point x="334.52" y="385.62000000000006" type="line"/>
      <point x="357.14" y="520.3" type="line"/>
      <point x="219.06" y="442.48" type="line"/>
      <point x="260.58" y="700.0" type="line"/>
      <point x="122.72" y="700.0" type="line"/>
      <point x="69.86" y="371.58" type="line"/>
      <point x="18.880000000000003" y="342.48" type="line"/>
      <point x="-2.0199999999999987" y="208.26" type="line"/>
      <point x="48.12" y="237.22" type="line"/>
    </contour>
  </outline>
</glyph>
<glyph name="lslash" format="2">
  <advance width="256.59999999999997"/>
  <unicode hex="0142"/>
  <outline>
    <contour>
      <point x="-3.4799999999999995" y="206.06" type="line"/>
      <point x="262.09999999999997" y="383.74" type="line"/>
      <point x="280.94" y="502.17999999999995" type="line"/>
      <point x="14.66" y="324.49999999999994" type="line"/>
    </contour>
    <component base="l" xOffset="11.2"/>
  </outline>
</glyph>
<glyph name="Eng" format="2">
  <advance width="514.1500000000001"/>
  <unicode hex="014A"/>
  <outline>
    <contour>
      <point x="-3.149999999999999" y="0.0" type="line"/>
      <point x="123.15" y="0.0" type="line"/>
      <point x="188.3" y="404.3" type="line"/>
      <point x="296.79999999999995" y="-3.399999999999999" type="line"/>
      <point x="290.04999999999995" y="-46.1"/>
      <point x="267.2" y="-60.1"/>
      <point x="235.5" y="-60.1" type="curve" smooth="yes"/>
      <point x="221.85000000000002" y="-60.7"/>
      <point x="208.6" y="-59.850000000000016"/>
      <point x="193.45000000000002" y="-55.80000000000001" type="curve"/>
      <point x="170.3" y="-190.7" type="line"/>
      <point x="191.45" y="-196.35"/>
      <point x="217.05" y="-197.55"/>
      <point x="235.55" y="-197.55" type="curve" smooth="yes"/>
      <point x="341.45" y="-194.85"/>
      <point x="407.09999999999997" y="-137.29999999999998"/>
      <point x="427.35" y="-7.899999999999999" type="curve" smooth="yes"/>
      <point x="540.45" y="700.0" type="line"/>
      <point x="413.75" y="700.0" type="line"/>
      <point x="345.25" y="276.15" type="line"/>
      <point x="241.75000000000003" y="700.6" type="line"/>
      <point x="108.39999999999999" y="700.6" type="line"/>
    </contour>
  </outline>
</glyph>
<glyph name="eng" format="2">
  <advance width="447.68"/>
  <unicode hex="014B"/>
  <outline>
    <contour>
      <point x="363.28000000000003" y="-0.5200000000000067" type="curve" smooth="yes"/>
      <point x="384.94" y="139.20000000000002"/>
      <point x="437.48" y="439.4"/>
      <point x="437.48" y="459.34" type="curve" smooth="yes"/>
      <point x="437.48" y="517.6"/>
      <point x="402.04" y="554.0"/>
      <point x="335.84" y="554.0" type="curve" smooth="yes"/>
      <point x="290.79999999999995" y="554.0"/>
      <point x="248.26" y="540.02"/>
      <point x="196.64" y="505.46" type="curve"/>
      <point x="202.45999999999998" y="544.0" type="line"/>
      <point x="80.28000000000002" y="544.0" type="line"/>
      <point x="-5.759999999999996" y="0.0" type="line"/>
      <point x="129.33999999999997" y="0.0" type="line"/>
      <point x="195.32" y="408.29999999999995" type="line"/>
      <point x="217.10000000000002" y="420.41999999999996"/>
      <point x="237.92000000000002" y="428.38"/>
      <point x="257.86" y="428.38" type="curve" smooth="yes"/>
      <point x="282.46000000000004" y="428.38"/>
      <point x="294.46" y="416.94"/>
      <point x="293.34000000000003" y="394.84" type="curve" smooth="yes"/>
      <point x="291.66" y="379.28000000000003"/>
      <point x="284.66" y="336.92"/>
      <point x="230.34000000000003" y="-1.400000000000004" type="curve" smooth="yes"/>
      <point x="223.02000000000004" y="-47.080000000000005"/>
      <point x="208.01999999999998" y="-76.52000000000001"/>
      <point x="177.42000000000002" y="-76.52000000000001" type="curve" smooth="yes"/>
      <point x="172.86" y="-76.52000000000001"/>
      <point x="166.92000000000002" y="-76.16000000000001"/>
      <point x="160.57999999999998" y="-73.9" type="curve"/>
      <point x="130.66" y="-214.23999999999998" type="line"/>
      <point x="146.52" y="-217.84"/>
      <point x="169.42000000000002" y="-220.35999999999999"/>
      <point x="193.78000000000003" y="-220.35999999999999" type="curve" smooth="yes"/>
      <point x="274.9" y="-220.35999999999999"/>
      <point x="340.44" y="-166.70000000000002"/>
    </contour>
  </outline>
</glyph>
<glyph name="OE" format="2">
  <advance width="722.6500000000001"/>
  <unicode hex="0152"/>
  <outline>
    <contour>
      <point x="660.8000000000001" y="0.0" type="line"/>
      <point x="680.9000000000001" y="124.44999999999999" type="line"/>
      <point x="446.25000000000006" y="124.44999999999999" type="line"/>
      <point x="472.8" y="294.59999999999997" type="line"/>
      <point x="673.25" y="294.59999999999997" type="line"/>
      <point x="692.85" y="412.34999999999997" type="line"/>
      <point x="492.09999999999997" y="412.34999999999997" type="line"/>
      <point x="517.7" y="573.2000000000002" type="line"/>
      <point x="739.4" y="573.2000000000002" type="line"/>
      <point x="760.35" y="700.0" type="line"/>
      <point x="536.0000000000001" y="700.0" type="line"/>
      <point x="482.25000000000006" y="704.55"/>
      <point x="416.4" y="710.0"/>
      <point x="354.25000000000006" y="710.0" type="curve" smooth="yes"/>
      <point x="132.70000000000002" y="710.0"/>
      <point x="25.450000000000003" y="448.00000000000006"/>
      <point x="25.450000000000003" y="213.85" type="curve" smooth="yes"/>
      <point x="25.450000000000003" y="65.69999999999999"/>
      <point x="88.10000000000001" y="-10.0"/>
      <point x="249.65" y="-10.0" type="curve" smooth="yes"/>
      <point x="299.29999999999995" y="-10.0"/>
      <point x="350.95" y="-6.549999999999999"/>
      <point x="417.35000000000014" y="0.0" type="curve"/>
    </contour>
    <contour>
      <point x="307.4" y="116.10000000000001" type="line"/>
      <point x="289.5" y="113.35"/>
      <point x="270.70000000000005" y="112.05"/>
      <point x="249.05" y="112.05" type="curve" smooth="yes"/>
      <point x="190.4" y="112.05"/>
      <point x="162.85000000000002" y="154.0"/>
      <point x="162.85000000000002" y="224.00000000000003" type="curve" smooth="yes"/>
      <point x="162.85000000000002" y="384.59999999999997"/>
      <point x="232.15" y="584.2500000000001"/>
      <point x="327.25" y="584.2500000000001" type="curve" smooth="yes"/>
      <point x="345.7" y="584.2500000000001"/>
      <point x="369.45" y="581.85"/>
      <point x="381.75" y="580.75" type="curve"/>
    </contour>
  </outline>
</glyph>
<glyph name="oe" format="2">
  <advance width="689.8000000000001"/>
  <unicode hex="0153"/>
  <outline>
    <contour>
      <point x="194.9" y="-10.0" type="curve" smooth="yes"/>
      <point x="255.9" y="-10.0"/>
      <point x="301.3" y="22.400000000000002"/>
      <point x="330.79999999999995" y="62.20000000000001" type="curve"/>
      <point x="360.6" y="16.5"/>
      <point x="407.7" y="-10.0"/>
      <point x="474.09999999999997" y="-10.0" type="curve" smooth="yes"/>
      <point x="528.5999999999999" y="-10.0"/>
      <point x="589.0999999999999" y="1.3999999999999995"/>
      <point x="638.2" y="24.099999999999998" type="curve"/>
      <point x="617.4" y="141.7" type="line"/>
      <point x="570.9" y="123.3"/>
      <point x="526.3" y="114.89999999999999"/>
      <point x="496.1" y="114.89999999999999" type="curve" smooth="yes"/>
      <point x="440.6" y="114.89999999999999"/>
      <point x="413.59999999999997" y="140.0"/>
      <point x="413.59999999999997" y="216.4" type="curve" smooth="yes"/>
      <point x="413.59999999999997" y="351.4"/>
      <point x="463.59999999999997" y="439.5"/>
      <point x="521.7" y="439.5" type="curve" smooth="yes"/>
      <point x="546.5" y="439.5"/>
      <point x="560.8" y="429.3"/>
      <point x="560.8" y="402.6" type="curve" smooth="yes"/>
      <point x="560.8" y="359.0"/>
      <point x="525.5" y="321.2"/>
      <point x="465.3" y="301.79999999999995" type="curve" smooth="yes"/>
      <point x="441.3" y="294.00000000000006"/>
      <point x="414.79999999999995" y="289.59999999999997"/>
      <point x="388.7" y="290.4" type="curve"/>
      <point x="373.3" y="202.5" type="line"/>
      <point x="413.40000000000003" y="201.00000000000003"/>
      <point x="456.09999999999997" y="206.10000000000002"/>
      <point x="498.6" y="216.9" type="curve" smooth="yes"/>
      <point x="617.0" y="247.10000000000002"/>
      <point x="691.2" y="325.6"/>
      <point x="691.2" y="426.09999999999997" type="curve" smooth="yes"/>
      <point x="691.2" y="503.1"/>
      <point x="638.7" y="554.0"/>
      <point x="540.2" y="554.0" type="curve" smooth="yes"/>
      <point x="475.1" y="554.0"/>
      <point x="423.29999999999995" y="527.0"/>
      <point x="385.5" y="485.59999999999997" type="curve"/>
      <point x="361.90000000000003" y="530.6"/>
      <point x="315.4" y="554.6999999999999"/>
      <point x="246.9" y="554.6999999999999" type="curve" smooth="yes"/>
      <point x="78.30000000000001" y="554.6999999999999"/>
      <point x="16.5" y="355.9"/>
      <point x="16.5" y="173.70000000000002" type="curve" smooth="yes"/>
      <point x="16.5" y="50.6"/>
      <point x="73.8" y="-10.0"/>
    </contour>
    <contour>
      <point x="199.9" y="107.49999999999999" type="curve" smooth="yes"/>
      <point x="168.6" y="107.29999999999998"/>
      <point x="150.89999999999998" y="122.19999999999999"/>
      <point x="150.2" y="163.7" type="curve" smooth="yes"/>
      <point x="148.8" y="241.10000000000002"/>
      <point x="180.1" y="436.50000000000006"/>
      <point x="241.5" y="437.2" type="curve" smooth="yes"/>
      <point x="272.0" y="437.4"/>
      <point x="289.99999999999994" y="421.90000000000003"/>
      <point x="290.7" y="381.09999999999997" type="curve" smooth="yes"/>
      <point x="292.1" y="300.3"/>
      <point x="259.59999999999997" y="108.2"/>
    </contour>
  </outline>
</glyph>
